SplineFontDB: 3.2
FontName: KoreeneSans-ThinItalic
FullName: Koreene Sans Thin Italic
FamilyName: Koreene Sans Thin
Weight: Thin
Copyright: (C) Copyright HanYang I&C Co.,Ltd. All rights reserved.
Version: 2.52
ItalicAngle: -9.4
UnderlinePosition: -244
UnderlineWidth: 90
Ascent: 1638
Descent: 410
InvalidEm: 0
sfntRevision: 0x00020147
LayerCount: 2
Layer: 0 1 "Back" 1
Layer: 1 1 "Fore" 0
XUID: [1021 531 -1996577725 14626079]
StyleMap: 0x0001
FSType: 0
OS2Version: 4
OS2_WeightWidthSlopeOnly: 0
OS2_UseTypoMetrics: 1
CreationTime: 1068260456
ModificationTime: 1706986220
PfmFamily: 81
TTFWeight: 100
TTFWidth: 5
LineGap: 512
VLineGap: 0
Panose: 0 0 0 0 0 0 0 0 0 0
OS2TypoAscent: 1940
OS2TypoAOffset: 0
OS2TypoDescent: -470
OS2TypoDOffset: 0
OS2TypoLinegap: 512
OS2WinAscent: 2196
OS2WinAOffset: 0
OS2WinDescent: 726
OS2WinDOffset: 0
HheadAscent: 1940
HheadAOffset: 0
HheadDescent: -470
HheadDOffset: 0
OS2SubXSize: 410
OS2SubYSize: 410
OS2SubXOff: 0
OS2SubYOff: 574
OS2SupXSize: 410
OS2SupYSize: 410
OS2SupXOff: 0
OS2SupYOff: 1926
OS2StrikeYSize: 204
OS2StrikeYPos: 1024
OS2CapHeight: 1470
OS2XHeight: 1040
OS2Vendor: 'HY  '
OS2CodePages: 2000019f.00000000
OS2UnicodeRanges: e10002ff.4000001b.00000000.00000000
Lookup: 1 0 0 "'aalt' Access All Alternates lookup 0" { "'aalt' Access All Alternates lookup 0 subtable"  } ['aalt' ('DFLT' <'dflt' > 'cyrl' <'dflt' > 'grek' <'dflt' > 'hang' <'dflt' > 'jamo' <'dflt' > 'latn' <'dflt' > ) ]
Lookup: 3 0 0 "'aalt' Access All Alternates lookup 1" { "'aalt' Access All Alternates lookup 1 subtable"  } ['aalt' ('DFLT' <'dflt' > 'cyrl' <'dflt' > 'grek' <'dflt' > 'hang' <'dflt' > 'jamo' <'dflt' > 'latn' <'dflt' > ) ]
Lookup: 1 0 0 "'locl' Localized Forms in Latin lookup 2" { "'locl' Localized Forms in Latin lookup 2 subtable"  } ['locl' ('latn' <'MOL ' > ) ]
Lookup: 1 0 0 "'locl' Localized Forms in Latin lookup 3" { "'locl' Localized Forms in Latin lookup 3 subtable"  } ['locl' ('latn' <'ROM ' > ) ]

StartChar: exclam
Encoding: 33 33 4
Width: 588
GlyphClass: 2
Flags: W
LayerCount: 2
Fore
SplineSet
114 -16 m 1,0,-1
 142 152 l 1,1,-1
 312 152 l 1,2,-1
 284 -16 l 1,3,-1
 114 -16 l 1,0,-1
298 422 m 1,4,-1
 246 422 l 1,5,-1
 406 1472 l 1,6,-1
 486 1472 l 1,7,-1
 298 422 l 1,4,-1
EndSplineSet
EndChar

StartChar: quotedbl
Encoding: 34 34 5
Width: 878
GlyphClass: 2
Flags: W
LayerCount: 2
Fore
SplineSet
590 1120 m 1,0,-1
 858 1672 l 1,1,-1
 972 1672 l 1,2,-1
 648 1120 l 1,3,-1
 590 1120 l 1,0,-1
224 1120 m 1,4,-1
 492 1672 l 1,5,-1
 604 1672 l 1,6,-1
 282 1120 l 1,7,-1
 224 1120 l 1,4,-1
EndSplineSet
EndChar

StartChar: numbersign
Encoding: 35 35 6
Width: 1342
GlyphClass: 2
Flags: W
LayerCount: 2
Fore
SplineSet
68 434 m 1,0,-1
 74 482 l 1,1,-1
 342 482 l 1,2,-1
 484 948 l 1,3,-1
 218 948 l 1,4,-1
 226 996 l 1,5,-1
 498 996 l 1,6,-1
 628 1420 l 1,7,-1
 682 1420 l 1,8,-1
 554 996 l 1,9,-1
 1012 996 l 1,10,-1
 1144 1420 l 1,11,-1
 1196 1420 l 1,12,-1
 1070 996 l 1,13,-1
 1328 996 l 1,14,-1
 1320 948 l 1,15,-1
 1054 948 l 1,16,-1
 912 482 l 1,17,-1
 1176 482 l 1,18,-1
 1168 434 l 1,19,-1
 898 434 l 1,20,-1
 768 8 l 1,21,-1
 712 8 l 1,22,-1
 844 434 l 1,23,-1
 382 434 l 1,24,-1
 254 8 l 1,25,-1
 198 8 l 1,26,-1
 328 434 l 1,27,-1
 68 434 l 1,0,-1
396 482 m 1,28,-1
 858 482 l 1,29,-1
 998 948 l 1,30,-1
 538 948 l 1,31,-1
 396 482 l 1,28,-1
EndSplineSet
EndChar

StartChar: dollar
Encoding: 36 36 7
Width: 1150
GlyphClass: 2
Flags: W
LayerCount: 2
Fore
SplineSet
98 228 m 1,0,-1
 152 260 l 1,1,2
 196 170 196 170 296 112 c 128,-1,3
 396 54 396 54 490 54 c 0,4,5
 646 54 646 54 759 125 c 128,-1,6
 872 196 872 196 898 352 c 0,7,8
 906 402 906 402 899 445 c 128,-1,9
 892 488 892 488 880 519 c 128,-1,10
 868 550 868 550 834 583 c 128,-1,11
 800 616 800 616 777 634 c 128,-1,12
 754 652 754 652 702 677 c 128,-1,13
 650 702 650 702 625 713 c 128,-1,14
 600 724 600 724 542 748 c 0,15,16
 396 806 396 806 323 893 c 128,-1,17
 250 980 250 980 276 1130 c 0,18,19
 298 1268 298 1268 414 1367 c 128,-1,20
 530 1466 530 1466 694 1468 c 1,21,-1
 722 1636 l 1,22,-1
 782 1636 l 1,23,-1
 754 1468 l 1,24,25
 856 1466 856 1466 941 1406 c 128,-1,26
 1026 1346 1026 1346 1052 1274 c 1,27,-1
 998 1250 l 1,28,29
 910 1414 910 1414 712 1414 c 0,30,31
 558 1414 558 1414 457 1333 c 128,-1,32
 356 1252 356 1252 336 1126 c 0,33,34
 314 994 314 994 383 918 c 128,-1,35
 452 842 452 842 596 784 c 0,36,37
 674 750 674 750 713 733 c 128,-1,38
 752 716 752 716 816 675 c 128,-1,39
 880 634 880 634 908 596 c 128,-1,40
 936 558 936 558 955 495 c 128,-1,41
 974 432 974 432 960 358 c 0,42,43
 930 180 930 180 802 92 c 128,-1,44
 674 4 674 4 512 0 c 1,45,-1
 484 -162 l 1,46,-1
 424 -162 l 1,47,-1
 450 0 l 1,48,49
 356 2 356 2 254 62 c 128,-1,50
 152 122 152 122 98 228 c 1,0,-1
EndSplineSet
EndChar

StartChar: percent
Encoding: 37 37 8
Width: 1892
GlyphClass: 2
Flags: W
LayerCount: 2
Fore
SplineSet
1014 306 m 0,0,1
 1038 456 1038 456 1153 551 c 128,-1,2
 1268 646 1268 646 1410 646 c 0,3,4
 1558 646 1558 646 1641 551 c 128,-1,5
 1724 456 1724 456 1700 306 c 0,6,7
 1674 154 1674 154 1557 58 c 128,-1,8
 1440 -38 1440 -38 1298 -38 c 0,9,10
 1158 -38 1158 -38 1073 57 c 128,-1,11
 988 152 988 152 1014 306 c 0,0,1
1072 306 m 0,12,13
 1050 174 1050 174 1122 94 c 128,-1,14
 1194 14 1194 14 1306 14 c 0,15,16
 1422 14 1422 14 1522 96 c 128,-1,17
 1622 178 1622 178 1642 306 c 0,18,19
 1662 432 1662 432 1593 512 c 128,-1,20
 1524 592 1524 592 1402 592 c 0,21,22
 1284 592 1284 592 1188 512 c 128,-1,23
 1092 432 1092 432 1072 306 c 0,12,13
252 1166 m 0,24,25
 276 1316 276 1316 392 1413 c 128,-1,26
 508 1510 508 1510 654 1510 c 0,27,28
 802 1510 802 1510 884 1414 c 128,-1,29
 966 1318 966 1318 940 1166 c 256,30,31
 914 1014 914 1014 799 921 c 128,-1,32
 684 828 684 828 540 828 c 0,33,34
 398 828 398 828 312 920 c 128,-1,35
 226 1012 226 1012 252 1166 c 0,24,25
308 1166 m 0,36,37
 288 1040 288 1040 362 960 c 128,-1,38
 436 880 436 880 550 880 c 256,39,40
 664 880 664 880 761 960 c 128,-1,41
 858 1040 858 1040 880 1166 c 0,42,43
 902 1294 902 1294 832 1376 c 128,-1,44
 762 1458 762 1458 646 1458 c 256,45,46
 528 1458 528 1458 429 1376 c 128,-1,47
 330 1294 330 1294 308 1166 c 0,36,37
292 -10 m 1,48,-1
 1594 1480 l 1,49,-1
 1662 1480 l 1,50,-1
 360 -10 l 1,51,-1
 292 -10 l 1,48,-1
EndSplineSet
EndChar

StartChar: ampersand
Encoding: 38 38 9
Width: 1258
GlyphClass: 2
Flags: W
LayerCount: 2
Fore
SplineSet
176 362 m 0,0,1
 152 212 152 212 236 112 c 128,-1,2
 320 12 320 12 472 12 c 0,3,4
 606 12 606 12 726 84 c 128,-1,5
 846 156 846 156 928 262 c 1,6,-1
 592 822 l 1,7,8
 222 638 222 638 176 362 c 0,0,1
114 360 m 0,9,10
 144 540 144 540 265 660 c 128,-1,11
 386 780 386 780 564 872 c 1,12,13
 522 950 522 950 503 991 c 128,-1,14
 484 1032 484 1032 466 1097 c 128,-1,15
 448 1162 448 1162 456 1210 c 0,16,17
 476 1328 476 1328 575 1409 c 128,-1,18
 674 1490 674 1490 826 1490 c 0,19,20
 952 1490 952 1490 1032 1424 c 128,-1,21
 1112 1358 1112 1358 1138 1264 c 1,22,-1
 1082 1244 l 1,23,24
 1058 1320 1058 1320 988 1378 c 128,-1,25
 918 1436 918 1436 818 1436 c 0,26,27
 698 1436 698 1436 616 1369 c 128,-1,28
 534 1302 534 1302 518 1212 c 0,29,30
 510 1168 510 1168 533 1098 c 128,-1,31
 556 1028 556 1028 610 926 c 128,-1,32
 664 824 664 824 713 742 c 128,-1,33
 762 660 762 660 846 524 c 128,-1,34
 930 388 930 388 970 318 c 1,35,36
 1076 468 1076 468 1130 668 c 1,37,-1
 1188 660 l 1,38,39
 1128 440 1128 440 1004 264 c 1,40,-1
 1162 0 l 1,41,-1
 1088 0 l 1,42,-1
 958 212 l 1,43,44
 878 110 878 110 750 35 c 128,-1,45
 622 -40 622 -40 462 -40 c 0,46,47
 272 -40 272 -40 179 75 c 128,-1,48
 86 190 86 190 114 360 c 0,9,10
EndSplineSet
EndChar

StartChar: quotesingle
Encoding: 39 39 10
Width: 498
GlyphClass: 2
Flags: W
LayerCount: 2
Fore
SplineSet
222 1120 m 1,0,-1
 488 1672 l 1,1,-1
 600 1672 l 1,2,-1
 280 1120 l 1,3,-1
 222 1120 l 1,0,-1
EndSplineSet
EndChar

StartChar: parenleft
Encoding: 40 40 11
Width: 886
GlyphClass: 2
Flags: W
LayerCount: 2
Fore
SplineSet
356 698 m 0,0,1
 456 1304 456 1304 868 1724 c 1,2,-1
 906 1698 l 1,3,4
 826 1610 826 1610 766 1529 c 128,-1,5
 706 1448 706 1448 632 1323 c 128,-1,6
 558 1198 558 1198 504 1039 c 128,-1,7
 450 880 450 880 420 698 c 0,8,9
 388 506 388 506 392 340 c 128,-1,10
 396 174 396 174 438 39 c 128,-1,11
 480 -96 480 -96 502 -149 c 128,-1,12
 524 -202 524 -202 576 -298 c 1,13,-1
 528 -322 l 1,14,15
 258 102 258 102 356 698 c 0,0,1
EndSplineSet
Substitution2: "'sups' Superscript lookup 5 subtable" uni207D
Substitution2: "'aalt' Access All Alternates lookup 0 subtable" uni207D
EndChar

StartChar: parenright
Encoding: 41 41 12
Width: 886
GlyphClass: 2
Flags: W
LayerCount: 2
Fore
SplineSet
22 -298 m 1,0,1
 90 -220 90 -220 122 -182 c 128,-1,2
 154 -144 154 -144 227 -37 c 128,-1,3
 300 70 300 70 344 163 c 128,-1,4
 388 256 388 256 438 400 c 128,-1,5
 488 544 488 544 512 698 c 0,6,7
 542 880 542 880 540 1037 c 128,-1,8
 538 1194 538 1194 506 1318 c 128,-1,9
 474 1442 474 1442 439 1525 c 128,-1,10
 404 1608 404 1608 352 1698 c 1,11,-1
 402 1724 l 1,12,13
 674 1304 674 1304 574 698 c 0,14,15
 476 106 476 106 64 -322 c 1,16,-1
 22 -298 l 1,0,1
EndSplineSet
Substitution2: "'sups' Superscript lookup 5 subtable" uni207E
Substitution2: "'aalt' Access All Alternates lookup 0 subtable" uni207E
EndChar

StartChar: asterisk
Encoding: 42 42 13
Width: 1090
GlyphClass: 2
Flags: W
LayerCount: 2
Fore
SplineSet
128 868 m 1,0,-1
 160 928 l 1,1,-1
 556 766 l 1,2,-1
 614 1192 l 1,3,-1
 688 1192 l 1,4,-1
 604 766 l 1,5,-1
 1056 928 l 1,6,-1
 1068 868 l 1,7,-1
 612 714 l 1,8,-1
 876 338 l 1,9,-1
 816 296 l 1,10,-1
 564 678 l 1,11,-1
 192 298 l 1,12,-1
 146 338 l 1,13,-1
 532 714 l 1,14,-1
 128 868 l 1,0,-1
EndSplineSet
EndChar

StartChar: plus
Encoding: 43 43 14
Width: 1092
GlyphClass: 2
Flags: W
LayerCount: 2
Fore
SplineSet
90 696 m 1,0,-1
 100 750 l 1,1,-1
 550 750 l 1,2,-1
 624 1192 l 1,3,-1
 680 1192 l 1,4,-1
 606 750 l 1,5,-1
 1054 750 l 1,6,-1
 1044 696 l 1,7,-1
 598 696 l 1,8,-1
 522 238 l 1,9,-1
 466 238 l 1,10,-1
 542 696 l 1,11,-1
 90 696 l 1,0,-1
EndSplineSet
Substitution2: "'sups' Superscript lookup 5 subtable" uni207A
Substitution2: "'aalt' Access All Alternates lookup 0 subtable" uni207A
EndChar

StartChar: comma
Encoding: 44 44 15
Width: 550
GlyphClass: 2
Flags: W
LayerCount: 2
Fore
SplineSet
-76 -380 m 1,0,-1
 192 168 l 1,1,-1
 302 168 l 1,2,-1
 -20 -380 l 1,3,-1
 -76 -380 l 1,0,-1
EndSplineSet
EndChar

StartChar: hyphen
Encoding: 45 45 16
Width: 760
GlyphClass: 2
Flags: W
LayerCount: 2
Fore
SplineSet
96 696 m 1,0,-1
 104 750 l 1,1,-1
 720 750 l 1,2,-1
 712 696 l 1,3,-1
 96 696 l 1,0,-1
EndSplineSet
EndChar

StartChar: period
Encoding: 46 46 17
Width: 550
GlyphClass: 2
Flags: W
LayerCount: 2
Fore
SplineSet
100 0 m 1,0,-1
 128 168 l 1,1,-1
 296 168 l 1,2,-1
 268 0 l 1,3,-1
 100 0 l 1,0,-1
EndSplineSet
EndChar

StartChar: slash
Encoding: 47 47 18
Width: 616
GlyphClass: 2
Flags: W
LayerCount: 2
Fore
SplineSet
-130 -136 m 1,0,-1
 738 1590 l 1,1,-1
 802 1590 l 1,2,-1
 -66 -136 l 1,3,-1
 -130 -136 l 1,0,-1
EndSplineSet
EndChar

StartChar: zero
Encoding: 48 48 19
Width: 1100
GlyphClass: 2
Flags: W
LayerCount: 2
Fore
SplineSet
216 736 m 0,0,1
 160 398 160 398 221 206 c 128,-1,2
 282 14 282 14 464 14 c 0,3,4
 562 14 562 14 644 72 c 128,-1,5
 726 130 726 130 783 233 c 128,-1,6
 840 336 840 336 880 461 c 128,-1,7
 920 586 920 586 946 736 c 0,8,9
 1002 1080 1002 1080 939 1268 c 128,-1,10
 876 1456 876 1456 698 1456 c 0,11,12
 524 1456 524 1456 399 1272 c 128,-1,13
 274 1088 274 1088 216 736 c 0,0,1
152 736 m 0,14,15
 216 1122 216 1122 364 1316 c 128,-1,16
 512 1510 512 1510 706 1510 c 0,17,18
 902 1510 902 1510 987 1315 c 128,-1,19
 1072 1120 1072 1120 1008 736 c 0,20,21
 982 578 982 578 936 444 c 128,-1,22
 890 310 890 310 824 199 c 128,-1,23
 758 88 758 88 663 25 c 128,-1,24
 568 -38 568 -38 454 -38 c 0,25,26
 250 -38 250 -38 171 166 c 128,-1,27
 92 370 92 370 152 736 c 0,14,15
EndSplineSet
EndChar

StartChar: one
Encoding: 49 49 20
Width: 1100
GlyphClass: 2
Flags: W
LayerCount: 2
Fore
SplineSet
344 1224 m 1,0,-1
 352 1272 l 1,1,-1
 428 1272 l 2,2,3
 580 1272 580 1272 625 1302 c 0,4,5
 675 1336 675 1336 692 1428 c 2,6,-1
 700 1470 l 1,7,-1
 754 1470 l 1,8,-1
 504 0 l 5,9,-1
 442 0 l 5,10,-1
 650 1224 l 1,11,-1
 344 1224 l 1,0,-1
EndSplineSet
Substitution2: "'subs' Subscript lookup 6 subtable" uni2081
Substitution2: "'sups' Superscript lookup 5 subtable" onesuperior
Substitution2: "'sinf' Scientific Inferiors lookup 4 subtable" uni2081
AlternateSubs2: "'aalt' Access All Alternates lookup 1 subtable" uni2081 onesuperior
EndChar

StartChar: two
Encoding: 50 50 21
Width: 1100
GlyphClass: 2
Flags: W
LayerCount: 2
Fore
SplineSet
222 1172 m 1,0,1
 378 1510 378 1510 708 1510 c 0,2,3
 880 1510 880 1510 974 1407 c 128,-1,4
 1068 1304 1068 1304 1038 1116 c 0,5,6
 1002 896 1002 896 740 680 c 0,7,8
 416 416 416 416 286 289 c 128,-1,9
 156 162 156 162 112 52 c 1,10,-1
 862 52 l 1,11,-1
 854 0 l 1,12,-1
 30 0 l 1,13,14
 38 48 38 48 62 98 c 128,-1,15
 86 148 86 148 143 212 c 128,-1,16
 200 276 200 276 238 318 c 128,-1,17
 276 360 276 360 374 445 c 128,-1,18
 472 530 472 530 516 565 c 128,-1,19
 560 600 560 600 688 706 c 0,20,21
 944 922 944 922 976 1118 c 0,22,23
 1004 1282 1004 1282 927 1369 c 128,-1,24
 850 1456 850 1456 692 1456 c 0,25,26
 548 1456 548 1456 441 1375 c 128,-1,27
 334 1294 334 1294 278 1158 c 1,28,-1
 222 1172 l 1,0,1
EndSplineSet
Substitution2: "'subs' Subscript lookup 6 subtable" uni2082
Substitution2: "'sups' Superscript lookup 5 subtable" twosuperior
Substitution2: "'sinf' Scientific Inferiors lookup 4 subtable" uni2082
AlternateSubs2: "'aalt' Access All Alternates lookup 1 subtable" uni2082 twosuperior
EndChar

StartChar: three
Encoding: 51 51 22
Width: 1100
GlyphClass: 2
Flags: W
LayerCount: 2
Fore
SplineSet
38 206 m 1,0,-1
 98 234 l 1,1,2
 138 138 138 138 223 76 c 128,-1,3
 308 14 308 14 428 14 c 0,4,5
 596 14 596 14 726 111 c 128,-1,6
 856 208 856 208 888 398 c 0,7,8
 918 576 918 576 813 666 c 128,-1,9
 708 756 708 756 540 756 c 0,10,11
 460 756 460 756 438 754 c 1,12,-1
 448 810 l 1,13,14
 464 808 464 808 540 808 c 0,15,16
 698 808 698 808 812 899 c 128,-1,17
 926 990 926 990 952 1144 c 0,18,19
 974 1280 974 1280 897 1368 c 128,-1,20
 820 1456 820 1456 670 1456 c 0,21,22
 454 1456 454 1456 304 1222 c 1,23,-1
 252 1244 l 1,24,25
 418 1510 418 1510 682 1510 c 0,26,27
 864 1510 864 1510 951 1405 c 128,-1,28
 1038 1300 1038 1300 1014 1146 c 0,29,30
 990 1004 990 1004 896 911 c 128,-1,31
 802 818 802 818 692 788 c 1,32,33
 818 764 818 764 898 666 c 128,-1,34
 978 568 978 568 950 398 c 0,35,36
 914 186 914 186 769 74 c 128,-1,37
 624 -38 624 -38 422 -38 c 0,38,39
 148 -38 148 -38 38 206 c 1,0,-1
EndSplineSet
Substitution2: "'subs' Subscript lookup 6 subtable" uni2083
Substitution2: "'sups' Superscript lookup 5 subtable" threesuperior
Substitution2: "'sinf' Scientific Inferiors lookup 4 subtable" uni2083
AlternateSubs2: "'aalt' Access All Alternates lookup 1 subtable" uni2083 threesuperior
EndChar

StartChar: four
Encoding: 52 52 23
Width: 1100
GlyphClass: 2
Flags: W
LayerCount: 2
Fore
SplineSet
38 422 m 1,0,-1
 906 1470 l 1,1,-1
 974 1470 l 1,2,-1
 798 424 l 1,3,-1
 1042 424 l 1,4,-1
 1032 372 l 1,5,-1
 790 372 l 1,6,-1
 732 0 l 5,7,-1
 672 0 l 5,8,-1
 732 372 l 1,9,-1
 30 372 l 1,10,-1
 38 422 l 1,0,-1
100 424 m 1,11,-1
 740 424 l 1,12,-1
 860 1140 l 2,13,14
 882 1274 882 1274 904 1386 c 1,15,-1
 900 1386 l 1,16,-1
 742 1186 l 1,17,-1
 100 424 l 1,11,-1
EndSplineSet
Substitution2: "'subs' Subscript lookup 6 subtable" uni2084
Substitution2: "'sups' Superscript lookup 5 subtable" uni2074
Substitution2: "'sinf' Scientific Inferiors lookup 4 subtable" uni2084
AlternateSubs2: "'aalt' Access All Alternates lookup 1 subtable" uni2084 uni2074
EndChar

StartChar: five
Encoding: 53 53 24
Width: 1100
GlyphClass: 2
Flags: W
LayerCount: 2
Fore
SplineSet
54 198 m 1,0,-1
 108 224 l 1,1,2
 146 128 146 128 229 71 c 128,-1,3
 312 14 312 14 414 14 c 0,4,5
 590 14 590 14 712 132 c 128,-1,6
 834 250 834 250 862 422 c 0,7,8
 892 608 892 608 808 719 c 128,-1,9
 724 830 724 830 554 830 c 0,10,11
 474 830 474 830 379 798 c 128,-1,12
 284 766 284 766 212 702 c 1,13,-1
 178 716 l 1,14,-1
 378 1470 l 1,15,-1
 1008 1470 l 1,16,-1
 1000 1418 l 1,17,-1
 426 1418 l 1,18,-1
 254 788 l 1,19,20
 408 884 408 884 582 884 c 0,21,22
 766 884 766 884 863 757 c 128,-1,23
 960 630 960 630 926 422 c 0,24,25
 894 228 894 228 754 95 c 128,-1,26
 614 -38 614 -38 406 -38 c 0,27,28
 278 -38 278 -38 187 24 c 128,-1,29
 96 86 96 86 54 198 c 1,0,-1
EndSplineSet
EndChar

StartChar: six
Encoding: 54 54 25
Width: 1100
GlyphClass: 2
Flags: W
LayerCount: 2
Fore
SplineSet
180 444 m 0,0,1
 150 264 150 264 230 139 c 128,-1,2
 310 14 310 14 478 14 c 0,3,4
 636 14 636 14 761 138 c 128,-1,5
 886 262 886 262 916 444 c 0,6,7
 948 632 948 632 863 757 c 128,-1,8
 778 882 778 882 616 882 c 0,9,10
 458 882 458 882 334 755 c 128,-1,11
 210 628 210 628 180 444 c 0,0,1
134 642 m 0,12,13
 160 798 160 798 208 942 c 128,-1,14
 256 1086 256 1086 332 1218 c 128,-1,15
 408 1350 408 1350 524 1430 c 128,-1,16
 640 1510 640 1510 780 1510 c 0,17,18
 1002 1510 1002 1510 1092 1288 c 1,19,-1
 1036 1262 l 1,20,21
 954 1456 954 1456 770 1456 c 0,22,23
 658 1456 658 1456 564 1393 c 128,-1,24
 470 1330 470 1330 406 1225 c 128,-1,25
 342 1120 342 1120 302 1021 c 128,-1,26
 262 922 262 922 234 808 c 0,27,28
 218 744 218 744 192 614 c 1,29,30
 248 756 248 756 365 845 c 128,-1,31
 482 934 482 934 636 934 c 0,32,33
 824 934 824 934 918 793 c 128,-1,34
 1012 652 1012 652 978 448 c 0,35,36
 944 246 944 246 805 104 c 128,-1,37
 666 -38 666 -38 474 -38 c 0,38,39
 296 -38 296 -38 202 72 c 0,40,41
 128 158 128 158 114 295 c 128,-1,42
 100 432 100 432 134 642 c 0,12,13
EndSplineSet
EndChar

StartChar: seven
Encoding: 55 55 26
Width: 1100
GlyphClass: 2
Flags: W
LayerCount: 2
Fore
SplineSet
224 1416 m 1,0,-1
 234 1470 l 1,1,-1
 1098 1470 l 1,2,-1
 1090 1424 l 1,3,4
 800 1036 800 1036 616 732 c 128,-1,5
 432 428 432 428 266 0 c 1,6,-1
 206 0 l 1,7,8
 378 448 378 448 561 746 c 128,-1,9
 744 1044 744 1044 1016 1416 c 1,10,-1
 224 1416 l 1,0,-1
EndSplineSet
EndChar

StartChar: eight
Encoding: 56 56 27
Width: 1100
GlyphClass: 2
Flags: W
LayerCount: 2
Fore
SplineSet
310 1140 m 0,0,1
 286 998 286 998 374 909 c 128,-1,2
 462 820 462 820 594 820 c 0,3,4
 728 820 728 820 845 913 c 128,-1,5
 962 1006 962 1006 984 1140 c 0,6,7
 1008 1282 1008 1282 923 1369 c 128,-1,8
 838 1456 838 1456 700 1456 c 0,9,10
 552 1456 552 1456 442 1364 c 128,-1,11
 332 1272 332 1272 310 1140 c 0,0,1
72 380 m 0,12,13
 100 546 100 546 209 651 c 128,-1,14
 318 756 318 756 458 794 c 1,15,16
 348 832 348 832 287 918 c 128,-1,17
 226 1004 226 1004 250 1144 c 0,18,19
 274 1294 274 1294 403 1402 c 128,-1,20
 532 1510 532 1510 708 1510 c 0,21,22
 878 1510 878 1510 975 1404 c 128,-1,23
 1072 1298 1072 1298 1046 1144 c 0,24,25
 1024 1006 1024 1006 930 917 c 128,-1,26
 836 828 836 828 726 794 c 1,27,28
 856 756 856 756 929 650 c 128,-1,29
 1002 544 1002 544 974 376 c 0,30,31
 944 200 944 200 794 81 c 128,-1,32
 644 -38 644 -38 452 -38 c 0,33,34
 262 -38 262 -38 152 79 c 128,-1,35
 42 196 42 196 72 380 c 0,12,13
134 384 m 0,36,37
 108 224 108 224 203 119 c 128,-1,38
 298 14 298 14 460 14 c 0,39,40
 626 14 626 14 756 119 c 128,-1,41
 886 224 886 224 912 384 c 0,42,43
 940 550 940 550 843 659 c 128,-1,44
 746 768 746 768 586 768 c 0,45,46
 430 768 430 768 296 661 c 128,-1,47
 162 554 162 554 134 384 c 0,36,37
EndSplineSet
EndChar

StartChar: nine
Encoding: 57 57 28
Width: 1100
GlyphClass: 2
Flags: W
LayerCount: 2
Fore
SplineSet
238 1028 m 0,0,1
 206 834 206 834 295 714 c 128,-1,2
 384 594 384 594 536 594 c 0,3,4
 684 594 684 594 814 718 c 128,-1,5
 944 842 944 842 974 1026 c 0,6,7
 1004 1208 1004 1208 921 1332 c 128,-1,8
 838 1456 838 1456 678 1456 c 256,9,10
 520 1456 520 1456 394 1334 c 128,-1,11
 268 1212 268 1212 238 1028 c 0,0,1
64 196 m 1,12,-1
 126 222 l 1,13,14
 154 128 154 128 228 71 c 128,-1,15
 302 14 302 14 406 14 c 0,16,17
 806 14 806 14 950 826 c 1,18,19
 894 714 894 714 778 627 c 128,-1,20
 662 540 662 540 520 540 c 0,21,22
 344 540 344 540 242 673 c 128,-1,23
 140 806 140 806 176 1026 c 0,24,25
 210 1236 210 1236 353 1373 c 128,-1,26
 496 1510 496 1510 688 1510 c 0,27,28
 856 1510 856 1510 945 1408 c 128,-1,29
 1034 1306 1034 1306 1042 1150 c 0,30,31
 1048 1056 1048 1056 1006 812 c 0,32,33
 866 -38 866 -38 396 -38 c 0,34,35
 262 -38 262 -38 180 30 c 128,-1,36
 98 98 98 98 64 196 c 1,12,-1
EndSplineSet
EndChar

StartChar: colon
Encoding: 58 58 29
Width: 550
GlyphClass: 2
Flags: W
LayerCount: 2
Fore
SplineSet
100 0 m 1,0,-1
 128 170 l 1,1,-1
 296 170 l 1,2,-1
 268 0 l 1,3,-1
 100 0 l 1,0,-1
228 774 m 1,4,-1
 256 944 l 1,5,-1
 424 944 l 1,6,-1
 396 774 l 1,7,-1
 228 774 l 1,4,-1
EndSplineSet
EndChar

StartChar: semicolon
Encoding: 59 59 30
Width: 550
GlyphClass: 2
Flags: W
LayerCount: 2
Fore
SplineSet
-76 -380 m 1,0,-1
 192 170 l 1,1,-1
 302 170 l 1,2,-1
 -20 -380 l 1,3,-1
 -76 -380 l 1,0,-1
230 774 m 1,4,-1
 258 944 l 1,5,-1
 424 944 l 1,6,-1
 396 774 l 1,7,-1
 230 774 l 1,4,-1
EndSplineSet
EndChar

StartChar: less
Encoding: 60 60 31
Width: 1084
GlyphClass: 2
Flags: W
LayerCount: 2
Fore
SplineSet
162 680 m 1,0,-1
 172 736 l 1,1,-1
 1080 1378 l 1,2,-1
 1106 1332 l 1,3,-1
 224 706 l 1,4,-1
 898 84 l 1,5,-1
 858 40 l 1,6,-1
 162 680 l 1,0,-1
EndSplineSet
EndChar

StartChar: equal
Encoding: 61 61 32
Width: 1086
GlyphClass: 2
Flags: W
LayerCount: 2
Fore
SplineSet
96 514 m 1,0,-1
 106 566 l 1,1,-1
 986 566 l 1,2,-1
 976 514 l 1,3,-1
 96 514 l 1,0,-1
158 884 m 1,4,-1
 166 938 l 1,5,-1
 1046 938 l 1,6,-1
 1038 884 l 1,7,-1
 158 884 l 1,4,-1
EndSplineSet
Substitution2: "'sups' Superscript lookup 5 subtable" uni207C
Substitution2: "'aalt' Access All Alternates lookup 0 subtable" uni207C
EndChar

StartChar: greater
Encoding: 62 62 33
Width: 1084
GlyphClass: 2
Flags: W
LayerCount: 2
Fore
SplineSet
56 40 m 1,0,-1
 30 84 l 1,1,-1
 906 706 l 1,2,-1
 236 1332 l 1,3,-1
 276 1378 l 1,4,-1
 970 736 l 1,5,-1
 960 680 l 1,6,-1
 56 40 l 1,0,-1
EndSplineSet
EndChar

StartChar: question
Encoding: 63 63 34
Width: 1042
GlyphClass: 2
Flags: W
LayerCount: 2
Fore
SplineSet
244 1228 m 1,0,1
 324 1364 324 1364 440 1437 c 128,-1,2
 556 1510 556 1510 674 1510 c 0,3,4
 848 1510 848 1510 928 1406 c 128,-1,5
 1008 1302 1008 1302 980 1130 c 0,6,7
 964 1038 964 1038 915 964 c 128,-1,8
 866 890 866 890 805 838 c 128,-1,9
 744 786 744 786 681 733 c 128,-1,10
 618 680 618 680 567 604 c 128,-1,11
 516 528 516 528 500 434 c 2,12,-1
 496 402 l 1,13,-1
 434 402 l 1,14,-1
 440 436 l 2,15,16
 456 538 456 538 508 619 c 128,-1,17
 560 700 560 700 622 752 c 128,-1,18
 684 804 684 804 745 855 c 128,-1,19
 806 906 806 906 855 974 c 128,-1,20
 904 1042 904 1042 918 1126 c 0,21,22
 942 1274 942 1274 876 1365 c 128,-1,23
 810 1456 810 1456 666 1456 c 0,24,25
 450 1456 450 1456 294 1206 c 1,26,-1
 244 1228 l 1,0,1
310 -16 m 1,27,-1
 338 152 l 1,28,-1
 506 152 l 1,29,-1
 480 -16 l 1,30,-1
 310 -16 l 1,27,-1
EndSplineSet
EndChar

StartChar: at
Encoding: 64 64 35
Width: 1882
GlyphClass: 2
Flags: W
LayerCount: 2
Fore
SplineSet
150 686 m 256,0,1
 210 1050 210 1050 486 1282 c 128,-1,2
 762 1514 762 1514 1146 1514 c 0,3,4
 1492 1514 1492 1514 1670 1313 c 128,-1,5
 1848 1112 1848 1112 1794 790 c 0,6,7
 1748 518 1748 518 1629 383 c 128,-1,8
 1510 248 1510 248 1368 248 c 0,9,10
 1276 248 1276 248 1224 319 c 128,-1,11
 1172 390 1172 390 1190 506 c 1,12,-1
 1188 506 l 1,13,14
 1138 410 1138 410 1035 330 c 128,-1,15
 932 250 932 250 808 250 c 0,16,17
 674 250 674 250 605 353 c 128,-1,18
 536 456 536 456 564 622 c 0,19,20
 600 844 600 844 741 976 c 128,-1,21
 882 1108 882 1108 1044 1108 c 0,22,23
 1152 1108 1152 1108 1205 1058 c 128,-1,24
 1258 1008 1258 1008 1274 952 c 1,25,-1
 1306 1090 l 1,26,-1
 1356 1090 l 1,27,-1
 1246 562 l 2,28,29
 1244 552 1244 552 1242 544 c 0,30,31
 1224 432 1224 432 1260 367 c 128,-1,32
 1296 302 1296 302 1380 302 c 0,33,34
 1506 302 1506 302 1603 430 c 128,-1,35
 1700 558 1700 558 1736 784 c 0,36,37
 1786 1082 1786 1082 1627 1272 c 128,-1,38
 1468 1462 1468 1462 1134 1462 c 0,39,40
 790 1462 790 1462 528 1249 c 128,-1,41
 266 1036 266 1036 208 686 c 256,42,43
 150 336 150 336 330 127 c 128,-1,44
 510 -82 510 -82 852 -82 c 0,45,46
 1090 -82 1090 -82 1302 -18 c 1,47,-1
 1308 -66 l 1,48,49
 1086 -130 1086 -130 844 -130 c 0,50,51
 472 -130 472 -130 281 96 c 128,-1,52
 90 322 90 322 150 686 c 256,0,1
620 620 m 0,53,54
 596 478 596 478 653 391 c 128,-1,55
 710 304 710 304 818 304 c 0,56,57
 868 304 868 304 924 326 c 128,-1,58
 980 348 980 348 1044 398 c 128,-1,59
 1108 448 1108 448 1159 548 c 128,-1,60
 1210 648 1210 648 1234 788 c 0,61,62
 1250 890 1250 890 1204 973 c 128,-1,63
 1158 1056 1158 1056 1032 1056 c 0,64,65
 902 1056 902 1056 778 941 c 128,-1,66
 654 826 654 826 620 620 c 0,53,54
EndSplineSet
EndChar

StartChar: A
Encoding: 65 65 36
Width: 1216
GlyphClass: 2
Flags: W
LayerCount: 2
Fore
SplineSet
272 538 m 1,0,-1
 934 538 l 1,1,-1
 794 1200 l 2,2,3
 786 1240 786 1240 771 1311 c 128,-1,4
 756 1382 756 1382 750 1412 c 1,5,-1
 746 1412 l 1,6,7
 658 1246 658 1246 634 1200 c 2,8,-1
 272 538 l 1,0,-1
-88 0 m 1,9,-1
 718 1470 l 1,10,-1
 800 1470 l 1,11,-1
 1118 0 l 1,12,-1
 1046 0 l 1,13,-1
 946 486 l 1,14,-1
 244 486 l 1,15,-1
 -20 0 l 1,16,-1
 -88 0 l 1,9,-1
EndSplineSet
Substitution2: "Single Substitution lookup 12 subtable" ordfeminine
EndChar

StartChar: B
Encoding: 66 66 37
Width: 1312
GlyphClass: 2
Flags: W
LayerCount: 2
Fore
SplineSet
138 0 m 1,0,-1
 382 1470 l 1,1,-1
 888 1470 l 2,2,3
 1082 1470 1082 1470 1171 1368 c 128,-1,4
 1260 1266 1260 1266 1234 1106 c 0,5,6
 1212 968 1212 968 1125 882 c 128,-1,7
 1038 796 1038 796 926 768 c 1,8,9
 1052 736 1052 736 1125 634 c 128,-1,10
 1198 532 1198 532 1174 396 c 0,11,12
 1144 220 1144 220 1012 110 c 128,-1,13
 880 0 880 0 702 0 c 2,14,-1
 138 0 l 1,0,-1
206 54 m 1,15,-1
 696 54 l 2,16,17
 854 54 854 54 972 151 c 128,-1,18
 1090 248 1090 248 1112 390 c 0,19,20
 1136 536 1136 536 1045 635 c 128,-1,21
 954 734 954 734 796 734 c 2,22,-1
 320 734 l 1,23,-1
 206 54 l 1,15,-1
328 786 m 1,24,-1
 754 786 l 2,25,26
 908 786 908 786 1027 867 c 128,-1,27
 1146 948 1146 948 1172 1104 c 0,28,29
 1194 1236 1194 1236 1121 1326 c 128,-1,30
 1048 1416 1048 1416 874 1416 c 2,31,-1
 432 1416 l 1,32,-1
 328 786 l 1,24,-1
EndSplineSet
EndChar

StartChar: C
Encoding: 67 67 38
Width: 1226
GlyphClass: 2
Flags: W
LayerCount: 2
Fore
SplineSet
144 736 m 0,0,1
 204 1100 204 1100 400 1305 c 128,-1,2
 596 1510 596 1510 856 1510 c 0,3,4
 1016 1510 1016 1510 1108 1421 c 128,-1,5
 1200 1332 1200 1332 1226 1222 c 1,6,-1
 1170 1198 l 1,7,8
 1140 1304 1140 1304 1060 1379 c 128,-1,9
 980 1454 980 1454 848 1454 c 0,10,11
 610 1454 610 1454 436 1258 c 128,-1,12
 262 1062 262 1062 210 736 c 0,13,14
 156 404 156 404 267 210 c 128,-1,15
 378 16 378 16 610 16 c 0,16,17
 756 16 756 16 869 92 c 128,-1,18
 982 168 982 168 1056 286 c 1,19,-1
 1108 266 l 1,20,21
 916 -38 916 -38 600 -38 c 0,22,23
 338 -38 338 -38 211 169 c 128,-1,24
 84 376 84 376 144 736 c 0,0,1
EndSplineSet
EndChar

StartChar: D
Encoding: 68 68 39
Width: 1326
GlyphClass: 2
Flags: W
LayerCount: 2
Fore
SplineSet
138 0 m 1,0,-1
 382 1470 l 1,1,-1
 738 1470 l 2,2,3
 1036 1470 1036 1470 1179 1288 c 128,-1,4
 1322 1106 1322 1106 1260 736 c 0,5,6
 1200 370 1200 370 998 185 c 128,-1,7
 796 0 796 0 496 0 c 2,8,-1
 138 0 l 1,0,-1
206 54 m 1,9,-1
 476 54 l 2,10,11
 760 54 760 54 949 217 c 128,-1,12
 1138 380 1138 380 1198 736 c 0,13,14
 1310 1416 1310 1416 704 1416 c 2,15,-1
 432 1416 l 1,16,-1
 206 54 l 1,9,-1
EndSplineSet
EndChar

StartChar: E
Encoding: 69 69 40
Width: 1194
GlyphClass: 2
Flags: W
LayerCount: 2
Fore
SplineSet
138 0 m 1,0,-1
 382 1470 l 1,1,-1
 1238 1470 l 1,2,-1
 1230 1416 l 1,3,-1
 432 1416 l 1,4,-1
 328 790 l 1,5,-1
 1050 790 l 1,6,-1
 1042 738 l 1,7,-1
 320 738 l 1,8,-1
 206 54 l 1,9,-1
 1032 54 l 1,10,-1
 1022 0 l 1,11,-1
 138 0 l 1,0,-1
EndSplineSet
EndChar

StartChar: F
Encoding: 70 70 41
Width: 1138
GlyphClass: 2
Flags: W
LayerCount: 2
Fore
SplineSet
138 0 m 1,0,-1
 382 1470 l 1,1,-1
 1204 1470 l 1,2,-1
 1194 1416 l 1,3,-1
 432 1416 l 1,4,-1
 326 770 l 1,5,-1
 1012 770 l 1,6,-1
 1002 718 l 1,7,-1
 316 718 l 1,8,-1
 198 0 l 1,9,-1
 138 0 l 1,0,-1
EndSplineSet
EndChar

StartChar: G
Encoding: 71 71 42
Width: 1384
GlyphClass: 2
Flags: W
LayerCount: 2
Fore
SplineSet
144 736 m 0,0,1
 202 1086 202 1086 395 1298 c 128,-1,2
 588 1510 588 1510 874 1510 c 0,3,4
 1034 1510 1034 1510 1133 1428 c 128,-1,5
 1232 1346 1232 1346 1266 1236 c 1,6,-1
 1212 1214 l 1,7,8
 1124 1454 1124 1454 864 1454 c 0,9,10
 608 1454 608 1454 435 1255 c 128,-1,11
 262 1056 262 1056 210 736 c 0,12,13
 156 408 156 408 265 212 c 128,-1,14
 374 16 374 16 624 16 c 0,15,16
 776 16 776 16 895 98 c 128,-1,17
 1014 180 1014 180 1077 297 c 128,-1,18
 1140 414 1140 414 1162 550 c 2,19,-1
 1188 702 l 1,20,-1
 718 702 l 1,21,-1
 728 756 l 1,22,-1
 1256 756 l 1,23,-1
 1130 0 l 1,24,-1
 1076 0 l 1,25,-1
 1126 304 l 1,26,27
 1060 158 1060 158 933 60 c 128,-1,28
 806 -38 806 -38 614 -38 c 0,29,30
 332 -38 332 -38 209 172 c 128,-1,31
 86 382 86 382 144 736 c 0,0,1
EndSplineSet
EndChar

StartChar: H
Encoding: 72 72 43
Width: 1440
GlyphClass: 2
Flags: W
LayerCount: 2
Fore
SplineSet
138 0 m 1,0,-1
 382 1470 l 1,1,-1
 442 1470 l 1,2,-1
 328 786 l 1,3,-1
 1184 786 l 1,4,-1
 1298 1470 l 1,5,-1
 1358 1470 l 1,6,-1
 1116 0 l 1,7,-1
 1054 0 l 1,8,-1
 1176 734 l 1,9,-1
 320 734 l 1,10,-1
 198 0 l 1,11,-1
 138 0 l 1,0,-1
EndSplineSet
EndChar

StartChar: I
Encoding: 73 73 44
Width: 524
GlyphClass: 2
Flags: W
LayerCount: 2
Fore
SplineSet
138 0 m 1,0,-1
 382 1470 l 1,1,-1
 442 1470 l 1,2,-1
 198 0 l 1,3,-1
 138 0 l 1,0,-1
EndSplineSet
EndChar

StartChar: J
Encoding: 74 74 45
Width: 938
GlyphClass: 2
Flags: W
LayerCount: 2
Fore
SplineSet
-20 188 m 1,0,-1
 42 210 l 1,1,2
 66 116 66 116 126 66 c 128,-1,3
 186 16 186 16 258 16 c 0,4,5
 264 16 264 16 270 16 c 0,6,7
 558 24 558 24 622 414 c 2,8,-1
 796 1470 l 1,9,-1
 858 1470 l 1,10,-1
 680 392 l 2,11,12
 608 -38 608 -38 264 -38 c 0,13,14
 38 -38 38 -38 -20 188 c 1,0,-1
EndSplineSet
EndChar

StartChar: K
Encoding: 75 75 46
Width: 1220
GlyphClass: 2
Flags: W
LayerCount: 2
Fore
SplineSet
138 0 m 1,0,-1
 382 1470 l 1,1,-1
 442 1470 l 1,2,-1
 290 562 l 1,3,-1
 294 562 l 1,4,-1
 1224 1470 l 1,5,-1
 1308 1470 l 1,6,-1
 662 842 l 1,7,-1
 1112 0 l 1,8,-1
 1030 0 l 1,9,-1
 614 794 l 1,10,-1
 274 466 l 1,11,-1
 198 0 l 1,12,-1
 138 0 l 1,0,-1
EndSplineSet
EndChar

StartChar: L
Encoding: 76 76 47
Width: 1036
GlyphClass: 2
Flags: W
LayerCount: 2
Fore
SplineSet
138 0 m 1,0,-1
 382 1470 l 1,1,-1
 442 1470 l 1,2,-1
 206 54 l 1,3,-1
 930 54 l 1,4,-1
 922 0 l 1,5,-1
 138 0 l 1,0,-1
EndSplineSet
EndChar

StartChar: M
Encoding: 77 77 48
Width: 1732
GlyphClass: 2
Flags: W
LayerCount: 2
Fore
SplineSet
138 0 m 1,0,-1
 382 1470 l 1,1,-1
 462 1470 l 1,2,-1
 724 528 l 2,3,4
 742 466 742 466 768 358 c 128,-1,5
 794 250 794 250 804 210 c 1,6,-1
 808 210 l 1,7,8
 834 252 834 252 897 361 c 128,-1,9
 960 470 960 470 996 528 c 2,10,-1
 1568 1470 l 1,11,-1
 1652 1470 l 1,12,-1
 1410 0 l 1,13,-1
 1346 0 l 1,14,-1
 1516 1022 l 2,15,16
 1536 1142 1536 1142 1586 1386 c 1,17,-1
 1580 1386 l 1,18,-1
 828 136 l 1,19,-1
 766 136 l 1,20,-1
 426 1388 l 1,21,-1
 422 1388 l 1,22,23
 412 1290 412 1290 366 1022 c 2,24,-1
 198 0 l 1,25,-1
 138 0 l 1,0,-1
EndSplineSet
EndChar

StartChar: N
Encoding: 78 78 49
Width: 1456
GlyphClass: 2
Flags: W
LayerCount: 2
Fore
SplineSet
138 0 m 1,0,-1
 382 1470 l 1,1,-1
 456 1470 l 1,2,-1
 1090 86 l 1,3,-1
 1096 86 l 1,4,5
 1110 234 1110 234 1144 434 c 2,6,-1
 1316 1470 l 1,7,-1
 1378 1470 l 1,8,-1
 1134 0 l 1,9,-1
 1058 0 l 1,10,-1
 424 1384 l 1,11,-1
 422 1384 l 1,12,13
 406 1256 406 1256 362 996 c 2,14,-1
 198 0 l 1,15,-1
 138 0 l 1,0,-1
EndSplineSet
EndChar

StartChar: O
Encoding: 79 79 50
Width: 1356
GlyphClass: 2
Flags: W
LayerCount: 2
Fore
SplineSet
144 736 m 0,0,1
 202 1086 202 1086 388 1298 c 128,-1,2
 574 1510 574 1510 834 1510 c 256,3,4
 1094 1510 1094 1510 1210 1297 c 128,-1,5
 1326 1084 1326 1084 1268 734 c 0,6,7
 1210 386 1210 386 1025 174 c 128,-1,8
 840 -38 840 -38 578 -38 c 256,9,10
 316 -38 316 -38 201 175 c 128,-1,11
 86 388 86 388 144 736 c 0,0,1
210 736 m 0,12,13
 158 416 158 416 255 216 c 128,-1,14
 352 16 352 16 588 16 c 0,15,16
 822 16 822 16 988 214 c 128,-1,17
 1154 412 1154 412 1206 734 c 0,18,19
 1260 1062 1260 1062 1158 1258 c 128,-1,20
 1056 1454 1056 1454 826 1454 c 0,21,22
 598 1454 598 1454 431 1259 c 128,-1,23
 264 1064 264 1064 210 736 c 0,12,13
EndSplineSet
Substitution2: "Single Substitution lookup 12 subtable" ordmasculine
EndChar

StartChar: P
Encoding: 80 80 51
Width: 1282
GlyphClass: 2
Flags: W
LayerCount: 2
Fore
SplineSet
138 0 m 1,0,-1
 382 1470 l 1,1,-1
 912 1470 l 2,2,3
 1102 1470 1102 1470 1201 1359 c 128,-1,4
 1300 1248 1300 1248 1268 1060 c 256,5,6
 1236 872 1236 872 1098 761 c 128,-1,7
 960 650 960 650 774 650 c 2,8,-1
 306 650 l 1,9,-1
 198 0 l 1,10,-1
 138 0 l 1,0,-1
314 700 m 1,11,-1
 762 700 l 2,12,13
 938 700 938 700 1058 793 c 128,-1,14
 1178 886 1178 886 1206 1060 c 0,15,16
 1234 1228 1234 1228 1146 1322 c 128,-1,17
 1058 1416 1058 1416 878 1416 c 2,18,-1
 432 1416 l 1,19,-1
 314 700 l 1,11,-1
EndSplineSet
EndChar

StartChar: Q
Encoding: 81 81 52
Width: 1356
GlyphClass: 2
Flags: W
LayerCount: 2
Fore
SplineSet
144 734 m 0,0,1
 202 1086 202 1086 388 1298 c 128,-1,2
 574 1510 574 1510 834 1510 c 0,3,4
 1092 1510 1092 1510 1209 1297 c 128,-1,5
 1326 1084 1326 1084 1268 734 c 256,6,7
 1210 384 1210 384 1024 174 c 0,8,9
 1004 150 1004 150 982 130 c 1,10,-1
 1132 -66 l 1,11,-1
 1082 -104 l 1,12,-1
 934 88 l 1,13,14
 778 -38 778 -38 578 -38 c 0,15,16
 318 -38 318 -38 202 173 c 128,-1,17
 86 384 86 384 144 734 c 0,0,1
660 442 m 1,18,-1
 712 484 l 1,19,-1
 950 174 l 1,20,21
 966 192 966 192 986 212 c 0,22,23
 1152 408 1152 408 1206 734 c 0,24,25
 1260 1064 1260 1064 1157 1259 c 128,-1,26
 1054 1454 1054 1454 826 1454 c 256,27,28
 598 1454 598 1454 431 1259 c 128,-1,29
 264 1064 264 1064 208 734 c 0,30,31
 154 410 154 410 255 213 c 128,-1,32
 356 16 356 16 588 16 c 0,33,34
 764 16 764 16 902 128 c 1,35,-1
 660 442 l 1,18,-1
EndSplineSet
EndChar

StartChar: R
Encoding: 82 82 53
Width: 1292
GlyphClass: 2
Flags: W
LayerCount: 2
Fore
SplineSet
320 736 m 1,0,-1
 794 736 l 2,1,2
 968 736 968 736 1078 829 c 128,-1,3
 1188 922 1188 922 1214 1078 c 0,4,5
 1238 1222 1238 1222 1158 1319 c 128,-1,6
 1078 1416 1078 1416 888 1416 c 2,7,-1
 432 1416 l 1,8,-1
 320 736 l 1,0,-1
138 0 m 1,9,-1
 382 1470 l 1,10,-1
 918 1470 l 2,11,12
 1120 1470 1120 1470 1211 1359 c 128,-1,13
 1302 1248 1302 1248 1274 1080 c 0,14,15
 1244 904 1244 904 1137 812 c 128,-1,16
 1030 720 1030 720 922 700 c 1,17,18
 1074 638 1074 638 1090 396 c 0,19,20
 1092 370 1092 370 1097 317 c 128,-1,21
 1102 264 1102 264 1103 247 c 128,-1,22
 1104 230 1104 230 1108 193 c 128,-1,23
 1112 156 1112 156 1116 140 c 128,-1,24
 1120 124 1120 124 1125 96 c 128,-1,25
 1130 68 1130 68 1136 46 c 128,-1,26
 1142 24 1142 24 1154 0 c 1,27,-1
 1084 0 l 1,28,29
 1048 108 1048 108 1028 392 c 0,30,31
 1004 680 1004 680 770 680 c 2,32,-1
 310 680 l 1,33,-1
 198 0 l 1,34,-1
 138 0 l 1,9,-1
EndSplineSet
EndChar

StartChar: S
Encoding: 83 83 54
Width: 1188
GlyphClass: 2
Flags: W
LayerCount: 2
Fore
SplineSet
50 226 m 1,0,-1
 114 254 l 1,1,2
 164 148 164 148 268 82 c 128,-1,3
 372 16 372 16 514 16 c 0,4,5
 694 16 694 16 827 109 c 128,-1,6
 960 202 960 202 988 366 c 0,7,8
 998 430 998 430 981 482 c 128,-1,9
 964 534 964 534 936 568 c 128,-1,10
 908 602 908 602 850 636 c 128,-1,11
 792 670 792 670 748 687 c 128,-1,12
 704 704 704 704 630 732 c 0,13,14
 546 760 546 760 499 779 c 128,-1,15
 452 798 452 798 387 836 c 128,-1,16
 322 874 322 874 291 912 c 128,-1,17
 260 950 260 950 242 1010 c 128,-1,18
 224 1070 224 1070 236 1146 c 0,19,20
 264 1314 264 1314 403 1412 c 128,-1,21
 542 1510 542 1510 756 1510 c 0,22,23
 904 1510 904 1510 1006 1441 c 128,-1,24
 1108 1372 1108 1372 1150 1274 c 1,25,-1
 1092 1252 l 1,26,27
 1048 1344 1048 1344 957 1399 c 128,-1,28
 866 1454 866 1454 740 1454 c 0,29,30
 556 1454 556 1454 438 1371 c 128,-1,31
 320 1288 320 1288 298 1146 c 0,32,33
 288 1084 288 1084 304 1032 c 128,-1,34
 320 980 320 980 350 945 c 128,-1,35
 380 910 380 910 439 877 c 128,-1,36
 498 844 498 844 543 826 c 128,-1,37
 588 808 588 808 664 782 c 0,38,39
 734 756 734 756 772 741 c 128,-1,40
 810 726 810 726 868 698 c 128,-1,41
 926 670 926 670 956 642 c 128,-1,42
 986 614 986 614 1016 573 c 128,-1,43
 1046 532 1046 532 1053 481 c 128,-1,44
 1060 430 1060 430 1050 368 c 0,45,46
 1018 176 1018 176 874 69 c 128,-1,47
 730 -38 730 -38 502 -38 c 0,48,49
 338 -38 338 -38 223 35 c 128,-1,50
 108 108 108 108 50 226 c 1,0,-1
EndSplineSet
EndChar

StartChar: T
Encoding: 84 84 55
Width: 1066
GlyphClass: 2
Flags: W
LayerCount: 2
Fore
SplineSet
180 1416 m 1,0,-1
 190 1470 l 1,1,-1
 1178 1470 l 1,2,-1
 1168 1416 l 1,3,-1
 706 1416 l 1,4,-1
 472 0 l 1,5,-1
 410 0 l 1,6,-1
 644 1416 l 1,7,-1
 180 1416 l 1,0,-1
EndSplineSet
EndChar

StartChar: U
Encoding: 85 85 56
Width: 1440
GlyphClass: 2
Flags: W
LayerCount: 2
Fore
SplineSet
222 502 m 2,0,-1
 382 1470 l 1,1,-1
 442 1470 l 1,2,-1
 282 512 l 2,3,4
 242 272 242 272 334 144 c 128,-1,5
 426 16 426 16 628 16 c 0,6,7
 832 16 832 16 967 145 c 128,-1,8
 1102 274 1102 274 1142 512 c 2,9,-1
 1300 1470 l 1,10,-1
 1360 1470 l 1,11,-1
 1200 502 l 2,12,13
 1158 244 1158 244 1009 103 c 128,-1,14
 860 -38 860 -38 618 -38 c 0,15,16
 386 -38 386 -38 282 101 c 128,-1,17
 178 240 178 240 222 502 c 2,0,-1
EndSplineSet
EndChar

StartChar: V
Encoding: 86 86 57
Width: 1094
GlyphClass: 2
Flags: W
LayerCount: 2
Fore
SplineSet
144 1470 m 1,0,-1
 214 1470 l 1,1,-1
 408 368 l 2,2,3
 410 350 410 350 429 239 c 128,-1,4
 448 128 448 128 458 70 c 1,5,-1
 464 70 l 1,6,7
 486 114 486 114 512 165 c 128,-1,8
 538 216 538 216 567 275 c 128,-1,9
 596 334 596 334 616 368 c 2,10,-1
 1182 1470 l 1,11,-1
 1254 1470 l 1,12,-1
 484 0 l 1,13,-1
 414 0 l 1,14,-1
 144 1470 l 1,0,-1
EndSplineSet
EndChar

StartChar: W
Encoding: 87 87 58
Width: 1644
GlyphClass: 2
Flags: W
LayerCount: 2
Fore
SplineSet
170 1470 m 1,0,-1
 240 1470 l 1,1,-1
 322 362 l 2,2,3
 332 212 332 212 338 70 c 1,4,-1
 342 70 l 1,5,6
 364 118 364 118 403 215 c 128,-1,7
 442 312 442 312 464 362 c 2,8,-1
 932 1470 l 1,9,-1
 1012 1470 l 1,10,-1
 1112 362 l 2,11,12
 1118 314 1118 314 1127 216 c 128,-1,13
 1136 118 1136 118 1140 70 c 1,14,-1
 1144 70 l 1,15,16
 1218 270 1218 270 1256 362 c 2,17,-1
 1704 1470 l 1,18,-1
 1774 1470 l 1,19,-1
 1170 0 l 1,20,-1
 1092 0 l 1,21,-1
 990 1088 l 2,22,23
 972 1244 972 1244 964 1400 c 1,24,-1
 960 1400 l 1,25,26
 914 1288 914 1288 830 1088 c 2,27,-1
 368 0 l 1,28,-1
 288 0 l 1,29,-1
 170 1470 l 1,0,-1
EndSplineSet
EndChar

StartChar: X
Encoding: 88 88 59
Width: 1022
GlyphClass: 2
Flags: W
LayerCount: 2
Fore
SplineSet
-102 0 m 1,0,-1
 498 756 l 1,1,-1
 166 1470 l 1,2,-1
 242 1470 l 1,3,-1
 454 1006 l 2,4,5
 488 936 488 936 546 802 c 1,6,-1
 552 802 l 1,7,8
 564 820 564 820 624 893 c 128,-1,9
 684 966 684 966 714 1006 c 2,10,-1
 1078 1470 l 1,11,-1
 1158 1470 l 1,12,-1
 586 756 l 1,13,-1
 940 0 l 1,14,-1
 866 0 l 1,15,-1
 634 500 l 2,16,17
 630 502 630 502 538 710 c 1,18,-1
 532 710 l 1,19,20
 514 686 514 686 457 612 c 128,-1,21
 400 538 400 538 368 500 c 2,22,-1
 -26 0 l 1,23,-1
 -102 0 l 1,0,-1
EndSplineSet
EndChar

StartChar: Y
Encoding: 89 89 60
Width: 1088
GlyphClass: 2
Flags: W
LayerCount: 2
Fore
SplineSet
146 1470 m 1,0,-1
 218 1470 l 1,1,-1
 474 878 l 2,2,3
 480 858 480 858 512 782 c 128,-1,4
 544 706 544 706 562 670 c 1,5,-1
 566 670 l 1,6,7
 598 712 598 712 722 878 c 2,8,-1
 1170 1470 l 1,9,-1
 1246 1470 l 1,10,-1
 586 608 l 1,11,-1
 484 0 l 1,12,-1
 424 0 l 1,13,-1
 524 608 l 1,14,-1
 146 1470 l 1,0,-1
EndSplineSet
EndChar

StartChar: Z
Encoding: 90 90 61
Width: 1208
GlyphClass: 2
Flags: W
LayerCount: 2
Fore
SplineSet
32 52 m 1,0,-1
 1142 1416 l 1,1,-1
 326 1416 l 1,2,-1
 334 1470 l 1,3,-1
 1222 1470 l 1,4,-1
 1214 1420 l 1,5,-1
 104 54 l 1,6,-1
 1010 54 l 1,7,-1
 1000 0 l 1,8,-1
 24 0 l 1,9,-1
 32 52 l 1,0,-1
EndSplineSet
EndChar

StartChar: bracketleft
Encoding: 91 91 62
Width: 884
GlyphClass: 2
Flags: W
LayerCount: 2
Fore
SplineSet
204 -274 m 1,0,-1
 528 1678 l 1,1,-1
 860 1678 l 1,2,-1
 850 1626 l 1,3,-1
 578 1626 l 1,4,-1
 272 -224 l 1,5,-1
 544 -224 l 1,6,-1
 536 -274 l 1,7,-1
 204 -274 l 1,0,-1
EndSplineSet
EndChar

StartChar: backslash
Encoding: 92 92 63
Width: 580
GlyphClass: 2
Flags: W
LayerCount: 2
Fore
SplineSet
156 1590 m 1,0,-1
 216 1590 l 1,1,-1
 480 -136 l 1,2,-1
 420 -136 l 1,3,-1
 156 1590 l 1,0,-1
EndSplineSet
EndChar

StartChar: bracketright
Encoding: 93 93 64
Width: 884
GlyphClass: 2
Flags: W
LayerCount: 2
Fore
SplineSet
78 -224 m 1,0,-1
 350 -224 l 1,1,-1
 656 1626 l 1,2,-1
 384 1626 l 1,3,-1
 394 1678 l 1,4,-1
 726 1678 l 1,5,-1
 404 -274 l 1,6,-1
 70 -274 l 1,7,-1
 78 -224 l 1,0,-1
EndSplineSet
EndChar

StartChar: asciicircum
Encoding: 94 94 65
Width: 948
GlyphClass: 2
Flags: W
LayerCount: 2
Fore
SplineSet
138 1010 m 1,0,-1
 622 1640 l 1,1,-1
 684 1640 l 1,2,-1
 956 1010 l 1,3,-1
 888 1010 l 1,4,-1
 644 1582 l 1,5,-1
 642 1582 l 1,6,-1
 554 1470 l 1,7,-1
 210 1010 l 1,8,-1
 138 1010 l 1,0,-1
EndSplineSet
EndChar

StartChar: underscore
Encoding: 95 95 66
Width: 818
GlyphClass: 2
Flags: W
LayerCount: 2
Fore
SplineSet
-96 -106 m 1,0,-1
 696 -106 l 1,1,-1
 688 -160 l 1,2,-1
 -104 -160 l 1,3,-1
 -96 -106 l 1,0,-1
EndSplineSet
EndChar

StartChar: grave
Encoding: 96 96 67
Width: 488
GlyphClass: 2
Flags: W
LayerCount: 2
Fore
SplineSet
396 1120 m 1,0,-1
 264 1672 l 1,1,-1
 376 1672 l 1,2,-1
 452 1120 l 1,3,-1
 396 1120 l 1,0,-1
EndSplineSet
EndChar

StartChar: a
Encoding: 97 97 68
Width: 1056
GlyphClass: 2
Flags: W
LayerCount: 2
Fore
SplineSet
100 240 m 0,0,1
 84 148 84 148 147 80 c 128,-1,2
 210 12 210 12 346 12 c 0,3,4
 508 12 508 12 645 122 c 128,-1,5
 782 232 782 232 810 406 c 2,6,-1
 844 614 l 1,7,8
 726 570 726 570 498 534 c 0,9,10
 306 504 306 504 213 431 c 128,-1,11
 120 358 120 358 100 240 c 0,0,1
42 234 m 0,12,13
 90 518 90 518 506 582 c 0,14,15
 762 624 762 624 854 666 c 1,16,-1
 862 720 l 2,17,18
 884 854 884 854 813 940 c 128,-1,19
 742 1026 742 1026 590 1026 c 0,20,21
 496 1026 496 1026 402 980 c 128,-1,22
 308 934 308 934 236 850 c 1,23,-1
 198 878 l 1,24,25
 266 962 266 962 375 1020 c 128,-1,26
 484 1078 484 1078 598 1078 c 0,27,28
 784 1078 784 1078 864 976 c 128,-1,29
 944 874 944 874 918 714 c 2,30,-1
 800 0 l 1,31,-1
 744 0 l 1,32,-1
 782 226 l 1,33,34
 728 120 728 120 603 41 c 128,-1,35
 478 -38 478 -38 334 -38 c 0,36,37
 178 -38 178 -38 100 38 c 128,-1,38
 22 114 22 114 42 234 c 0,12,13
EndSplineSet
Substitution2: "Single Substitution lookup 12 subtable" ordfeminine
EndChar

StartChar: b
Encoding: 98 98 69
Width: 1100
GlyphClass: 2
Flags: W
LayerCount: 2
Fore
SplineSet
96 0 m 1,0,-1
 350 1534 l 1,1,-1
 408 1534 l 1,2,-1
 280 768 l 1,3,4
 324 884 324 884 432 981 c 128,-1,5
 540 1078 540 1078 678 1078 c 0,6,7
 862 1078 862 1078 946 929 c 128,-1,8
 1030 780 1030 780 988 522 c 0,9,10
 942 244 942 244 800 103 c 128,-1,11
 658 -38 658 -38 490 -38 c 0,12,13
 366 -38 366 -38 290 45 c 128,-1,14
 214 128 214 128 194 250 c 1,15,-1
 154 0 l 1,16,-1
 96 0 l 1,0,-1
236 522 m 0,17,18
 196 282 196 282 275 147 c 128,-1,19
 354 12 354 12 496 12 c 0,20,21
 654 12 654 12 775 151 c 128,-1,22
 896 290 896 290 936 522 c 0,23,24
 974 752 974 752 898 889 c 128,-1,25
 822 1026 822 1026 666 1026 c 0,26,27
 526 1026 526 1026 400 891 c 128,-1,28
 274 756 274 756 236 522 c 0,17,18
EndSplineSet
EndChar

StartChar: c
Encoding: 99 99 70
Width: 944
GlyphClass: 2
Flags: W
LayerCount: 2
Fore
SplineSet
100 520 m 0,0,1
 140 760 140 760 278 919 c 128,-1,2
 416 1078 416 1078 614 1078 c 0,3,4
 730 1078 730 1078 807 1013 c 128,-1,5
 884 948 884 948 904 848 c 1,6,-1
 848 830 l 1,7,8
 828 916 828 916 763 971 c 128,-1,9
 698 1026 698 1026 604 1026 c 0,10,11
 440 1026 440 1026 316 884 c 128,-1,12
 192 742 192 742 156 520 c 0,13,14
 118 294 118 294 198 153 c 128,-1,15
 278 12 278 12 436 12 c 0,16,17
 534 12 534 12 629 74 c 128,-1,18
 724 136 724 136 778 220 c 1,19,-1
 824 200 l 1,20,21
 762 100 762 100 655 31 c 128,-1,22
 548 -38 548 -38 428 -38 c 0,23,24
 242 -38 242 -38 150 113 c 128,-1,25
 58 264 58 264 100 520 c 0,0,1
EndSplineSet
EndChar

StartChar: d
Encoding: 100 100 71
Width: 1100
GlyphClass: 2
Flags: W
LayerCount: 2
Fore
SplineSet
100 522 m 0,0,1
 144 782 144 782 280 930 c 128,-1,2
 416 1078 416 1078 596 1078 c 0,3,4
 726 1078 726 1078 803 987 c 128,-1,5
 880 896 880 896 890 770 c 1,6,-1
 1018 1534 l 1,7,-1
 1074 1534 l 1,8,-1
 820 0 l 1,9,-1
 766 0 l 1,10,-1
 806 252 l 1,11,12
 748 126 748 126 644 44 c 128,-1,13
 540 -38 540 -38 410 -38 c 0,14,15
 246 -38 246 -38 150 103 c 128,-1,16
 54 244 54 244 100 522 c 0,0,1
156 522 m 0,17,18
 118 294 118 294 190 153 c 128,-1,19
 262 12 262 12 424 12 c 0,20,21
 568 12 568 12 690 147 c 128,-1,22
 812 282 812 282 852 522 c 0,23,24
 890 756 890 756 809 891 c 128,-1,25
 728 1026 728 1026 590 1026 c 0,26,27
 434 1026 434 1026 314 889 c 128,-1,28
 194 752 194 752 156 522 c 0,17,18
EndSplineSet
EndChar

StartChar: e
Encoding: 101 101 72
Width: 1048
GlyphClass: 2
Flags: W
LayerCount: 2
Fore
SplineSet
100 526 m 0,0,1
 140 766 140 766 281 922 c 128,-1,2
 422 1078 422 1078 616 1078 c 256,3,4
 812 1078 812 1078 898 923 c 128,-1,5
 984 768 984 768 950 558 c 0,6,7
 948 548 948 548 944 531 c 128,-1,8
 940 514 940 514 940 504 c 1,9,-1
 154 504 l 1,10,11
 120 302 120 302 197 157 c 128,-1,12
 274 12 274 12 446 12 c 0,13,14
 556 12 556 12 657 74 c 128,-1,15
 758 136 758 136 820 222 c 1,16,-1
 864 200 l 1,17,18
 792 94 792 94 683 28 c 128,-1,19
 574 -38 574 -38 438 -38 c 0,20,21
 238 -38 238 -38 149 121 c 128,-1,22
 60 280 60 280 100 526 c 0,0,1
160 550 m 1,23,-1
 890 550 l 1,24,25
 922 744 922 744 847 885 c 128,-1,26
 772 1026 772 1026 608 1026 c 0,27,28
 490 1026 490 1026 393 952 c 128,-1,29
 296 878 296 878 240 774 c 128,-1,30
 184 670 184 670 160 550 c 1,23,-1
EndSplineSet
EndChar

StartChar: f
Encoding: 102 102 73
Width: 614
GlyphClass: 2
Flags: W
LayerCount: 2
Fore
SplineSet
120 988 m 1,0,-1
 130 1040 l 1,1,-1
 322 1040 l 1,2,-1
 358 1252 l 2,3,4
 382 1398 382 1398 463 1466 c 128,-1,5
 544 1534 544 1534 660 1534 c 2,6,-1
 746 1534 l 1,7,-1
 738 1482 l 1,8,-1
 656 1482 l 2,9,10
 454 1482 454 1482 414 1238 c 2,11,-1
 382 1040 l 1,12,-1
 636 1040 l 1,13,-1
 628 988 l 1,14,-1
 372 988 l 1,15,-1
 210 0 l 1,16,-1
 150 0 l 1,17,-1
 314 988 l 1,18,-1
 120 988 l 1,0,-1
EndSplineSet
EndChar

StartChar: g
Encoding: 103 103 74
Width: 1086
GlyphClass: 2
Flags: W
LayerCount: 2
Fore
SplineSet
158 538 m 0,0,1
 122 320 122 320 195 185 c 128,-1,2
 268 50 268 50 418 50 c 0,3,4
 576 50 576 50 689 181 c 128,-1,5
 802 312 802 312 840 542 c 0,6,7
 876 758 876 758 804 892 c 128,-1,8
 732 1026 732 1026 584 1026 c 0,9,10
 422 1026 422 1026 308 889 c 128,-1,11
 194 752 194 752 158 538 c 0,0,1
102 538 m 0,12,13
 142 778 142 778 274 928 c 128,-1,14
 406 1078 406 1078 588 1078 c 0,15,16
 722 1078 722 1078 792 992 c 128,-1,17
 862 906 862 906 882 794 c 1,18,-1
 922 1040 l 1,19,-1
 978 1040 l 1,20,-1
 818 76 l 2,21,22
 770 -216 770 -216 658 -356 c 128,-1,23
 546 -496 546 -496 336 -496 c 0,24,25
 234 -496 234 -496 155 -450 c 128,-1,26
 76 -404 76 -404 32 -328 c 1,27,-1
 84 -298 l 1,28,29
 180 -444 180 -444 346 -444 c 0,30,31
 526 -444 526 -444 622 -317 c 128,-1,32
 718 -190 718 -190 760 66 c 2,33,-1
 796 272 l 1,34,35
 660 -4 660 -4 412 -4 c 0,36,37
 232 -4 232 -4 147 148 c 128,-1,38
 62 300 62 300 102 538 c 0,12,13
EndSplineSet
EndChar

StartChar: h
Encoding: 104 104 75
Width: 1094
GlyphClass: 2
Flags: W
LayerCount: 2
Fore
SplineSet
96 0 m 1,0,-1
 350 1534 l 1,1,-1
 408 1534 l 1,2,-1
 290 820 l 1,3,-1
 292 820 l 1,4,5
 340 914 340 914 453 996 c 128,-1,6
 566 1078 566 1078 694 1078 c 0,7,8
 850 1078 850 1078 912 974 c 128,-1,9
 974 870 974 870 942 676 c 2,10,-1
 830 0 l 1,11,-1
 774 0 l 1,12,-1
 884 658 l 2,13,14
 944 1026 944 1026 674 1026 c 0,15,16
 538 1026 538 1026 412 910 c 128,-1,17
 286 794 286 794 260 640 c 2,18,-1
 154 0 l 1,19,-1
 96 0 l 1,0,-1
EndSplineSet
Substitution2: "'sups' Superscript lookup 5 subtable" uni02B0
Substitution2: "'aalt' Access All Alternates lookup 0 subtable" uni02B0
EndChar

StartChar: i
Encoding: 105 105 76
Width: 516
GlyphClass: 2
Flags: W
LayerCount: 2
Fore
SplineSet
320 1340 m 1,0,-1
 346 1492 l 1,1,-1
 478 1492 l 1,2,-1
 452 1340 l 1,3,-1
 320 1340 l 1,0,-1
138 0 m 1,4,-1
 310 1040 l 1,5,-1
 366 1040 l 1,6,-1
 194 0 l 1,7,-1
 138 0 l 1,4,-1
EndSplineSet
EndChar

StartChar: j
Encoding: 106 106 77
Width: 530
GlyphClass: 2
Flags: W
LayerCount: 2
Fore
SplineSet
336 1340 m 1,0,-1
 360 1492 l 1,1,-1
 490 1492 l 1,2,-1
 464 1340 l 1,3,-1
 336 1340 l 1,0,-1
-172 -424 m 1,4,-1
 -118 -424 l 2,5,6
 84 -424 84 -424 128 -146 c 2,7,-1
 326 1040 l 1,8,-1
 380 1040 l 1,9,-1
 182 -154 l 2,10,11
 156 -312 156 -312 80 -394 c 128,-1,12
 4 -476 4 -476 -116 -476 c 2,13,-1
 -180 -476 l 1,14,-1
 -172 -424 l 1,4,-1
EndSplineSet
Substitution2: "'sups' Superscript lookup 5 subtable" uni02B2
Substitution2: "'aalt' Access All Alternates lookup 0 subtable" uni02B2
EndChar

StartChar: k
Encoding: 107 107 78
Width: 928
GlyphClass: 2
Flags: W
LayerCount: 2
Fore
SplineSet
98 0 m 1,0,-1
 352 1534 l 1,1,-1
 410 1534 l 1,2,-1
 222 402 l 1,3,-1
 870 1040 l 1,4,-1
 948 1040 l 1,5,-1
 538 632 l 1,6,-1
 830 0 l 1,7,-1
 758 0 l 1,8,-1
 486 584 l 1,9,-1
 208 314 l 1,10,-1
 156 0 l 1,11,-1
 98 0 l 1,0,-1
EndSplineSet
EndChar

StartChar: l
Encoding: 108 108 79
Width: 446
GlyphClass: 2
Flags: W
LayerCount: 2
Fore
SplineSet
100 0 m 1,0,-1
 354 1534 l 1,1,-1
 412 1534 l 1,2,-1
 160 0 l 1,3,-1
 100 0 l 1,0,-1
EndSplineSet
Substitution2: "'sups' Superscript lookup 5 subtable" uni02E1
Substitution2: "'aalt' Access All Alternates lookup 0 subtable" uni02E1
EndChar

StartChar: m
Encoding: 109 109 80
Width: 1618
GlyphClass: 2
Flags: W
LayerCount: 2
Fore
SplineSet
88 0 m 1,0,-1
 260 1040 l 1,1,-1
 314 1040 l 1,2,-1
 282 840 l 1,3,-1
 286 840 l 1,4,5
 332 932 332 932 423 1005 c 128,-1,6
 514 1078 514 1078 642 1078 c 0,7,8
 772 1078 772 1078 820 994 c 128,-1,9
 868 910 868 910 866 794 c 1,10,11
 872 820 872 820 899 861 c 128,-1,12
 926 902 926 902 972 953 c 128,-1,13
 1018 1004 1018 1004 1097 1041 c 128,-1,14
 1176 1078 1176 1078 1262 1078 c 0,15,16
 1402 1078 1402 1078 1451 979 c 128,-1,17
 1500 880 1500 880 1466 676 c 2,18,-1
 1354 0 l 1,19,-1
 1298 0 l 1,20,-1
 1406 662 l 2,21,22
 1436 840 1436 840 1404 933 c 128,-1,23
 1372 1026 1372 1026 1238 1026 c 0,24,25
 1108 1026 1108 1026 996 915 c 128,-1,26
 884 804 884 804 856 626 c 2,27,-1
 752 0 l 1,28,-1
 694 0 l 1,29,-1
 802 660 l 2,30,31
 862 1026 862 1026 626 1026 c 0,32,33
 490 1026 490 1026 384 917 c 128,-1,34
 278 808 278 808 250 640 c 2,35,-1
 144 0 l 1,36,-1
 88 0 l 1,0,-1
EndSplineSet
EndChar

StartChar: n
Encoding: 110 110 81
Width: 1084
GlyphClass: 2
Flags: W
LayerCount: 2
Fore
SplineSet
88 0 m 1,0,-1
 260 1040 l 1,1,-1
 314 1040 l 1,2,-1
 276 804 l 1,3,-1
 280 804 l 1,4,5
 310 890 310 890 426 984 c 128,-1,6
 542 1078 542 1078 686 1078 c 0,7,8
 742 1078 742 1078 788 1062 c 128,-1,9
 834 1046 834 1046 877 1005 c 128,-1,10
 920 964 920 964 937 880 c 128,-1,11
 954 796 954 796 934 676 c 2,12,-1
 822 0 l 1,13,-1
 762 0 l 1,14,-1
 870 658 l 2,15,16
 930 1026 930 1026 668 1026 c 0,17,18
 532 1026 532 1026 404 910 c 128,-1,19
 276 794 276 794 250 640 c 2,20,-1
 144 0 l 1,21,-1
 88 0 l 1,0,-1
EndSplineSet
Substitution2: "'sups' Superscript lookup 5 subtable" uni207F
Substitution2: "'aalt' Access All Alternates lookup 0 subtable" uni207F
EndChar

StartChar: o
Encoding: 111 111 82
Width: 1064
GlyphClass: 2
Flags: W
LayerCount: 2
Fore
SplineSet
156 520 m 0,0,1
 120 300 120 300 196 156 c 128,-1,2
 272 12 272 12 440 12 c 0,3,4
 606 12 606 12 731 157 c 128,-1,5
 856 302 856 302 894 520 c 0,6,7
 930 742 930 742 850 884 c 128,-1,8
 770 1026 770 1026 608 1026 c 256,9,10
 446 1026 446 1026 320 885 c 128,-1,11
 194 744 194 744 156 520 c 0,0,1
100 520 m 0,12,13
 140 764 140 764 280 921 c 128,-1,14
 420 1078 420 1078 616 1078 c 0,15,16
 810 1078 810 1078 901 921 c 128,-1,17
 992 764 992 764 952 520 c 0,18,19
 914 286 914 286 774 124 c 128,-1,20
 634 -38 634 -38 432 -38 c 0,21,22
 228 -38 228 -38 145 124 c 128,-1,23
 62 286 62 286 100 520 c 0,12,13
EndSplineSet
Substitution2: "Single Substitution lookup 12 subtable" ordmasculine
EndChar

StartChar: p
Encoding: 112 112 83
Width: 1100
GlyphClass: 2
Flags: W
LayerCount: 2
Fore
SplineSet
238 524 m 0,0,1
 200 296 200 296 273 154 c 128,-1,2
 346 12 346 12 498 12 c 256,3,4
 650 12 650 12 773 149 c 128,-1,5
 896 286 896 286 936 522 c 0,6,7
 972 742 972 742 902 884 c 128,-1,8
 832 1026 832 1026 666 1026 c 0,9,10
 520 1026 520 1026 397 884 c 128,-1,11
 274 742 274 742 238 524 c 0,0,1
14 -488 m 1,12,-1
 268 1040 l 1,13,-1
 326 1040 l 1,14,-1
 282 776 l 1,15,16
 346 914 346 914 452 996 c 128,-1,17
 558 1078 558 1078 678 1078 c 0,18,19
 862 1078 862 1078 946 927 c 128,-1,20
 1030 776 1030 776 988 522 c 0,21,22
 944 256 944 256 806 109 c 128,-1,23
 668 -38 668 -38 490 -38 c 0,24,25
 364 -38 364 -38 290 44 c 128,-1,26
 216 126 216 126 196 258 c 1,27,-1
 72 -488 l 1,28,-1
 14 -488 l 1,12,-1
EndSplineSet
EndChar

StartChar: q
Encoding: 113 113 84
Width: 1100
GlyphClass: 2
Flags: W
LayerCount: 2
Fore
SplineSet
156 522 m 0,0,1
 118 290 118 290 193 151 c 128,-1,2
 268 12 268 12 422 12 c 0,3,4
 578 12 578 12 695 156 c 128,-1,5
 812 300 812 300 850 524 c 0,6,7
 886 744 886 744 811 885 c 128,-1,8
 736 1026 736 1026 590 1026 c 0,9,10
 424 1026 424 1026 308 883 c 128,-1,11
 192 740 192 740 156 522 c 0,0,1
100 522 m 0,12,13
 142 776 142 776 277 927 c 128,-1,14
 412 1078 412 1078 594 1078 c 0,15,16
 712 1078 712 1078 793 999 c 128,-1,17
 874 920 874 920 894 780 c 1,18,-1
 938 1040 l 1,19,-1
 992 1040 l 1,20,-1
 738 -488 l 1,21,-1
 682 -488 l 1,22,-1
 806 260 l 1,23,24
 740 128 740 128 639 45 c 128,-1,25
 538 -38 538 -38 412 -38 c 0,26,27
 236 -38 236 -38 146 109 c 128,-1,28
 56 256 56 256 100 522 c 0,12,13
EndSplineSet
EndChar

StartChar: r
Encoding: 114 114 85
Width: 696
GlyphClass: 2
Flags: W
LayerCount: 2
Fore
SplineSet
88 0 m 1,0,-1
 260 1040 l 1,1,-1
 314 1040 l 1,2,-1
 282 844 l 1,3,4
 320 930 320 930 409 1004 c 128,-1,5
 498 1078 498 1078 628 1078 c 0,6,7
 710 1078 710 1078 776 1044 c 1,8,-1
 766 988 l 1,9,10
 698 1022 698 1022 620 1022 c 0,11,12
 482 1022 482 1022 379 911 c 128,-1,13
 276 800 276 800 250 632 c 2,14,-1
 144 0 l 1,15,-1
 88 0 l 1,0,-1
EndSplineSet
Substitution2: "'sups' Superscript lookup 5 subtable" uni02B3
Substitution2: "'aalt' Access All Alternates lookup 0 subtable" uni02B3
EndChar

StartChar: s
Encoding: 115 115 86
Width: 916
GlyphClass: 2
Flags: W
LayerCount: 2
Fore
SplineSet
26 170 m 1,0,-1
 76 198 l 1,1,2
 114 112 114 112 190 62 c 128,-1,3
 266 12 266 12 370 12 c 0,4,5
 506 12 506 12 601 76 c 128,-1,6
 696 140 696 140 712 240 c 0,7,8
 720 286 720 286 706 325 c 128,-1,9
 692 364 692 364 672 386 c 128,-1,10
 652 408 652 408 597 434 c 128,-1,11
 542 460 542 460 516 469 c 128,-1,12
 490 478 490 478 420 504 c 0,13,14
 352 526 352 526 309 545 c 128,-1,15
 266 564 266 564 221 598 c 128,-1,16
 176 632 176 632 159 684 c 128,-1,17
 142 736 142 736 152 802 c 0,18,19
 174 932 174 932 286 1005 c 128,-1,20
 398 1078 398 1078 548 1078 c 0,21,22
 662 1078 662 1078 741 1019 c 128,-1,23
 820 960 820 960 850 876 c 1,24,-1
 802 848 l 1,25,26
 772 928 772 928 704 977 c 128,-1,27
 636 1026 636 1026 538 1026 c 0,28,29
 408 1026 408 1026 317 963 c 128,-1,30
 226 900 226 900 210 802 c 0,31,32
 192 698 192 698 259 641 c 128,-1,33
 326 584 326 584 450 546 c 0,34,35
 508 528 508 528 548 515 c 128,-1,36
 588 502 588 502 638 473 c 128,-1,37
 688 444 688 444 718 415 c 128,-1,38
 748 386 748 386 764 340 c 128,-1,39
 780 294 780 294 770 240 c 0,40,41
 750 122 750 122 644 42 c 128,-1,42
 538 -38 538 -38 362 -38 c 0,43,44
 112 -38 112 -38 26 170 c 1,0,-1
EndSplineSet
Substitution2: "'hist' Historical Forms lookup 11 subtable" longs
Substitution2: "'sups' Superscript lookup 5 subtable" uni02E2
AlternateSubs2: "'aalt' Access All Alternates lookup 1 subtable" uni02E2 longs
EndChar

StartChar: t
Encoding: 116 116 87
Width: 668
GlyphClass: 2
Flags: W
LayerCount: 2
Fore
SplineSet
124 988 m 1,0,-1
 132 1040 l 1,1,-1
 328 1040 l 1,2,-1
 388 1402 l 1,3,-1
 448 1402 l 1,4,-1
 388 1040 l 1,5,-1
 658 1040 l 1,6,-1
 650 988 l 1,7,-1
 380 988 l 1,8,-1
 262 274 l 2,9,10
 242 156 242 156 276 104 c 128,-1,11
 310 52 310 52 404 52 c 0,12,13
 408 52 408 52 412 52 c 2,14,-1
 496 54 l 1,15,-1
 486 0 l 1,16,-1
 396 0 l 2,17,18
 388 0 388 0 382 0 c 0,19,20
 276 0 276 0 227 63 c 128,-1,21
 178 126 178 126 200 262 c 2,22,-1
 320 988 l 1,23,-1
 124 988 l 1,0,-1
EndSplineSet
EndChar

StartChar: u
Encoding: 117 117 88
Width: 1078
GlyphClass: 2
Flags: W
LayerCount: 2
Fore
SplineSet
138 354 m 2,0,-1
 252 1040 l 1,1,-1
 308 1040 l 1,2,-1
 198 382 l 2,3,4
 172 222 172 222 216 117 c 128,-1,5
 260 12 260 12 408 12 c 0,6,7
 576 12 576 12 684 138 c 128,-1,8
 792 264 792 264 822 438 c 2,9,-1
 922 1040 l 1,10,-1
 976 1040 l 1,11,-1
 804 0 l 1,12,-1
 750 0 l 1,13,-1
 786 226 l 1,14,15
 754 130 754 130 649 46 c 128,-1,16
 544 -38 544 -38 388 -38 c 256,17,18
 232 -38 232 -38 170 70 c 128,-1,19
 108 178 108 178 138 354 c 2,0,-1
EndSplineSet
EndChar

StartChar: v
Encoding: 118 118 89
Width: 900
GlyphClass: 2
Flags: W
LayerCount: 2
Fore
SplineSet
110 1040 m 1,0,-1
 172 1040 l 1,1,-1
 324 280 l 2,2,3
 334 234 334 234 349 155 c 128,-1,4
 364 76 364 76 368 52 c 1,5,-1
 372 52 l 1,6,7
 398 100 398 100 490 280 c 2,8,-1
 886 1040 l 1,9,-1
 954 1040 l 1,10,-1
 396 0 l 1,11,-1
 320 0 l 1,12,-1
 110 1040 l 1,0,-1
EndSplineSet
EndChar

StartChar: w
Encoding: 119 119 90
Width: 1314
GlyphClass: 2
Flags: W
LayerCount: 2
Fore
SplineSet
104 1040 m 1,0,-1
 170 1040 l 1,1,-1
 250 260 l 2,2,3
 254 224 254 224 266 54 c 1,4,-1
 272 54 l 1,5,6
 286 92 286 92 316 162 c 128,-1,7
 346 232 346 232 358 260 c 2,8,-1
 698 1040 l 1,9,-1
 774 1040 l 1,10,-1
 858 260 l 2,11,12
 878 72 878 72 880 56 c 1,13,-1
 882 56 l 1,14,15
 894 84 894 84 924 152 c 128,-1,16
 954 220 954 220 968 260 c 2,17,-1
 1306 1040 l 1,18,-1
 1372 1040 l 1,19,-1
 910 0 l 1,20,-1
 834 0 l 1,21,-1
 748 754 l 2,22,23
 740 830 740 830 728 976 c 1,24,-1
 722 976 l 1,25,26
 652 802 652 802 630 754 c 2,27,-1
 298 0 l 1,28,-1
 218 0 l 1,29,-1
 104 1040 l 1,0,-1
EndSplineSet
Substitution2: "'sups' Superscript lookup 5 subtable" uni02B7
Substitution2: "'aalt' Access All Alternates lookup 0 subtable" uni02B7
EndChar

StartChar: x
Encoding: 120 120 91
Width: 812
GlyphClass: 2
Flags: W
LayerCount: 2
Fore
SplineSet
-84 0 m 1,0,-1
 364 542 l 1,1,-1
 112 1040 l 1,2,-1
 180 1040 l 1,3,-1
 342 722 l 2,4,5
 378 650 378 650 410 588 c 1,6,-1
 412 588 l 1,7,8
 426 608 426 608 465 652 c 128,-1,9
 504 696 504 696 520 722 c 2,10,-1
 784 1040 l 1,11,-1
 858 1040 l 1,12,-1
 440 540 l 1,13,-1
 710 0 l 1,14,-1
 638 0 l 1,15,-1
 460 364 l 2,16,17
 458 370 458 370 432 421 c 128,-1,18
 406 472 406 472 396 496 c 1,19,-1
 394 496 l 1,20,21
 378 476 378 476 341 432 c 128,-1,22
 304 388 304 388 284 364 c 2,23,-1
 -10 0 l 1,24,-1
 -84 0 l 1,0,-1
EndSplineSet
Substitution2: "'sups' Superscript lookup 5 subtable" uni02E3
Substitution2: "'aalt' Access All Alternates lookup 0 subtable" uni02E3
EndChar

StartChar: y
Encoding: 121 121 92
Width: 882
GlyphClass: 2
Flags: W
LayerCount: 2
Fore
SplineSet
104 1040 m 1,0,-1
 170 1040 l 1,1,-1
 306 280 l 2,2,3
 314 238 314 238 329 152 c 128,-1,4
 344 66 344 66 352 22 c 1,5,-1
 356 22 l 1,6,7
 456 214 456 214 490 286 c 2,8,-1
 868 1040 l 1,9,-1
 934 1040 l 1,10,-1
 290 -216 l 2,11,12
 214 -364 214 -364 143 -426 c 128,-1,13
 72 -488 72 -488 -8 -488 c 2,14,-1
 -52 -488 l 1,15,-1
 -44 -434 l 1,16,-1
 -8 -434 l 2,17,18
 126 -434 126 -434 240 -198 c 2,19,-1
 310 -56 l 1,20,-1
 104 1040 l 1,0,-1
EndSplineSet
Substitution2: "'sups' Superscript lookup 5 subtable" uni02B8
Substitution2: "'aalt' Access All Alternates lookup 0 subtable" uni02B8
EndChar

StartChar: z
Encoding: 122 122 93
Width: 892
GlyphClass: 2
Flags: W
LayerCount: 2
Fore
SplineSet
-12 0 m 1,0,-1
 -4 46 l 1,1,-1
 794 988 l 1,2,-1
 200 988 l 1,3,-1
 210 1040 l 1,4,-1
 870 1040 l 1,5,-1
 864 994 l 1,6,-1
 66 52 l 1,7,-1
 730 52 l 1,8,-1
 722 0 l 1,9,-1
 -12 0 l 1,0,-1
EndSplineSet
EndChar

StartChar: braceleft
Encoding: 123 123 94
Width: 900
GlyphClass: 2
Flags: W
LayerCount: 2
Fore
SplineSet
182 664 m 1,0,-1
 190 714 l 1,1,-1
 236 714 l 2,2,3
 422 714 422 714 478 1042 c 2,4,-1
 544 1450 l 2,5,6
 562 1558 562 1558 628 1618 c 128,-1,7
 694 1678 694 1678 770 1678 c 2,8,-1
 908 1678 l 1,9,-1
 900 1626 l 1,10,-1
 776 1626 l 2,11,12
 718 1626 718 1626 668 1576 c 128,-1,13
 618 1526 618 1526 602 1432 c 2,14,-1
 536 1028 l 2,15,16
 494 770 494 770 330 686 c 1,17,18
 394 660 394 660 421 576 c 128,-1,19
 448 492 448 492 426 364 c 2,20,-1
 364 -10 l 2,21,22
 346 -116 346 -116 378 -169 c 128,-1,23
 410 -222 410 -222 474 -222 c 2,24,-1
 594 -222 l 1,25,-1
 586 -272 l 1,26,-1
 450 -272 l 2,27,28
 376 -272 376 -272 327 -215 c 128,-1,29
 278 -158 278 -158 298 -44 c 2,30,-1
 360 338 l 2,31,32
 386 500 386 500 351 582 c 128,-1,33
 316 664 316 664 228 664 c 2,34,-1
 182 664 l 1,0,-1
EndSplineSet
EndChar

StartChar: bar
Encoding: 124 124 95
Width: 432
GlyphClass: 2
Flags: W
LayerCount: 2
Fore
SplineSet
38 -336 m 1,0,-1
 380 1734 l 1,1,-1
 442 1734 l 1,2,-1
 98 -336 l 1,3,-1
 38 -336 l 1,0,-1
EndSplineSet
EndChar

StartChar: braceright
Encoding: 125 125 96
Width: 900
GlyphClass: 2
Flags: W
LayerCount: 2
Fore
SplineSet
46 -222 m 1,0,-1
 166 -222 l 2,1,2
 230 -222 230 -222 280 -169 c 128,-1,3
 330 -116 330 -116 348 -10 c 2,4,-1
 412 374 l 2,5,6
 432 494 432 494 486 578 c 128,-1,7
 540 662 540 662 610 686 c 1,8,9
 476 768 476 768 518 1018 c 2,10,-1
 586 1432 l 2,11,12
 602 1526 602 1526 569 1576 c 128,-1,13
 536 1626 536 1626 476 1626 c 2,14,-1
 352 1626 l 1,15,-1
 360 1678 l 1,16,-1
 498 1678 l 2,17,18
 576 1678 576 1678 621 1619 c 128,-1,19
 666 1560 666 1560 648 1450 c 2,20,-1
 580 1042 l 2,21,22
 554 884 554 884 587 799 c 128,-1,23
 620 714 620 714 712 714 c 2,24,-1
 760 714 l 1,25,-1
 752 664 l 1,26,-1
 704 664 l 2,27,28
 614 664 614 664 552 578 c 128,-1,29
 490 492 490 492 466 352 c 2,30,-1
 400 -44 l 2,31,32
 382 -158 382 -158 316 -215 c 128,-1,33
 250 -272 250 -272 170 -272 c 2,34,-1
 38 -272 l 1,35,-1
 46 -222 l 1,0,-1
EndSplineSet
EndChar

StartChar: asciitilde
Encoding: 126 126 97
Width: 1422
GlyphClass: 2
Flags: W
LayerCount: 2
Fore
SplineSet
158 634 m 1,0,1
 318 862 318 862 518 862 c 0,2,3
 588 862 588 862 639 834 c 128,-1,4
 690 806 690 806 722 767 c 128,-1,5
 754 728 754 728 785 688 c 128,-1,6
 816 648 816 648 860 620 c 128,-1,7
 904 592 904 592 962 592 c 0,8,9
 1012 592 1012 592 1059 611 c 128,-1,10
 1106 630 1106 630 1148 670 c 128,-1,11
 1190 710 1190 710 1213 734 c 128,-1,12
 1236 758 1236 758 1272 808 c 1,13,-1
 1314 782 l 1,14,15
 1236 676 1236 676 1150 608 c 128,-1,16
 1064 540 1064 540 954 540 c 0,17,18
 886 540 886 540 834 568 c 128,-1,19
 782 596 782 596 751 636 c 128,-1,20
 720 676 720 676 689 715 c 128,-1,21
 658 754 658 754 613 782 c 128,-1,22
 568 810 568 810 506 810 c 0,23,24
 352 810 352 810 202 608 c 1,25,-1
 158 634 l 1,0,1
EndSplineSet
EndChar

StartChar: exclamdown
Encoding: 161 161 99
Width: 588
GlyphClass: 2
Flags: W
LayerCount: 2
Fore
SplineSet
88 -438 m 1,0,-1
 278 612 l 1,1,-1
 330 612 l 1,2,-1
 168 -438 l 1,3,-1
 88 -438 l 1,0,-1
260 880 m 1,4,-1
 288 1048 l 1,5,-1
 458 1048 l 1,6,-1
 430 880 l 1,7,-1
 260 880 l 1,4,-1
EndSplineSet
EndChar

StartChar: cent
Encoding: 162 162 100
Width: 968
GlyphClass: 2
Flags: W
LayerCount: 2
Fore
SplineSet
100 520 m 0,0,1
 138 754 138 754 275 912 c 128,-1,2
 412 1070 412 1070 608 1074 c 1,3,-1
 636 1236 l 1,4,-1
 698 1236 l 1,5,-1
 672 1072 l 1,6,7
 776 1060 776 1060 843 999 c 128,-1,8
 910 938 910 938 928 848 c 1,9,-1
 872 830 l 1,10,11
 850 914 850 914 782 970 c 128,-1,12
 714 1026 714 1026 618 1026 c 0,13,14
 448 1026 448 1026 322 884 c 128,-1,15
 196 742 196 742 158 520 c 0,16,17
 120 294 120 294 202 153 c 128,-1,18
 284 12 284 12 450 12 c 0,19,20
 552 12 552 12 648 74 c 128,-1,21
 744 136 744 136 800 220 c 1,22,-1
 848 200 l 1,23,24
 786 108 786 108 693 43 c 128,-1,25
 600 -22 600 -22 488 -36 c 1,26,-1
 460 -200 l 1,27,-1
 398 -200 l 1,28,-1
 424 -38 l 1,29,30
 240 -34 240 -34 149 117 c 128,-1,31
 58 268 58 268 100 520 c 0,0,1
EndSplineSet
EndChar

StartChar: sterling
Encoding: 163 163 101
Width: 1080
GlyphClass: 2
Flags: W
LayerCount: 2
Fore
SplineSet
92 702 m 1,0,-1
 100 756 l 1,1,-1
 332 756 l 1,2,-1
 396 1140 l 2,3,4
 426 1322 426 1322 536 1416 c 128,-1,5
 646 1510 646 1510 810 1510 c 0,6,7
 922 1510 922 1510 996 1455 c 128,-1,8
 1070 1400 1070 1400 1098 1320 c 1,9,-1
 1050 1296 l 1,10,11
 984 1456 984 1456 804 1456 c 0,12,13
 664 1456 664 1456 572 1376 c 128,-1,14
 480 1296 480 1296 454 1136 c 2,15,-1
 390 756 l 1,16,-1
 868 756 l 1,17,-1
 860 702 l 1,18,-1
 382 702 l 1,19,-1
 332 402 l 2,20,21
 292 160 292 160 124 44 c 1,22,23
 288 82 288 82 382 82 c 0,24,25
 450 82 450 82 539 49 c 128,-1,26
 628 16 628 16 688 16 c 0,27,28
 840 16 840 16 956 76 c 1,29,-1
 968 24 l 1,30,31
 840 -38 840 -38 676 -38 c 0,32,33
 620 -38 620 -38 524 -5 c 128,-1,34
 428 28 428 28 364 28 c 256,35,36
 300 28 300 28 209 14 c 128,-1,37
 118 0 118 0 62 -14 c 2,38,-1
 4 -30 l 1,39,-1
 -10 22 l 1,40,41
 106 64 106 64 179 172 c 128,-1,42
 252 280 252 280 272 402 c 2,43,-1
 322 702 l 1,44,-1
 92 702 l 1,0,-1
EndSplineSet
EndChar

StartChar: currency
Encoding: 164 164 102
Width: 1212
GlyphClass: 2
Flags: W
LayerCount: 2
Fore
SplineSet
24 266 m 1,0,-1
 274 474 l 1,1,2
 196 578 196 578 222 734 c 256,3,4
 248 890 248 890 360 996 c 1,5,-1
 178 1198 l 1,6,-1
 226 1240 l 1,7,-1
 406 1040 l 1,8,9
 540 1140 540 1140 704 1140 c 256,10,11
 868 1140 868 1140 970 1036 c 1,12,-1
 1214 1238 l 1,13,-1
 1246 1196 l 1,14,-1
 1000 996 l 1,15,16
 1080 884 1080 884 1054 734 c 0,17,18
 1030 588 1030 588 914 474 c 1,19,-1
 1092 266 l 1,20,-1
 1050 228 l 1,21,-1
 870 430 l 1,22,23
 744 328 744 328 570 328 c 0,24,25
 404 328 404 328 302 430 c 1,26,-1
 58 230 l 1,27,-1
 24 266 l 1,0,-1
280 734 m 0,28,29
 256 588 256 588 340 485 c 128,-1,30
 424 382 424 382 578 382 c 0,31,32
 730 382 730 382 851 485 c 128,-1,33
 972 588 972 588 996 734 c 0,34,35
 1020 882 1020 882 934 985 c 128,-1,36
 848 1088 848 1088 696 1088 c 0,37,38
 546 1088 546 1088 425 985 c 128,-1,39
 304 882 304 882 280 734 c 0,28,29
EndSplineSet
EndChar

StartChar: yen
Encoding: 165 165 103
Width: 1088
GlyphClass: 2
Flags: W
LayerCount: 2
Fore
SplineSet
146 1470 m 1,0,-1
 218 1470 l 1,1,-1
 474 912 l 2,2,3
 484 888 484 888 520 813 c 128,-1,4
 556 738 556 738 568 710 c 1,5,-1
 572 710 l 1,6,7
 594 738 594 738 649 808 c 128,-1,8
 704 878 704 878 726 906 c 2,9,-1
 1170 1470 l 1,10,-1
 1246 1470 l 1,11,-1
 640 706 l 1,12,-1
 998 706 l 1,13,-1
 990 658 l 1,14,-1
 592 658 l 1,15,-1
 556 442 l 1,16,-1
 954 442 l 1,17,-1
 946 392 l 1,18,-1
 548 392 l 1,19,-1
 482 0 l 1,20,-1
 424 0 l 1,21,-1
 488 392 l 1,22,-1
 82 392 l 1,23,-1
 92 442 l 1,24,-1
 496 442 l 1,25,-1
 532 658 l 1,26,-1
 126 658 l 1,27,-1
 134 706 l 1,28,-1
 500 706 l 1,29,-1
 146 1470 l 1,0,-1
EndSplineSet
EndChar

StartChar: brokenbar
Encoding: 166 166 104
Width: 432
GlyphClass: 2
Flags: W
LayerCount: 2
Fore
SplineSet
250 942 m 1,0,-1
 380 1734 l 1,1,-1
 442 1734 l 1,2,-1
 310 942 l 1,3,-1
 250 942 l 1,0,-1
38 -336 m 1,4,-1
 168 450 l 1,5,-1
 228 450 l 1,6,-1
 98 -336 l 1,7,-1
 38 -336 l 1,4,-1
EndSplineSet
EndChar

StartChar: section
Encoding: 167 167 105
Width: 1106
GlyphClass: 2
Flags: W
LayerCount: 2
Fore
SplineSet
254 722 m 0,0,1
 240 634 240 634 280 586 c 128,-1,2
 320 538 320 538 440 478 c 2,3,-1
 688 356 l 1,4,5
 878 488 878 488 902 632 c 0,6,7
 914 706 914 706 866 756 c 128,-1,8
 818 806 818 806 688 882 c 2,9,-1
 508 990 l 1,10,11
 422 938 422 938 386 913 c 128,-1,12
 350 888 350 888 307 835 c 128,-1,13
 264 782 264 782 254 722 c 0,0,1
68 64 m 1,14,-1
 120 98 l 1,15,16
 152 20 152 20 230 -22 c 128,-1,17
 308 -64 308 -64 412 -64 c 0,18,19
 554 -64 554 -64 638 -11 c 128,-1,20
 722 42 722 42 738 134 c 0,21,22
 750 212 750 212 713 258 c 128,-1,23
 676 304 676 304 574 352 c 2,24,-1
 376 448 l 2,25,26
 270 500 270 500 223 560 c 128,-1,27
 176 620 176 620 190 714 c 0,28,29
 200 772 200 772 227 818 c 128,-1,30
 254 864 254 864 299 904 c 128,-1,31
 344 944 344 944 377 965 c 128,-1,32
 410 986 410 986 466 1018 c 1,33,34
 326 1132 326 1132 348 1256 c 0,35,36
 368 1376 368 1376 468 1443 c 128,-1,37
 568 1510 568 1510 742 1510 c 0,38,39
 860 1510 860 1510 949 1460 c 128,-1,40
 1038 1410 1038 1410 1076 1318 c 1,41,-1
 1028 1296 l 1,42,43
 938 1456 938 1456 734 1456 c 0,44,45
 582 1456 582 1456 503 1401 c 128,-1,46
 424 1346 424 1346 410 1260 c 0,47,48
 404 1224 404 1224 410 1192 c 128,-1,49
 416 1160 416 1160 444 1128 c 128,-1,50
 472 1096 472 1096 487 1077 c 128,-1,51
 502 1058 502 1058 556 1025 c 128,-1,52
 610 992 610 992 625 984 c 128,-1,53
 640 976 640 976 704 940 c 2,54,-1
 726 928 l 2,55,56
 868 848 868 848 923 785 c 128,-1,57
 978 722 978 722 964 632 c 0,58,59
 936 462 936 462 734 322 c 1,60,61
 818 254 818 254 798 134 c 0,62,63
 780 24 780 24 681 -46 c 128,-1,64
 582 -116 582 -116 404 -116 c 0,65,66
 160 -116 160 -116 68 64 c 1,14,-1
EndSplineSet
EndChar

StartChar: dieresis
Encoding: 168 168 106
Width: 840
GlyphClass: 2
Flags: W
LayerCount: 2
Fore
SplineSet
322 1334 m 1,0,-1
 344 1470 l 1,1,-1
 484 1470 l 1,2,-1
 460 1334 l 1,3,-1
 322 1334 l 1,0,-1
640 1334 m 1,4,-1
 662 1470 l 1,5,-1
 796 1470 l 1,6,-1
 774 1334 l 1,7,-1
 640 1334 l 1,4,-1
EndSplineSet
EndChar

StartChar: copyright
Encoding: 169 169 107
Width: 1762
GlyphClass: 2
Flags: W
LayerCount: 2
Fore
SplineSet
568 744 m 0,0,1
 602 952 602 952 723 1089 c 128,-1,2
 844 1226 844 1226 1022 1226 c 0,3,4
 1106 1226 1106 1226 1177 1179 c 128,-1,5
 1248 1132 1248 1132 1284 1022 c 1,6,-1
 1224 1002 l 1,7,8
 1204 1078 1204 1078 1147 1124 c 128,-1,9
 1090 1170 1090 1170 1012 1170 c 0,10,11
 868 1170 868 1170 764 1052 c 128,-1,12
 660 934 660 934 628 744 c 0,13,14
 596 550 596 550 663 433 c 128,-1,15
 730 316 730 316 870 316 c 0,16,17
 960 316 960 316 1037 368 c 128,-1,18
 1114 420 1114 420 1164 496 c 1,19,-1
 1216 474 l 1,20,21
 1156 384 1156 384 1063 323 c 128,-1,22
 970 262 970 262 862 262 c 0,23,24
 698 262 698 262 615 393 c 128,-1,25
 532 524 532 524 568 744 c 0,0,1
144 750 m 0,26,27
 198 1082 198 1082 454 1304 c 128,-1,28
 710 1526 710 1526 1040 1526 c 0,29,30
 1372 1526 1372 1526 1554 1306 c 128,-1,31
 1736 1086 1736 1086 1680 750 c 0,32,33
 1626 424 1626 424 1371 198 c 128,-1,34
 1116 -28 1116 -28 782 -28 c 0,35,36
 454 -28 454 -28 272 196 c 128,-1,37
 90 420 90 420 144 750 c 0,26,27
196 750 m 0,38,39
 146 452 146 452 311 236 c 128,-1,40
 476 20 476 20 790 20 c 0,41,42
 1106 20 1106 20 1343 236 c 128,-1,43
 1580 452 1580 452 1628 750 c 0,44,45
 1678 1052 1678 1052 1511 1265 c 128,-1,46
 1344 1478 1344 1478 1032 1478 c 0,47,48
 726 1478 726 1478 486 1268 c 128,-1,49
 246 1058 246 1058 196 750 c 0,38,39
EndSplineSet
EndChar

StartChar: ordfeminine
Encoding: 170 170 108
Width: 754
GlyphClass: 2
Flags: W
LayerCount: 2
Fore
SplineSet
86 696 m 1,0,-1
 96 746 l 1,1,-1
 716 746 l 1,2,-1
 708 696 l 1,3,-1
 86 696 l 1,0,-1
206 1100 m 0,4,5
 196 1042 196 1042 240 997 c 128,-1,6
 284 952 284 952 376 952 c 0,7,8
 486 952 486 952 580 1026 c 128,-1,9
 674 1100 674 1100 692 1212 c 2,10,-1
 714 1346 l 1,11,12
 664 1326 664 1326 566 1310 c 128,-1,13
 468 1294 468 1294 402 1280 c 128,-1,14
 336 1266 336 1266 277 1221 c 128,-1,15
 218 1176 218 1176 206 1100 c 0,4,5
154 1098 m 0,16,17
 170 1192 170 1192 241 1249 c 128,-1,18
 312 1306 312 1306 389 1321 c 128,-1,19
 466 1336 466 1336 570 1355 c 128,-1,20
 674 1374 674 1374 722 1396 c 1,21,-1
 726 1426 l 2,22,23
 740 1516 740 1516 693 1572 c 128,-1,24
 646 1628 646 1628 542 1628 c 0,25,26
 458 1628 458 1628 389 1585 c 128,-1,27
 320 1542 320 1542 296 1508 c 1,28,-1
 258 1532 l 1,29,30
 310 1594 310 1594 390 1635 c 128,-1,31
 470 1676 470 1676 550 1676 c 0,32,33
 686 1676 686 1676 743 1605 c 128,-1,34
 800 1534 800 1534 782 1422 c 2,35,-1
 700 930 l 1,36,-1
 648 930 l 1,37,-1
 670 1060 l 1,38,39
 622 994 622 994 541 949 c 128,-1,40
 460 904 460 904 366 904 c 0,41,42
 254 904 254 904 197 958 c 128,-1,43
 140 1012 140 1012 154 1098 c 0,16,17
EndSplineSet
EndChar

StartChar: guillemotleft
Encoding: 171 171 109
Width: 794
GlyphClass: 2
Flags: W
LayerCount: 2
Fore
SplineSet
54 504 m 1,0,-1
 436 942 l 1,1,-1
 476 912 l 1,2,-1
 122 504 l 1,3,-1
 338 92 l 1,4,-1
 286 60 l 1,5,-1
 54 504 l 1,0,-1
360 504 m 1,6,-1
 742 940 l 1,7,-1
 782 908 l 1,8,-1
 430 504 l 1,9,-1
 646 94 l 1,10,-1
 596 62 l 1,11,-1
 360 504 l 1,6,-1
EndSplineSet
EndChar

StartChar: logicalnot
Encoding: 172 172 110
Width: 1048
GlyphClass: 2
Flags: W
LayerCount: 2
Fore
SplineSet
114 678 m 1,0,-1
 124 730 l 1,1,-1
 982 730 l 1,2,-1
 904 258 l 1,3,-1
 842 258 l 1,4,-1
 912 678 l 1,5,-1
 114 678 l 1,0,-1
EndSplineSet
EndChar

StartChar: uni00AD
Encoding: 173 173 111
Width: 1084
GlyphClass: 2
Flags: W
LayerCount: 2
Fore
SplineSet
146 696 m 1,0,-1
 156 750 l 1,1,-1
 994 750 l 1,2,-1
 986 696 l 1,3,-1
 146 696 l 1,0,-1
EndSplineSet
EndChar

StartChar: registered
Encoding: 174 174 112
Width: 1762
GlyphClass: 2
Flags: W
LayerCount: 2
Fore
SplineSet
594 296 m 1,0,-1
 744 1198 l 1,1,-1
 1056 1198 l 2,2,3
 1176 1198 1176 1198 1234 1127 c 128,-1,4
 1292 1056 1292 1056 1274 954 c 0,5,6
 1246 786 1246 786 1080 728 c 1,7,8
 1142 686 1142 686 1154 562 c 0,9,10
 1156 546 1156 546 1158 495 c 128,-1,11
 1160 444 1160 444 1162 422 c 128,-1,12
 1164 400 1164 400 1173 362 c 128,-1,13
 1182 324 1182 324 1192 296 c 1,14,-1
 1120 296 l 1,15,16
 1110 322 1110 322 1104 356 c 128,-1,17
 1098 390 1098 390 1096 414 c 128,-1,18
 1094 438 1094 438 1092 480 c 128,-1,19
 1090 522 1090 522 1088 540 c 0,20,21
 1082 620 1082 620 1056 662 c 128,-1,22
 1030 704 1030 704 958 704 c 2,23,-1
 726 704 l 1,24,-1
 658 296 l 1,25,-1
 594 296 l 1,0,-1
734 760 m 1,26,-1
 972 760 l 2,27,28
 1064 760 1064 760 1128 812 c 128,-1,29
 1192 864 1192 864 1206 950 c 0,30,31
 1220 1034 1220 1034 1180 1089 c 128,-1,32
 1140 1144 1140 1144 1036 1144 c 2,33,-1
 798 1144 l 1,34,-1
 734 760 l 1,26,-1
144 748 m 0,35,36
 200 1082 200 1082 456 1304 c 128,-1,37
 712 1526 712 1526 1040 1526 c 0,38,39
 1372 1526 1372 1526 1554 1306 c 128,-1,40
 1736 1086 1736 1086 1680 748 c 0,41,42
 1626 422 1626 422 1373 197 c 128,-1,43
 1120 -28 1120 -28 782 -28 c 0,44,45
 454 -28 454 -28 272 195 c 128,-1,46
 90 418 90 418 144 748 c 0,35,36
196 748 m 0,47,48
 146 450 146 450 310 235 c 128,-1,49
 474 20 474 20 790 20 c 256,50,51
 1106 20 1106 20 1343 236 c 128,-1,52
 1580 452 1580 452 1628 748 c 0,53,54
 1678 1048 1678 1048 1512 1263 c 128,-1,55
 1346 1478 1346 1478 1032 1478 c 0,56,57
 726 1478 726 1478 486 1267 c 128,-1,58
 246 1056 246 1056 196 748 c 0,47,48
EndSplineSet
EndChar

StartChar: macron
Encoding: 175 175 113
Width: 1030
GlyphClass: 2
Flags: W
LayerCount: 2
Fore
SplineSet
170 1594 m 1,0,-1
 178 1646 l 1,1,-1
 1212 1646 l 1,2,-1
 1202 1594 l 1,3,-1
 170 1594 l 1,0,-1
EndSplineSet
EndChar

StartChar: degree
Encoding: 176 176 114
Width: 786
GlyphClass: 2
Flags: W
LayerCount: 2
Fore
SplineSet
280 1266 m 0,0,1
 294 1354 294 1354 370 1420 c 128,-1,2
 446 1486 446 1486 548 1486 c 0,3,4
 644 1486 644 1486 699 1424 c 128,-1,5
 754 1362 754 1362 738 1266 c 0,6,7
 722 1168 722 1168 645 1104 c 128,-1,8
 568 1040 568 1040 474 1040 c 0,9,10
 378 1040 378 1040 321 1105 c 128,-1,11
 264 1170 264 1170 280 1266 c 0,0,1
328 1266 m 0,12,13
 314 1186 314 1186 358 1136 c 128,-1,14
 402 1086 402 1086 480 1086 c 0,15,16
 552 1086 552 1086 614 1138 c 128,-1,17
 676 1190 676 1190 690 1266 c 0,18,19
 702 1340 702 1340 662 1390 c 128,-1,20
 622 1440 622 1440 540 1440 c 0,21,22
 456 1440 456 1440 398 1390 c 128,-1,23
 340 1340 340 1340 328 1266 c 0,12,13
EndSplineSet
EndChar

StartChar: plusminus
Encoding: 177 177 115
Width: 1090
GlyphClass: 2
Flags: W
LayerCount: 2
Fore
SplineSet
128 824 m 1,0,-1
 136 878 l 1,1,-1
 570 878 l 1,2,-1
 638 1292 l 1,3,-1
 696 1292 l 1,4,-1
 626 878 l 1,5,-1
 1060 878 l 1,6,-1
 1052 824 l 1,7,-1
 618 824 l 1,8,-1
 550 410 l 1,9,-1
 492 410 l 1,10,-1
 562 824 l 1,11,-1
 128 824 l 1,0,-1
26 172 m 1,12,-1
 34 224 l 1,13,-1
 946 224 l 1,14,-1
 938 172 l 1,15,-1
 26 172 l 1,12,-1
EndSplineSet
EndChar

StartChar: twosuperior
Encoding: 178 178 116
Width: 602
GlyphClass: 2
Flags: W
LayerCount: 2
Fore
SplineSet
212 1476 m 1,0,1
 244 1556 244 1556 312 1615 c 128,-1,2
 380 1674 380 1674 486 1674 c 0,3,4
 584 1674 584 1674 637 1616 c 128,-1,5
 690 1558 690 1558 674 1454 c 0,6,7
 654 1328 654 1328 504 1208 c 0,8,9
 338 1072 338 1072 271 1008 c 128,-1,10
 204 944 204 944 180 888 c 1,11,-1
 580 888 l 1,12,-1
 572 842 l 1,13,-1
 112 842 l 1,14,15
 112 846 112 846 112 850 c 0,16,17
 118 882 118 882 137 916 c 128,-1,18
 156 950 156 950 204 999 c 128,-1,19
 252 1048 252 1048 278 1073 c 128,-1,20
 304 1098 304 1098 381 1162 c 128,-1,21
 458 1226 458 1226 478 1244 c 0,22,23
 606 1356 606 1356 622 1454 c 0,24,25
 636 1536 636 1536 595 1581 c 128,-1,26
 554 1626 554 1626 476 1626 c 0,27,28
 332 1626 332 1626 258 1466 c 1,29,-1
 212 1476 l 1,0,1
EndSplineSet
EndChar

StartChar: threesuperior
Encoding: 179 179 117
Width: 604
GlyphClass: 2
Flags: W
LayerCount: 2
Fore
SplineSet
116 966 m 1,0,-1
 162 992 l 1,1,2
 212 870 212 870 338 870 c 0,3,4
 424 870 424 870 491 919 c 128,-1,5
 558 968 558 968 574 1066 c 0,6,7
 586 1144 586 1144 544 1198 c 128,-1,8
 502 1252 502 1252 376 1252 c 0,9,10
 366 1252 366 1252 332 1248 c 1,11,-1
 340 1300 l 1,12,13
 358 1298 358 1298 382 1298 c 0,14,15
 492 1298 492 1298 545 1349 c 128,-1,16
 598 1400 598 1400 610 1468 c 0,17,18
 622 1538 622 1538 582 1583 c 128,-1,19
 542 1628 542 1628 466 1628 c 0,20,21
 358 1628 358 1628 270 1502 c 1,22,-1
 228 1518 l 1,23,24
 324 1676 324 1676 474 1676 c 0,25,26
 576 1676 576 1676 625 1617 c 128,-1,27
 674 1558 674 1558 660 1470 c 0,28,29
 638 1334 638 1334 506 1278 c 1,30,31
 652 1226 652 1226 626 1066 c 0,32,33
 606 948 606 948 524 885 c 128,-1,34
 442 822 442 822 330 822 c 0,35,36
 174 822 174 822 116 966 c 1,0,-1
EndSplineSet
EndChar

StartChar: acute
Encoding: 180 180 118
Width: 616
GlyphClass: 2
Flags: W
LayerCount: 2
Fore
SplineSet
288 1324 m 1,0,-1
 576 1672 l 1,1,-1
 682 1672 l 1,2,-1
 354 1324 l 1,3,-1
 288 1324 l 1,0,-1
EndSplineSet
EndChar

StartChar: uni00B5
Encoding: 181 181 119
Width: 1114
GlyphClass: 2
Flags: W
LayerCount: 2
Fore
SplineSet
14 -488 m 1,0,-1
 268 1040 l 1,1,-1
 328 1040 l 1,2,-1
 216 370 l 2,3,4
 190 214 190 214 241 113 c 128,-1,5
 292 12 292 12 432 12 c 0,6,7
 600 12 600 12 714 139 c 128,-1,8
 828 266 828 266 856 438 c 2,9,-1
 956 1040 l 1,10,-1
 1012 1040 l 1,11,-1
 840 0 l 1,12,-1
 786 0 l 1,13,-1
 824 226 l 1,14,-1
 820 226 l 1,15,16
 778 124 778 124 673 43 c 128,-1,17
 568 -38 568 -38 418 -38 c 0,18,19
 224 -38 224 -38 178 134 c 1,20,-1
 74 -488 l 1,21,-1
 14 -488 l 1,0,-1
EndSplineSet
EndChar

StartChar: paragraph
Encoding: 182 182 120
Width: 1236
GlyphClass: 2
Flags: W
LayerCount: 2
Fore
SplineSet
226 1106 m 0,0,1
 260 1308 260 1308 383 1432 c 128,-1,2
 506 1556 506 1556 688 1556 c 2,3,-1
 1212 1556 l 1,4,-1
 930 -142 l 1,5,-1
 878 -142 l 1,6,-1
 1148 1494 l 1,7,-1
 878 1494 l 1,8,-1
 606 -142 l 1,9,-1
 552 -142 l 1,10,-1
 690 688 l 1,11,12
 590 660 590 660 514 660 c 0,13,14
 360 660 360 660 275 777 c 128,-1,15
 190 894 190 894 226 1106 c 0,0,1
EndSplineSet
EndChar

StartChar: periodcentered
Encoding: 183 183 121
Width: 636
GlyphClass: 2
Flags: W
LayerCount: 2
Fore
SplineSet
244 618 m 1,0,-1
 274 788 l 1,1,-1
 440 788 l 1,2,-1
 412 618 l 1,3,-1
 244 618 l 1,0,-1
EndSplineSet
EndChar

StartChar: cedilla
Encoding: 184 184 122
Width: 552
GlyphClass: 2
Flags: W
LayerCount: 2
Fore
SplineSet
-70 -396 m 1,0,1
 28 -416 28 -416 56 -416 c 0,2,3
 226 -416 226 -416 246 -300 c 0,4,5
 262 -204 262 -204 64 -174 c 1,6,-1
 158 -30 l 1,7,-1
 216 -30 l 1,8,-1
 144 -140 l 1,9,10
 322 -172 322 -172 302 -302 c 0,11,12
 288 -382 288 -382 223 -425 c 128,-1,13
 158 -468 158 -468 50 -468 c 0,14,15
 -8 -468 -8 -468 -78 -442 c 1,16,-1
 -70 -396 l 1,0,1
EndSplineSet
EndChar

StartChar: onesuperior
Encoding: 185 185 123
Width: 584
GlyphClass: 2
Flags: W
LayerCount: 2
Fore
SplineSet
276 1504 m 1,0,-1
 284 1546 l 1,1,-1
 334 1546 l 2,2,3
 408 1546 408 1546 434 1559 c 128,-1,4
 460 1572 460 1572 468 1614 c 2,5,-1
 476 1668 l 1,6,-1
 522 1668 l 1,7,-1
 382 830 l 1,8,-1
 330 830 l 1,9,-1
 442 1504 l 1,10,-1
 276 1504 l 1,0,-1
EndSplineSet
EndChar

StartChar: ordmasculine
Encoding: 186 186 124
Width: 754
GlyphClass: 2
Flags: W
LayerCount: 2
Fore
SplineSet
246 1292 m 256,0,1
 222 1144 222 1144 274 1048 c 128,-1,2
 326 952 326 952 438 952 c 256,3,4
 552 952 552 952 638 1049 c 128,-1,5
 724 1146 724 1146 748 1292 c 256,6,7
 772 1438 772 1438 718 1533 c 128,-1,8
 664 1628 664 1628 550 1628 c 0,9,10
 440 1628 440 1628 355 1534 c 128,-1,11
 270 1440 270 1440 246 1292 c 256,0,1
190 1292 m 0,12,13
 218 1460 218 1460 318 1568 c 128,-1,14
 418 1676 418 1676 558 1676 c 256,15,16
 698 1676 698 1676 763 1568 c 128,-1,17
 828 1460 828 1460 800 1292 c 0,18,19
 774 1132 774 1132 675 1018 c 128,-1,20
 576 904 576 904 430 904 c 256,21,22
 284 904 284 904 224 1018 c 128,-1,23
 164 1132 164 1132 190 1292 c 0,12,13
86 696 m 1,24,-1
 96 746 l 1,25,-1
 716 746 l 1,26,-1
 708 696 l 1,27,-1
 86 696 l 1,24,-1
EndSplineSet
EndChar

StartChar: guillemotright
Encoding: 187 187 125
Width: 794
GlyphClass: 2
Flags: W
LayerCount: 2
Fore
SplineSet
126 908 m 1,0,-1
 176 940 l 1,1,-1
 414 504 l 1,2,-1
 32 62 l 1,3,-1
 -4 94 l 1,4,-1
 346 504 l 1,5,-1
 126 908 l 1,0,-1
300 92 m 1,6,-1
 654 504 l 1,7,-1
 434 912 l 1,8,-1
 484 942 l 1,9,-1
 722 504 l 1,10,-1
 342 60 l 1,11,-1
 300 92 l 1,6,-1
EndSplineSet
EndChar

StartChar: onequarter
Encoding: 188 188 126
Width: 1864
GlyphClass: 3
Flags: W
LayerCount: 2
Fore
SplineSet
1052 224 m 1,0,-1
 1432 224 l 1,1,-1
 1508 688 l 2,2,3
 1512 712 1512 712 1520 757 c 128,-1,4
 1528 802 1528 802 1532 820 c 1,5,-1
 1450 712 l 1,6,-1
 1052 224 l 1,0,-1
986 216 m 1,7,-1
 1542 908 l 1,8,-1
 1602 908 l 1,9,-1
 1488 224 l 1,10,-1
 1642 224 l 1,11,-1
 1634 172 l 1,12,-1
 1480 172 l 1,13,-1
 1438 -84 l 1,14,-1
 1380 -84 l 1,15,-1
 1422 172 l 1,16,-1
 978 172 l 1,17,-1
 986 216 l 1,7,-1
312 1414 m 1,18,-1
 320 1462 l 1,19,-1
 378 1462 l 2,20,21
 468 1462 468 1462 498 1475 c 128,-1,22
 528 1488 528 1488 536 1542 c 2,23,-1
 546 1606 l 1,24,-1
 594 1606 l 1,25,-1
 430 616 l 1,26,-1
 374 616 l 1,27,-1
 506 1414 l 1,28,-1
 312 1414 l 1,18,-1
198 -104 m 1,29,-1
 1450 1574 l 1,30,-1
 1514 1574 l 1,31,-1
 260 -104 l 1,32,-1
 198 -104 l 1,29,-1
EndSplineSet
Ligature2: "'frac' Diagonal Fractions lookup 7 subtable" one fraction four
Ligature2: "'frac' Diagonal Fractions lookup 7 subtable" one slash four
EndChar

StartChar: onehalf
Encoding: 189 189 127
Width: 1862
GlyphClass: 3
Flags: W
LayerCount: 2
Fore
SplineSet
1128 682 m 1,0,1
 1236 914 1236 914 1450 914 c 0,2,3
 1566 914 1566 914 1628 846 c 128,-1,4
 1690 778 1690 778 1670 654 c 0,5,6
 1646 508 1646 508 1476 368 c 0,7,8
 1272 202 1272 202 1193 126 c 128,-1,9
 1114 50 1114 50 1084 -14 c 1,10,-1
 1558 -14 l 1,11,-1
 1550 -68 l 1,12,-1
 1008 -68 l 1,13,14
 1022 20 1022 20 1111 113 c 128,-1,15
 1200 206 1200 206 1432 400 c 0,16,17
 1592 532 1592 532 1612 654 c 0,18,19
 1628 754 1628 754 1580 807 c 128,-1,20
 1532 860 1532 860 1436 860 c 0,21,22
 1356 860 1356 860 1287 809 c 128,-1,23
 1218 758 1218 758 1180 670 c 1,24,-1
 1128 682 l 1,0,1
312 1414 m 1,25,-1
 320 1462 l 1,26,-1
 378 1462 l 2,27,28
 468 1462 468 1462 498 1475 c 128,-1,29
 528 1488 528 1488 536 1542 c 2,30,-1
 546 1606 l 1,31,-1
 594 1606 l 1,32,-1
 430 616 l 1,33,-1
 374 616 l 1,34,-1
 506 1414 l 1,35,-1
 312 1414 l 1,25,-1
150 -104 m 1,36,-1
 1438 1572 l 1,37,-1
 1502 1572 l 1,38,-1
 216 -104 l 1,39,-1
 150 -104 l 1,36,-1
EndSplineSet
Ligature2: "'frac' Diagonal Fractions lookup 7 subtable" one fraction two
Ligature2: "'frac' Diagonal Fractions lookup 7 subtable" one slash two
EndChar

StartChar: threequarters
Encoding: 190 190 128
Width: 1870
GlyphClass: 3
Flags: W
LayerCount: 2
Fore
SplineSet
154 780 m 1,0,-1
 208 806 l 1,1,2
 268 664 268 664 418 664 c 0,3,4
 522 664 522 664 601 722 c 128,-1,5
 680 780 680 780 700 896 c 0,6,7
 718 1006 718 1006 653 1061 c 128,-1,8
 588 1116 588 1116 484 1116 c 0,9,10
 430 1116 430 1116 410 1114 c 1,11,-1
 420 1170 l 1,12,13
 438 1168 438 1168 488 1168 c 0,14,15
 586 1168 586 1168 655 1222 c 128,-1,16
 724 1276 724 1276 740 1372 c 0,17,18
 754 1456 754 1456 707 1510 c 128,-1,19
 660 1564 660 1564 570 1564 c 0,20,21
 436 1564 436 1564 338 1412 c 1,22,-1
 288 1432 l 1,23,24
 400 1616 400 1616 578 1616 c 0,25,26
 698 1616 698 1616 756 1546 c 128,-1,27
 814 1476 814 1476 796 1374 c 0,28,29
 782 1290 782 1290 730 1231 c 128,-1,30
 678 1172 678 1172 612 1148 c 1,31,32
 686 1124 686 1124 730 1061 c 128,-1,33
 774 998 774 998 756 896 c 0,34,35
 732 756 732 756 637 683 c 128,-1,36
 542 610 542 610 410 610 c 0,37,38
 308 610 308 610 244 661 c 128,-1,39
 180 712 180 712 154 780 c 1,0,-1
1008 216 m 1,40,-1
 1568 908 l 1,41,-1
 1626 908 l 1,42,-1
 1514 224 l 1,43,-1
 1668 224 l 1,44,-1
 1660 172 l 1,45,-1
 1506 172 l 1,46,-1
 1462 -84 l 1,47,-1
 1406 -84 l 1,48,-1
 1448 172 l 1,49,-1
 1002 172 l 1,50,-1
 1008 216 l 1,40,-1
1074 224 m 1,51,-1
 1456 224 l 1,52,-1
 1534 688 l 2,53,54
 1538 712 1538 712 1546 755 c 128,-1,55
 1554 798 1554 798 1558 818 c 1,56,-1
 1074 224 l 1,51,-1
318 -104 m 1,57,-1
 1604 1572 l 1,58,-1
 1666 1572 l 1,59,-1
 384 -104 l 1,60,-1
 318 -104 l 1,57,-1
EndSplineSet
Ligature2: "'frac' Diagonal Fractions lookup 7 subtable" three fraction four
Ligature2: "'frac' Diagonal Fractions lookup 7 subtable" three slash four
EndChar

StartChar: questiondown
Encoding: 191 191 129
Width: 1034
GlyphClass: 2
Flags: W
LayerCount: 2
Fore
SplineSet
34 -94 m 0,0,1
 50 -2 50 -2 99 72 c 128,-1,2
 148 146 148 146 212 198 c 128,-1,3
 276 250 276 250 338 302 c 128,-1,4
 400 354 400 354 450 430 c 128,-1,5
 500 506 500 506 516 600 c 2,6,-1
 520 632 l 1,7,-1
 580 632 l 1,8,-1
 574 598 l 2,9,10
 558 496 558 496 507 415 c 128,-1,11
 456 334 456 334 394 282 c 128,-1,12
 332 230 332 230 270 180 c 128,-1,13
 208 130 208 130 159 62 c 128,-1,14
 110 -6 110 -6 96 -92 c 0,15,16
 72 -242 72 -242 138 -331 c 128,-1,17
 204 -420 204 -420 348 -420 c 0,18,19
 566 -420 566 -420 726 -170 c 1,20,-1
 772 -194 l 1,21,22
 692 -330 692 -330 579 -402 c 128,-1,23
 466 -474 466 -474 342 -474 c 0,24,25
 170 -474 170 -474 88 -370 c 128,-1,26
 6 -266 6 -266 34 -94 c 0,0,1
508 882 m 1,27,-1
 534 1048 l 1,28,-1
 702 1048 l 1,29,-1
 674 882 l 1,30,-1
 508 882 l 1,27,-1
EndSplineSet
EndChar

StartChar: AE
Encoding: 198 198 136
Width: 1784
GlyphClass: 2
Flags: W
LayerCount: 2
Fore
SplineSet
404 538 m 1,0,-1
 962 538 l 1,1,-1
 1108 1416 l 1,2,-1
 1088 1416 l 1,3,-1
 404 538 l 1,0,-1
-88 0 m 1,4,-1
 1066 1470 l 1,5,-1
 1850 1470 l 1,6,-1
 1842 1416 l 1,7,-1
 1168 1416 l 1,8,-1
 1066 790 l 1,9,-1
 1668 790 l 1,10,-1
 1658 738 l 1,11,-1
 1054 738 l 1,12,-1
 942 54 l 1,13,-1
 1622 54 l 1,14,-1
 1612 0 l 1,15,-1
 874 0 l 1,16,-1
 954 486 l 1,17,-1
 364 486 l 1,18,-1
 -20 0 l 1,19,-1
 -88 0 l 1,4,-1
EndSplineSet
EndChar

StartChar: multiply
Encoding: 215 215 153
Width: 1088
GlyphClass: 2
Flags: W
LayerCount: 2
Fore
SplineSet
54 334 m 1,0,-1
 534 718 l 1,1,-1
 192 1102 l 1,2,-1
 238 1144 l 1,3,-1
 576 754 l 1,4,-1
 1046 1144 l 1,5,-1
 1078 1102 l 1,6,-1
 612 718 l 1,7,-1
 964 332 l 1,8,-1
 916 294 l 1,9,-1
 564 680 l 1,10,-1
 88 294 l 1,11,-1
 54 334 l 1,0,-1
EndSplineSet
EndChar

StartChar: Oslash
Encoding: 216 216 154
Width: 1356
GlyphClass: 2
Flags: W
LayerCount: 2
Fore
SplineSet
144 734 m 0,0,1
 202 1084 202 1084 388 1297 c 128,-1,2
 574 1510 574 1510 834 1510 c 0,3,4
 1004 1510 1004 1510 1118 1414 c 1,5,-1
 1238 1596 l 1,6,-1
 1298 1596 l 1,7,-1
 1156 1378 l 1,8,9
 1340 1174 1340 1174 1268 734 c 0,10,11
 1210 388 1210 388 1026 175 c 128,-1,12
 842 -38 842 -38 578 -38 c 0,13,14
 434 -38 434 -38 336 30 c 1,15,-1
 212 -164 l 1,16,-1
 150 -164 l 1,17,-1
 298 58 l 1,18,19
 184 154 184 154 145 329 c 128,-1,20
 106 504 106 504 144 734 c 0,0,1
1116 1318 m 1,21,-1
 372 82 l 1,22,23
 462 16 462 16 588 16 c 0,24,25
 824 16 824 16 989 215 c 128,-1,26
 1154 414 1154 414 1206 734 c 0,27,28
 1272 1130 1272 1130 1116 1318 c 1,21,-1
1084 1358 m 1,29,30
 980 1454 980 1454 826 1454 c 0,31,32
 596 1454 596 1454 430 1259 c 128,-1,33
 264 1064 264 1064 208 734 c 0,34,35
 174 526 174 526 205 364 c 128,-1,36
 236 202 236 202 332 112 c 1,37,-1
 1084 1358 l 1,29,30
EndSplineSet
EndChar

StartChar: Thorn
Encoding: 222 222 160
Width: 1202
GlyphClass: 2
Flags: W
LayerCount: 2
Fore
SplineSet
138 0 m 1,0,-1
 382 1472 l 1,1,-1
 442 1472 l 1,2,-1
 396 1196 l 1,3,-1
 726 1196 l 2,4,5
 970 1196 970 1196 1072 1081 c 128,-1,6
 1174 966 1174 966 1140 754 c 0,7,8
 1102 524 1102 524 943 416 c 128,-1,9
 784 308 784 308 540 308 c 2,10,-1
 248 308 l 1,11,-1
 198 0 l 1,12,-1
 138 0 l 1,0,-1
258 360 m 1,13,-1
 542 360 l 2,14,15
 1014 360 1014 360 1078 752 c 256,16,17
 1142 1144 1142 1144 706 1144 c 2,18,-1
 388 1144 l 1,19,-1
 258 360 l 1,13,-1
EndSplineSet
EndChar

StartChar: germandbls
Encoding: 223 223 161
Width: 1262
GlyphClass: 2
Flags: W
LayerCount: 2
Fore
SplineSet
138 0 m 1,0,-1
 328 1144 l 2,1,2
 356 1316 356 1316 484 1413 c 128,-1,3
 612 1510 612 1510 790 1510 c 0,4,5
 960 1510 960 1510 1053 1403 c 128,-1,6
 1146 1296 1146 1296 1118 1122 c 0,7,8
 1096 986 1096 986 1029 895 c 128,-1,9
 962 804 962 804 882 766 c 1,10,-1
 882 760 l 1,11,12
 930 750 930 750 973 724 c 128,-1,13
 1016 698 1016 698 1057 653 c 128,-1,14
 1098 608 1098 608 1116 529 c 128,-1,15
 1134 450 1134 450 1116 352 c 0,16,17
 1090 190 1090 190 969 76 c 128,-1,18
 848 -38 848 -38 674 -38 c 0,19,20
 520 -38 520 -38 382 8 c 1,21,-1
 408 64 l 1,22,23
 528 16 528 16 680 16 c 0,24,25
 812 16 812 16 922 109 c 128,-1,26
 1032 202 1032 202 1056 352 c 0,27,28
 1086 538 1086 538 993 633 c 128,-1,29
 900 728 900 728 752 728 c 2,30,-1
 640 728 l 1,31,-1
 650 780 l 1,32,-1
 752 780 l 2,33,34
 864 780 864 780 949 878 c 128,-1,35
 1034 976 1034 976 1056 1116 c 0,36,37
 1080 1262 1080 1262 1006 1358 c 128,-1,38
 932 1454 932 1454 778 1454 c 256,39,40
 624 1454 624 1454 516 1368 c 128,-1,41
 408 1282 408 1282 384 1138 c 2,42,-1
 196 0 l 1,43,-1
 138 0 l 1,0,-1
EndSplineSet
EndChar

StartChar: ae
Encoding: 230 230 168
Width: 1776
GlyphClass: 2
Flags: W
LayerCount: 2
Fore
SplineSet
42 238 m 0,0,1
 64 374 64 374 172 461 c 128,-1,2
 280 548 280 548 504 582 c 0,3,4
 762 624 762 624 852 666 c 1,5,-1
 860 720 l 2,6,7
 882 852 882 852 814 939 c 128,-1,8
 746 1026 746 1026 592 1026 c 0,9,10
 388 1026 388 1026 236 850 c 1,11,-1
 196 878 l 1,12,13
 264 962 264 962 373 1020 c 128,-1,14
 482 1078 482 1078 600 1078 c 0,15,16
 766 1078 766 1078 843 994 c 128,-1,17
 920 910 920 910 916 780 c 1,18,19
 984 914 984 914 1098 996 c 128,-1,20
 1212 1078 1212 1078 1344 1078 c 0,21,22
 1532 1078 1532 1078 1621 921 c 128,-1,23
 1710 764 1710 764 1676 556 c 2,24,-1
 1666 502 l 1,25,-1
 880 502 l 1,26,-1
 872 450 l 1,27,28
 854 266 854 266 931 139 c 128,-1,29
 1008 12 1008 12 1172 12 c 0,30,31
 1288 12 1288 12 1383 71 c 128,-1,32
 1478 130 1478 130 1538 220 c 1,33,-1
 1586 198 l 1,34,35
 1422 -38 1422 -38 1162 -38 c 0,36,37
 1014 -38 1014 -38 927 53 c 128,-1,38
 840 144 840 144 824 296 c 1,39,40
 762 148 762 148 626 55 c 128,-1,41
 490 -38 490 -38 334 -38 c 256,42,43
 178 -38 178 -38 100 39 c 128,-1,44
 22 116 22 116 42 238 c 0,0,1
100 240 m 0,45,46
 84 148 84 148 147 80 c 128,-1,47
 210 12 210 12 344 12 c 0,48,49
 506 12 506 12 643 122 c 128,-1,50
 780 232 780 232 808 406 c 2,51,-1
 842 614 l 1,52,53
 722 568 722 568 498 534 c 0,54,55
 308 506 308 506 214 433 c 128,-1,56
 120 360 120 360 100 240 c 0,45,46
888 550 m 1,57,-1
 1620 550 l 1,58,59
 1652 742 1652 742 1575 884 c 128,-1,60
 1498 1026 1498 1026 1336 1026 c 0,61,62
 1178 1026 1178 1026 1060 898 c 128,-1,63
 942 770 942 770 898 594 c 2,64,-1
 888 550 l 1,57,-1
EndSplineSet
EndChar

StartChar: eth
Encoding: 240 240 178
Width: 1068
GlyphClass: 2
Flags: W
LayerCount: 2
Fore
SplineSet
94 486 m 0,0,1
 134 726 134 726 274 863 c 128,-1,2
 414 1000 414 1000 608 1000 c 0,3,4
 744 1000 744 1000 821 930 c 128,-1,5
 898 860 898 860 918 754 c 1,6,7
 938 1148 938 1148 774 1332 c 1,8,-1
 452 1114 l 1,9,-1
 426 1154 l 1,10,-1
 738 1366 l 1,11,12
 638 1458 638 1458 478 1482 c 1,13,-1
 502 1532 l 1,14,15
 682 1502 682 1502 792 1402 c 1,16,-1
 1010 1550 l 1,17,-1
 1036 1508 l 1,18,-1
 828 1368 l 1,19,20
 882 1308 882 1308 918 1230 c 0,21,22
 1024 978 1024 978 944 500 c 0,23,24
 906 266 906 266 773 114 c 128,-1,25
 640 -38 640 -38 436 -38 c 0,26,27
 228 -38 228 -38 143 113 c 128,-1,28
 58 264 58 264 94 486 c 0,0,1
150 486 m 0,29,30
 116 276 116 276 193 144 c 128,-1,31
 270 12 270 12 446 12 c 0,32,33
 612 12 612 12 729 142 c 128,-1,34
 846 272 846 272 882 492 c 0,35,36
 916 700 916 700 839 824 c 128,-1,37
 762 948 762 948 602 948 c 0,38,39
 438 948 438 948 313 829 c 128,-1,40
 188 710 188 710 150 486 c 0,29,30
EndSplineSet
EndChar

StartChar: divide
Encoding: 247 247 185
Width: 1092
GlyphClass: 2
Flags: W
LayerCount: 2
Fore
SplineSet
544 1010 m 1,0,-1
 570 1162 l 1,1,-1
 724 1162 l 1,2,-1
 700 1010 l 1,3,-1
 544 1010 l 1,0,-1
84 696 m 1,4,-1
 94 750 l 1,5,-1
 1062 750 l 1,6,-1
 1054 696 l 1,7,-1
 84 696 l 1,4,-1
426 290 m 1,8,-1
 450 438 l 1,9,-1
 604 438 l 1,10,-1
 580 290 l 1,11,-1
 426 290 l 1,8,-1
EndSplineSet
EndChar

StartChar: oslash
Encoding: 248 248 186
Width: 1064
GlyphClass: 2
Flags: W
LayerCount: 2
Fore
SplineSet
100 520 m 0,0,1
 140 764 140 764 281 921 c 128,-1,2
 422 1078 422 1078 618 1078 c 0,3,4
 740 1078 740 1078 826 1008 c 1,5,-1
 922 1156 l 1,6,-1
 976 1156 l 1,7,-1
 860 976 l 1,8,9
 1002 822 1002 822 952 520 c 0,10,11
 914 286 914 286 775 124 c 128,-1,12
 636 -38 636 -38 434 -38 c 0,13,14
 324 -38 324 -38 244 14 c 1,15,-1
 150 -130 l 1,16,-1
 98 -130 l 1,17,-1
 208 44 l 1,18,19
 130 116 130 116 103 244 c 128,-1,20
 76 372 76 372 100 520 c 0,0,1
822 922 m 1,21,-1
 276 64 l 1,22,23
 350 12 350 12 442 12 c 0,24,25
 608 12 608 12 733 157 c 128,-1,26
 858 302 858 302 894 520 c 0,27,28
 936 776 936 776 822 922 c 1,21,-1
794 956 m 1,29,30
 718 1026 718 1026 610 1026 c 0,31,32
 448 1026 448 1026 320 885 c 128,-1,33
 192 744 192 744 156 520 c 0,34,35
 108 234 108 234 244 96 c 1,36,-1
 794 956 l 1,29,30
EndSplineSet
EndChar

StartChar: thorn
Encoding: 254 254 192
Width: 1102
GlyphClass: 2
Flags: W
LayerCount: 2
Fore
SplineSet
238 524 m 0,0,1
 202 296 202 296 276 154 c 128,-1,2
 350 12 350 12 498 12 c 0,3,4
 654 12 654 12 775 148 c 128,-1,5
 896 284 896 284 934 520 c 0,6,7
 970 742 970 742 901 884 c 128,-1,8
 832 1026 832 1026 666 1026 c 0,9,10
 524 1026 524 1026 399 885 c 128,-1,11
 274 744 274 744 240 532 c 0,12,13
 238 528 238 528 238 524 c 0,0,1
16 -488 m 1,14,-1
 352 1534 l 1,15,-1
 408 1534 l 1,16,-1
 282 774 l 1,17,18
 344 910 344 910 453 994 c 128,-1,19
 562 1078 562 1078 678 1078 c 0,20,21
 864 1078 864 1078 948 926 c 128,-1,22
 1032 774 1032 774 990 520 c 0,23,24
 946 252 946 252 808 107 c 128,-1,25
 670 -38 670 -38 490 -38 c 0,26,27
 366 -38 366 -38 291 46 c 128,-1,28
 216 130 216 130 196 260 c 1,29,-1
 72 -488 l 1,30,-1
 16 -488 l 1,14,-1
EndSplineSet
EndChar

StartChar: dcroat
Encoding: 273 273 211
Width: 1106
GlyphClass: 2
Flags: W
LayerCount: 2
Fore
SplineSet
100 520 m 0,0,1
 144 782 144 782 280 930 c 128,-1,2
 416 1078 416 1078 596 1078 c 0,3,4
 726 1078 726 1078 803 987 c 128,-1,5
 880 896 880 896 890 770 c 1,6,-1
 976 1288 l 1,7,-1
 532 1288 l 1,8,-1
 540 1336 l 1,9,-1
 984 1336 l 1,10,-1
 1018 1534 l 1,11,-1
 1074 1534 l 1,12,-1
 1040 1336 l 1,13,-1
 1198 1336 l 1,14,-1
 1190 1288 l 1,15,-1
 1032 1288 l 1,16,-1
 820 0 l 1,17,-1
 764 0 l 1,18,-1
 804 252 l 1,19,20
 746 126 746 126 643 44 c 128,-1,21
 540 -38 540 -38 410 -38 c 0,22,23
 246 -38 246 -38 150 102 c 128,-1,24
 54 242 54 242 100 520 c 0,0,1
156 520 m 0,25,26
 118 292 118 292 191 152 c 128,-1,27
 264 12 264 12 426 12 c 0,28,29
 570 12 570 12 690 146 c 128,-1,30
 810 280 810 280 852 520 c 0,31,32
 852 524 852 524 852 528 c 0,33,34
 890 754 890 754 810 890 c 128,-1,35
 730 1026 730 1026 590 1026 c 0,36,37
 436 1026 436 1026 315 888 c 128,-1,38
 194 750 194 750 156 520 c 0,25,26
EndSplineSet
EndChar

StartChar: uni0123
Encoding: 291 291 229
Width: 1086
GlyphClass: 2
Flags: W
LayerCount: 2
Fore
SplineSet
576 1268 m 1,0,-1
 778 1608 l 1,1,-1
 828 1608 l 1,2,-1
 664 1268 l 1,3,-1
 576 1268 l 1,0,-1
158 538 m 0,4,5
 122 320 122 320 195 185 c 128,-1,6
 268 50 268 50 418 50 c 0,7,8
 576 50 576 50 689 181 c 128,-1,9
 802 312 802 312 840 542 c 0,10,11
 876 758 876 758 804 892 c 128,-1,12
 732 1026 732 1026 584 1026 c 0,13,14
 424 1026 424 1026 309 889 c 128,-1,15
 194 752 194 752 158 538 c 0,4,5
102 538 m 0,16,17
 142 778 142 778 275 928 c 128,-1,18
 408 1078 408 1078 588 1078 c 0,19,20
 724 1078 724 1078 793 992 c 128,-1,21
 862 906 862 906 882 794 c 1,22,-1
 922 1040 l 1,23,-1
 978 1040 l 1,24,-1
 818 74 l 2,25,26
 770 -218 770 -218 658 -357 c 128,-1,27
 546 -496 546 -496 336 -496 c 0,28,29
 238 -496 238 -496 156 -450 c 128,-1,30
 74 -404 74 -404 32 -328 c 1,31,-1
 82 -298 l 1,32,33
 178 -444 178 -444 346 -444 c 0,34,35
 528 -444 528 -444 622 -318 c 128,-1,36
 716 -192 716 -192 760 64 c 2,37,-1
 796 272 l 1,38,39
 656 -4 656 -4 410 -4 c 0,40,41
 232 -4 232 -4 147 148 c 128,-1,42
 62 300 62 300 102 538 c 0,16,17
EndSplineSet
EndChar

StartChar: Hbar
Encoding: 294 294 232
Width: 1466
GlyphClass: 2
Flags: W
LayerCount: 2
Fore
SplineSet
156 1174 m 1,0,-1
 166 1224 l 1,1,-1
 356 1224 l 1,2,-1
 396 1470 l 1,3,-1
 454 1470 l 1,4,-1
 414 1224 l 1,5,-1
 1270 1224 l 1,6,-1
 1312 1470 l 1,7,-1
 1372 1470 l 1,8,-1
 1332 1224 l 1,9,-1
 1518 1224 l 1,10,-1
 1510 1174 l 1,11,-1
 1322 1174 l 1,12,-1
 1128 0 l 1,13,-1
 1068 0 l 1,14,-1
 1190 734 l 1,15,-1
 332 734 l 1,16,-1
 212 0 l 1,17,-1
 152 0 l 1,18,-1
 346 1174 l 1,19,-1
 156 1174 l 1,0,-1
1262 1174 m 1,20,-1
 406 1174 l 1,21,-1
 342 786 l 1,22,-1
 1198 786 l 1,23,-1
 1262 1174 l 1,20,-1
EndSplineSet
EndChar

StartChar: hbar
Encoding: 295 295 233
Width: 1100
GlyphClass: 2
Flags: W
LayerCount: 2
Fore
SplineSet
168 1308 m 1,0,-1
 176 1358 l 1,1,-1
 326 1358 l 1,2,-1
 356 1534 l 1,3,-1
 414 1534 l 1,4,-1
 384 1358 l 1,5,-1
 814 1358 l 1,6,-1
 806 1308 l 1,7,-1
 376 1308 l 1,8,-1
 296 818 l 1,9,-1
 298 818 l 1,10,11
 348 912 348 912 459 991 c 128,-1,12
 570 1070 570 1070 700 1070 c 0,13,14
 756 1070 756 1070 800 1055 c 128,-1,15
 844 1040 844 1040 888 1000 c 128,-1,16
 932 960 932 960 949 876 c 128,-1,17
 966 792 966 792 946 670 c 2,18,-1
 836 0 l 1,19,-1
 782 0 l 1,20,-1
 890 652 l 2,21,22
 950 1018 950 1018 680 1018 c 0,23,24
 548 1018 548 1018 419 902 c 128,-1,25
 290 786 290 786 264 634 c 2,26,-1
 160 0 l 1,27,-1
 102 0 l 1,28,-1
 318 1308 l 1,29,-1
 168 1308 l 1,0,-1
EndSplineSet
EndChar

StartChar: dotlessi
Encoding: 305 305 243
Width: 426
GlyphClass: 2
Flags: W
LayerCount: 2
Fore
SplineSet
90 0 m 1,0,-1
 262 1040 l 1,1,-1
 322 1040 l 1,2,-1
 150 0 l 1,3,-1
 90 0 l 1,0,-1
EndSplineSet
EndChar

StartChar: kgreenlandic
Encoding: 312 312 250
Width: 924
GlyphClass: 2
Flags: W
LayerCount: 2
Fore
SplineSet
96 0 m 1,0,-1
 268 1040 l 1,1,-1
 326 1040 l 1,2,-1
 236 504 l 1,3,-1
 240 504 l 1,4,-1
 890 1040 l 1,5,-1
 970 1040 l 1,6,-1
 350 526 l 1,7,-1
 828 0 l 1,8,-1
 750 0 l 1,9,-1
 306 484 l 1,10,-1
 222 416 l 1,11,-1
 154 0 l 1,12,-1
 96 0 l 1,0,-1
EndSplineSet
EndChar

StartChar: Lslash
Encoding: 321 321 259
Width: 1056
GlyphClass: 2
Flags: W
LayerCount: 2
Fore
SplineSet
336 714 m 1,0,-1
 226 54 l 1,1,-1
 950 54 l 1,2,-1
 940 0 l 1,3,-1
 158 0 l 1,4,-1
 270 672 l 1,5,-1
 4 504 l 1,6,-1
 -20 548 l 1,7,-1
 280 740 l 1,8,-1
 402 1470 l 1,9,-1
 460 1470 l 1,10,-1
 346 780 l 1,11,-1
 592 936 l 1,12,-1
 616 894 l 1,13,-1
 336 714 l 1,0,-1
EndSplineSet
EndChar

StartChar: lslash
Encoding: 322 322 260
Width: 470
GlyphClass: 2
Flags: W
LayerCount: 2
Fore
SplineSet
292 746 m 1,0,-1
 170 0 l 1,1,-1
 112 0 l 1,2,-1
 228 704 l 1,3,-1
 -16 542 l 1,4,-1
 -40 586 l 1,5,-1
 240 772 l 1,6,-1
 366 1534 l 1,7,-1
 424 1534 l 1,8,-1
 304 812 l 1,9,-1
 552 974 l 1,10,-1
 572 930 l 1,11,-1
 292 746 l 1,0,-1
EndSplineSet
EndChar

StartChar: Eng
Encoding: 330 330 268
Width: 1456
GlyphClass: 2
Flags: W
LayerCount: 2
Fore
SplineSet
138 0 m 1,0,-1
 382 1470 l 1,1,-1
 456 1470 l 1,2,-1
 976 340 l 1,3,-1
 1088 100 l 1,4,-1
 1096 100 l 1,5,6
 1112 240 1112 240 1144 432 c 2,7,-1
 1316 1470 l 1,8,-1
 1378 1470 l 1,9,-1
 1132 -10 l 2,10,11
 1092 -256 1092 -256 988 -376 c 128,-1,12
 884 -496 884 -496 686 -496 c 0,13,14
 588 -496 588 -496 492 -484 c 1,15,-1
 500 -430 l 1,16,17
 588 -442 588 -442 690 -442 c 0,18,19
 854 -442 854 -442 941 -341 c 128,-1,20
 1028 -240 1028 -240 1068 0 c 1,21,-1
 424 1384 l 1,22,-1
 422 1384 l 1,23,24
 406 1256 406 1256 364 1008 c 2,25,-1
 198 0 l 1,26,-1
 138 0 l 1,0,-1
EndSplineSet
EndChar

StartChar: eng
Encoding: 331 331 269
Width: 1082
GlyphClass: 2
Flags: W
LayerCount: 2
Fore
SplineSet
88 0 m 1,0,-1
 260 1040 l 1,1,-1
 314 1040 l 1,2,-1
 276 804 l 1,3,-1
 280 804 l 1,4,5
 310 892 310 892 426 985 c 128,-1,6
 542 1078 542 1078 686 1078 c 0,7,8
 742 1078 742 1078 788 1062 c 128,-1,9
 834 1046 834 1046 877 1005 c 128,-1,10
 920 964 920 964 937 880 c 128,-1,11
 954 796 954 796 934 676 c 2,12,-1
 820 -10 l 2,13,14
 776 -272 776 -272 680 -384 c 128,-1,15
 584 -496 584 -496 420 -496 c 0,16,17
 382 -496 382 -496 244 -478 c 1,18,-1
 252 -426 l 1,19,20
 366 -442 366 -442 422 -442 c 0,21,22
 566 -442 566 -442 644 -340 c 128,-1,23
 722 -238 722 -238 760 -12 c 2,24,-1
 870 658 l 2,25,26
 930 1026 930 1026 668 1026 c 0,27,28
 532 1026 532 1026 404 910 c 128,-1,29
 276 794 276 794 250 640 c 2,30,-1
 144 0 l 1,31,-1
 88 0 l 1,0,-1
EndSplineSet
EndChar

StartChar: OE
Encoding: 338 338 276
Width: 1784
GlyphClass: 2
Flags: W
LayerCount: 2
Fore
SplineSet
144 736 m 0,0,1
 204 1098 204 1098 407 1304 c 128,-1,2
 610 1510 610 1510 876 1510 c 0,3,4
 992 1510 992 1510 1076 1470 c 1,5,-1
 1850 1470 l 1,6,-1
 1840 1416 l 1,7,-1
 1122 1416 l 1,8,-1
 1018 790 l 1,9,-1
 1662 790 l 1,10,-1
 1654 738 l 1,11,-1
 1010 738 l 1,12,-1
 896 54 l 1,13,-1
 1620 54 l 1,14,-1
 1612 0 l 1,15,-1
 838 0 l 1,16,17
 742 -38 742 -38 620 -38 c 0,18,19
 354 -38 354 -38 219 169 c 128,-1,20
 84 376 84 376 144 736 c 0,0,1
210 736 m 0,21,22
 156 406 156 406 276 211 c 128,-1,23
 396 16 396 16 628 16 c 0,24,25
 746 16 746 16 836 54 c 1,26,-1
 1060 1410 l 1,27,28
 988 1454 988 1454 866 1454 c 0,29,30
 622 1454 622 1454 443 1257 c 128,-1,31
 264 1060 264 1060 210 736 c 0,21,22
EndSplineSet
EndChar

StartChar: uni0163
Encoding: 355 355 293
Width: 648
GlyphClass: 2
Flags: W
LayerCount: 2
Fore
SplineSet
124 988 m 1,0,-1
 132 1040 l 1,1,-1
 328 1040 l 1,2,-1
 388 1402 l 1,3,-1
 448 1402 l 1,4,-1
 388 1040 l 1,5,-1
 632 1040 l 1,6,-1
 624 988 l 1,7,-1
 380 988 l 1,8,-1
 262 274 l 2,9,10
 242 156 242 156 277 104 c 128,-1,11
 312 52 312 52 412 52 c 2,12,-1
 470 52 l 1,13,-1
 462 0 l 1,14,-1
 396 0 l 2,15,16
 376 0 376 0 356 2 c 1,17,-1
 316 -104 l 1,18,19
 408 -114 408 -114 451 -161 c 128,-1,20
 494 -208 494 -208 482 -278 c 0,21,22
 470 -352 470 -352 409 -397 c 128,-1,23
 348 -442 348 -442 252 -442 c 0,24,25
 172 -442 172 -442 102 -422 c 1,26,-1
 110 -374 l 1,27,28
 186 -398 186 -398 262 -398 c 0,29,30
 326 -398 326 -398 371 -364 c 128,-1,31
 416 -330 416 -330 426 -278 c 0,32,33
 446 -158 446 -158 240 -142 c 1,34,-1
 302 12 l 1,35,36
 166 58 166 58 200 262 c 2,37,-1
 320 988 l 1,38,-1
 124 988 l 1,0,-1
EndSplineSet
Substitution2: "'locl' Localized Forms in Latin lookup 3 subtable" uni021B
Substitution2: "'locl' Localized Forms in Latin lookup 2 subtable" uni021B
Substitution2: "'aalt' Access All Alternates lookup 0 subtable" uni021B
EndChar

StartChar: tbar
Encoding: 359 359 297
Width: 670
GlyphClass: 2
Flags: W
LayerCount: 2
Fore
SplineSet
124 988 m 1,0,-1
 134 1040 l 1,1,-1
 328 1040 l 1,2,-1
 388 1402 l 1,3,-1
 450 1402 l 1,4,-1
 390 1040 l 1,5,-1
 658 1040 l 1,6,-1
 648 988 l 1,7,-1
 380 988 l 1,8,-1
 330 684 l 1,9,-1
 604 684 l 1,10,-1
 596 634 l 1,11,-1
 322 634 l 1,12,-1
 262 274 l 2,13,14
 242 156 242 156 277 104 c 128,-1,15
 312 52 312 52 412 52 c 2,16,-1
 496 52 l 1,17,-1
 486 0 l 1,18,-1
 396 0 l 2,19,20
 158 0 158 0 200 262 c 2,21,-1
 262 634 l 1,22,-1
 54 634 l 1,23,-1
 62 684 l 1,24,-1
 270 684 l 1,25,-1
 320 988 l 1,26,-1
 124 988 l 1,0,-1
EndSplineSet
EndChar

StartChar: longs
Encoding: 383 383 321
Width: 560
GlyphClass: 2
Flags: W
LayerCount: 2
Fore
SplineSet
98 0 m 1,0,-1
 296 1196 l 2,1,2
 320 1344 320 1344 402 1413 c 128,-1,3
 484 1482 484 1482 600 1482 c 2,4,-1
 680 1482 l 1,5,-1
 672 1430 l 1,6,-1
 594 1430 l 2,7,8
 392 1430 392 1430 352 1186 c 2,9,-1
 156 0 l 1,10,-1
 98 0 l 1,0,-1
EndSplineSet
EndChar

StartChar: uni0180
Encoding: 384 384 322
Width: 1106
GlyphClass: 2
Flags: W
LayerCount: 2
Fore
SplineSet
244 520 m 0,0,1
 204 280 204 280 282 146 c 128,-1,2
 360 12 360 12 502 12 c 0,3,4
 660 12 660 12 781 151 c 128,-1,5
 902 290 902 290 942 520 c 256,6,7
 980 750 980 750 905 888 c 128,-1,8
 830 1026 830 1026 674 1026 c 0,9,10
 534 1026 534 1026 408 890 c 128,-1,11
 282 754 282 754 244 520 c 0,0,1
176 1310 m 1,12,-1
 184 1358 l 1,13,-1
 326 1358 l 1,14,-1
 356 1534 l 1,15,-1
 416 1534 l 1,16,-1
 386 1358 l 1,17,-1
 812 1358 l 1,18,-1
 804 1310 l 1,19,-1
 378 1310 l 1,20,-1
 288 768 l 1,21,22
 332 884 332 884 440 981 c 128,-1,23
 548 1078 548 1078 686 1078 c 0,24,25
 870 1078 870 1078 953 928 c 128,-1,26
 1036 778 1036 778 994 520 c 0,27,28
 948 242 948 242 806 102 c 128,-1,29
 664 -38 664 -38 496 -38 c 0,30,31
 372 -38 372 -38 296 45 c 128,-1,32
 220 128 220 128 200 250 c 1,33,-1
 160 0 l 1,34,-1
 102 0 l 1,35,-1
 318 1310 l 1,36,-1
 176 1310 l 1,12,-1
EndSplineSet
EndChar

StartChar: uni0182
Encoding: 386 386 324
Width: 1286
GlyphClass: 2
Flags: W
LayerCount: 2
Fore
SplineSet
206 54 m 1,0,-1
 666 54 l 2,1,2
 836 54 836 54 947 141 c 128,-1,3
 1058 228 1058 228 1086 396 c 0,4,5
 1114 562 1114 562 1027 653 c 128,-1,6
 940 744 940 744 760 744 c 2,7,-1
 320 744 l 1,8,-1
 206 54 l 1,0,-1
138 0 m 1,9,-1
 382 1470 l 1,10,-1
 1162 1470 l 1,11,-1
 1154 1416 l 1,12,-1
 432 1416 l 1,13,-1
 330 798 l 1,14,-1
 782 798 l 2,15,16
 982 798 982 798 1081 687 c 128,-1,17
 1180 576 1180 576 1148 392 c 0,18,19
 1118 212 1118 212 992 106 c 128,-1,20
 866 0 866 0 672 0 c 2,21,-1
 138 0 l 1,9,-1
EndSplineSet
EndChar

StartChar: uni0183
Encoding: 387 387 325
Width: 1100
GlyphClass: 2
Flags: W
LayerCount: 2
Fore
SplineSet
238 520 m 0,0,1
 198 280 198 280 276 146 c 128,-1,2
 354 12 354 12 496 12 c 0,3,4
 654 12 654 12 775 151 c 128,-1,5
 896 290 896 290 936 520 c 256,6,7
 974 750 974 750 898 888 c 128,-1,8
 822 1026 822 1026 668 1026 c 0,9,10
 528 1026 528 1026 402 890 c 128,-1,11
 276 754 276 754 238 520 c 0,0,1
96 0 m 1,12,-1
 350 1534 l 1,13,-1
 964 1534 l 1,14,-1
 956 1482 l 1,15,-1
 400 1482 l 1,16,-1
 282 768 l 1,17,18
 326 882 326 882 433 980 c 128,-1,19
 540 1078 540 1078 680 1078 c 0,20,21
 864 1078 864 1078 947 928 c 128,-1,22
 1030 778 1030 778 988 520 c 0,23,24
 942 242 942 242 800 102 c 128,-1,25
 658 -38 658 -38 490 -38 c 0,26,27
 366 -38 366 -38 290 45 c 128,-1,28
 214 128 214 128 194 250 c 1,29,-1
 154 0 l 1,30,-1
 96 0 l 1,12,-1
EndSplineSet
EndChar

StartChar: uni0184
Encoding: 388 388 326
Width: 1300
GlyphClass: 2
Flags: W
LayerCount: 2
Fore
SplineSet
240 1376 m 1,0,-1
 400 1470 l 1,1,-1
 452 1470 l 1,2,-1
 340 786 l 1,3,-1
 796 786 l 2,4,5
 990 786 990 786 1090 672 c 128,-1,6
 1190 558 1190 558 1162 392 c 0,7,8
 1134 228 1134 228 1008 114 c 128,-1,9
 882 0 882 0 686 0 c 2,10,-1
 148 0 l 1,11,-1
 360 1272 l 1,12,-1
 240 1376 l 1,0,-1
218 54 m 1,13,-1
 680 54 l 2,14,15
 840 54 840 54 957 146 c 128,-1,16
 1074 238 1074 238 1100 392 c 0,17,18
 1124 538 1124 538 1036 636 c 128,-1,19
 948 734 948 734 784 734 c 2,20,-1
 332 734 l 1,21,-1
 218 54 l 1,13,-1
EndSplineSet
EndChar

StartChar: uni0185
Encoding: 389 389 327
Width: 1106
GlyphClass: 2
Flags: W
LayerCount: 2
Fore
SplineSet
208 1428 m 1,0,-1
 378 1534 l 1,1,-1
 414 1534 l 1,2,-1
 288 766 l 1,3,4
 340 896 340 896 453 987 c 128,-1,5
 566 1078 566 1078 684 1078 c 0,6,7
 868 1078 868 1078 952 928 c 128,-1,8
 1036 778 1036 778 994 520 c 0,9,10
 948 242 948 242 806 102 c 128,-1,11
 664 -38 664 -38 496 -38 c 0,12,13
 366 -38 366 -38 294 44 c 128,-1,14
 222 126 222 126 200 252 c 1,15,-1
 160 0 l 1,16,-1
 100 0 l 1,17,-1
 320 1328 l 1,18,-1
 208 1428 l 1,0,-1
244 520 m 256,19,20
 206 286 206 286 280 149 c 128,-1,21
 354 12 354 12 502 12 c 0,22,23
 660 12 660 12 781 151 c 128,-1,24
 902 290 902 290 940 520 c 256,25,26
 978 750 978 750 903 888 c 128,-1,27
 828 1026 828 1026 672 1026 c 0,28,29
 532 1026 532 1026 407 890 c 128,-1,30
 282 754 282 754 244 520 c 256,19,20
EndSplineSet
EndChar

StartChar: uni0186
Encoding: 390 390 328
Width: 1226
GlyphClass: 2
Flags: W
LayerCount: 2
Fore
SplineSet
18 264 m 1,0,-1
 80 286 l 1,1,2
 116 168 116 168 205 92 c 128,-1,3
 294 16 294 16 436 16 c 0,4,5
 668 16 668 16 844 210 c 128,-1,6
 1020 404 1020 404 1076 736 c 0,7,8
 1130 1062 1130 1062 1021 1258 c 128,-1,9
 912 1454 912 1454 674 1454 c 0,10,11
 540 1454 540 1454 436 1379 c 128,-1,12
 332 1304 332 1304 268 1198 c 1,13,-1
 216 1220 l 1,14,15
 280 1330 280 1330 402 1420 c 128,-1,16
 524 1510 524 1510 684 1510 c 0,17,18
 944 1510 944 1510 1072 1305 c 128,-1,19
 1200 1100 1200 1100 1140 736 c 0,20,21
 1080 376 1080 376 885 169 c 128,-1,22
 690 -38 690 -38 428 -38 c 0,23,24
 110 -38 110 -38 18 264 c 1,0,-1
EndSplineSet
EndChar

StartChar: uni018B
Encoding: 395 395 333
Width: 1286
GlyphClass: 2
Flags: W
LayerCount: 2
Fore
SplineSet
142 396 m 0,0,1
 114 228 114 228 200 141 c 128,-1,2
 286 54 286 54 462 54 c 2,3,-1
 906 54 l 1,4,-1
 1020 744 l 1,5,-1
 598 744 l 2,6,7
 416 744 416 744 293 652 c 128,-1,8
 170 560 170 560 142 396 c 0,0,1
78 392 m 0,9,10
 108 576 108 576 249 687 c 128,-1,11
 390 798 390 798 592 798 c 2,12,-1
 1030 798 l 1,13,-1
 1132 1416 l 1,14,-1
 416 1416 l 1,15,-1
 426 1470 l 1,16,-1
 1204 1470 l 1,17,-1
 960 0 l 1,18,-1
 434 0 l 2,19,20
 244 0 244 0 146 107 c 128,-1,21
 48 214 48 214 78 392 c 0,9,10
EndSplineSet
EndChar

StartChar: uni018C
Encoding: 396 396 334
Width: 1100
GlyphClass: 2
Flags: W
LayerCount: 2
Fore
SplineSet
156 520 m 256,0,1
 118 290 118 290 190 151 c 128,-1,2
 262 12 262 12 424 12 c 0,3,4
 566 12 566 12 688 146 c 128,-1,5
 810 280 810 280 850 520 c 0,6,7
 888 754 888 754 808 890 c 128,-1,8
 728 1026 728 1026 588 1026 c 0,9,10
 434 1026 434 1026 314 888 c 128,-1,11
 194 750 194 750 156 520 c 256,0,1
100 520 m 0,12,13
 144 780 144 780 280 929 c 128,-1,14
 416 1078 416 1078 596 1078 c 0,15,16
 726 1078 726 1078 803 986 c 128,-1,17
 880 894 880 894 890 770 c 1,18,-1
 1008 1482 l 1,19,-1
 448 1482 l 1,20,-1
 456 1534 l 1,21,-1
 1074 1534 l 1,22,-1
 820 0 l 1,23,-1
 764 0 l 1,24,-1
 804 252 l 1,25,26
 748 128 748 128 643 45 c 128,-1,27
 538 -38 538 -38 408 -38 c 0,28,29
 244 -38 244 -38 149 102 c 128,-1,30
 54 242 54 242 100 520 c 0,12,13
EndSplineSet
EndChar

StartChar: uni018D
Encoding: 397 397 335
Width: 1174
GlyphClass: 2
Flags: W
LayerCount: 2
Fore
SplineSet
174 634 m 0,0,1
 160 544 160 544 186 465 c 128,-1,2
 212 386 212 386 271 326 c 128,-1,3
 330 266 330 266 386 227 c 128,-1,4
 442 188 442 188 522 146 c 1,5,6
 718 224 718 224 857 360 c 128,-1,7
 996 496 996 496 1020 638 c 0,8,9
 1046 796 1046 796 959 911 c 128,-1,10
 872 1026 872 1026 672 1026 c 0,11,12
 486 1026 486 1026 345 922 c 128,-1,13
 204 818 204 818 174 634 c 0,0,1
118 628 m 0,14,15
 152 836 152 836 307 957 c 128,-1,16
 462 1078 462 1078 680 1078 c 256,17,18
 898 1078 898 1078 1006 953 c 128,-1,19
 1114 828 1114 828 1082 640 c 0,20,21
 1058 494 1058 494 919 349 c 128,-1,22
 780 204 780 204 572 114 c 1,23,24
 696 38 696 38 756 -39 c 128,-1,25
 816 -116 816 -116 800 -208 c 0,26,27
 780 -328 780 -328 672 -410 c 128,-1,28
 564 -492 564 -492 404 -492 c 0,29,30
 160 -492 160 -492 54 -282 c 1,31,-1
 104 -252 l 1,32,33
 198 -440 198 -440 414 -440 c 0,34,35
 534 -440 534 -440 630 -376 c 128,-1,36
 726 -312 726 -312 744 -208 c 0,37,38
 760 -114 760 -114 678 -37 c 128,-1,39
 596 40 596 40 430 130 c 0,40,41
 68 330 68 330 118 628 c 0,14,15
EndSplineSet
EndChar

StartChar: uni018E
Encoding: 398 398 336
Width: 1196
GlyphClass: 2
Flags: W
LayerCount: 2
Fore
SplineSet
-14 0 m 1,0,-1
 -4 54 l 1,1,-1
 818 54 l 1,2,-1
 932 736 l 1,3,-1
 210 736 l 1,4,-1
 218 790 l 1,5,-1
 940 790 l 1,6,-1
 1044 1416 l 1,7,-1
 250 1416 l 1,8,-1
 258 1470 l 1,9,-1
 1116 1470 l 1,10,-1
 872 0 l 1,11,-1
 -14 0 l 1,0,-1
EndSplineSet
EndChar

StartChar: uni018F
Encoding: 399 399 337
Width: 1332
GlyphClass: 2
Flags: W
LayerCount: 2
Fore
SplineSet
126 642 m 0,0,1
 130 668 130 668 138 704 c 128,-1,2
 146 740 146 740 146 750 c 1,3,-1
 1186 750 l 1,4,5
 1208 900 1208 900 1199 1023 c 128,-1,6
 1190 1146 1190 1146 1148 1245 c 128,-1,7
 1106 1344 1106 1344 1014 1399 c 128,-1,8
 922 1454 922 1454 784 1454 c 0,9,10
 498 1454 498 1454 320 1198 c 1,11,-1
 272 1220 l 1,12,13
 356 1350 356 1350 491 1430 c 128,-1,14
 626 1510 626 1510 794 1510 c 0,15,16
 994 1510 994 1510 1110 1405 c 128,-1,17
 1226 1300 1226 1300 1255 1130 c 128,-1,18
 1284 960 1284 960 1244 730 c 0,19,20
 1180 346 1180 346 988 154 c 128,-1,21
 796 -38 796 -38 548 -38 c 0,22,23
 426 -38 426 -38 339 4 c 128,-1,24
 252 46 252 46 204 113 c 128,-1,25
 156 180 156 180 134 272 c 128,-1,26
 112 364 112 364 111 454 c 128,-1,27
 110 544 110 544 126 642 c 0,0,1
200 694 m 1,28,29
 198 682 198 682 196 663 c 128,-1,30
 194 644 194 644 192 636 c 0,31,32
 178 548 178 548 176 469 c 128,-1,33
 174 390 174 390 191 305 c 128,-1,34
 208 220 208 220 248 159 c 128,-1,35
 288 98 288 98 367 57 c 128,-1,36
 446 16 446 16 558 16 c 0,37,38
 642 16 642 16 730 50 c 128,-1,39
 818 84 818 84 910 156 c 128,-1,40
 1002 228 1002 228 1075 368 c 128,-1,41
 1148 508 1148 508 1178 694 c 1,42,-1
 200 694 l 1,28,29
EndSplineSet
EndChar

StartChar: uni0190
Encoding: 400 400 338
Width: 1160
GlyphClass: 2
Flags: W
LayerCount: 2
Fore
SplineSet
86 398 m 0,0,1
 114 564 114 564 237 662 c 128,-1,2
 360 760 360 760 498 788 c 1,3,4
 392 820 392 820 320 912 c 128,-1,5
 248 1004 248 1004 272 1150 c 0,6,7
 296 1300 296 1300 428 1405 c 128,-1,8
 560 1510 560 1510 764 1510 c 0,9,10
 1048 1510 1048 1510 1146 1246 c 1,11,-1
 1088 1222 l 1,12,13
 1004 1456 1004 1456 756 1456 c 0,14,15
 596 1456 596 1456 475 1369 c 128,-1,16
 354 1282 354 1282 332 1148 c 0,17,18
 306 992 306 992 408 900 c 128,-1,19
 510 808 510 808 676 808 c 0,20,21
 752 808 752 808 768 810 c 1,22,-1
 758 754 l 1,23,24
 738 756 738 756 658 756 c 0,25,26
 548 756 548 756 444 722 c 128,-1,27
 340 688 340 688 255 603 c 128,-1,28
 170 518 170 518 150 398 c 0,29,30
 118 210 118 210 233 112 c 128,-1,31
 348 14 348 14 524 14 c 0,32,33
 642 14 642 14 766 74 c 128,-1,34
 890 134 890 134 968 228 c 1,35,-1
 1014 202 l 1,36,37
 932 98 932 98 795 30 c 128,-1,38
 658 -38 658 -38 516 -38 c 0,39,40
 308 -38 308 -38 180 76 c 128,-1,41
 52 190 52 190 86 398 c 0,0,1
EndSplineSet
EndChar

StartChar: uni0191
Encoding: 401 401 339
Width: 1160
GlyphClass: 2
Flags: W
LayerCount: 2
Fore
SplineSet
-210 -436 m 1,0,1
 -136 -442 -136 -442 -116 -442 c 0,2,3
 -2 -442 -2 -442 55 -367 c 128,-1,4
 112 -292 112 -292 138 -138 c 2,5,-1
 404 1470 l 1,6,-1
 1224 1470 l 1,7,-1
 1216 1416 l 1,8,-1
 454 1416 l 1,9,-1
 346 770 l 1,10,-1
 1032 770 l 1,11,-1
 1024 718 l 1,12,-1
 338 718 l 1,13,-1
 196 -138 l 2,14,15
 166 -322 166 -322 91 -409 c 128,-1,16
 16 -496 16 -496 -120 -496 c 0,17,18
 -160 -496 -160 -496 -218 -488 c 1,19,-1
 -210 -436 l 1,0,1
EndSplineSet
EndChar

StartChar: florin
Encoding: 402 402 340
Width: 618
GlyphClass: 2
Flags: W
LayerCount: 2
Fore
SplineSet
-218 -436 m 1,0,1
 -172 -442 -172 -442 -130 -442 c 0,2,3
 82 -442 82 -442 136 -114 c 2,4,-1
 318 988 l 1,5,-1
 126 988 l 1,6,-1
 134 1040 l 1,7,-1
 328 1040 l 1,8,-1
 362 1250 l 2,9,10
 386 1398 386 1398 468 1466 c 128,-1,11
 550 1534 550 1534 666 1534 c 2,12,-1
 750 1534 l 1,13,-1
 742 1482 l 1,14,-1
 660 1482 l 2,15,16
 456 1482 456 1482 416 1238 c 2,17,-1
 384 1040 l 1,18,-1
 640 1040 l 1,19,-1
 632 988 l 1,20,-1
 376 988 l 1,21,-1
 192 -120 l 2,22,23
 130 -496 130 -496 -134 -496 c 0,24,25
 -156 -496 -156 -496 -188 -492 c 128,-1,26
 -220 -488 -220 -488 -228 -488 c 1,27,-1
 -218 -436 l 1,0,1
EndSplineSet
EndChar

StartChar: uni0194
Encoding: 404 404 342
Width: 1136
GlyphClass: 2
Flags: W
LayerCount: 2
Fore
SplineSet
144 1470 m 1,0,-1
 214 1470 l 1,1,-1
 504 270 l 1,2,-1
 516 210 l 1,3,-1
 518 210 l 1,4,-1
 546 270 l 1,5,-1
 1228 1470 l 1,6,-1
 1294 1470 l 1,7,-1
 558 170 l 1,8,9
 632 40 632 40 663 -47 c 128,-1,10
 694 -134 694 -134 678 -232 c 0,11,12
 660 -340 660 -340 582 -418 c 128,-1,13
 504 -496 504 -496 400 -496 c 0,14,15
 298 -496 298 -496 245 -425 c 128,-1,16
 192 -354 192 -354 212 -232 c 0,17,18
 238 -80 238 -80 458 170 c 1,19,-1
 144 1470 l 1,0,-1
276 -230 m 0,20,21
 260 -322 260 -322 298 -382 c 128,-1,22
 336 -442 336 -442 410 -442 c 0,23,24
 488 -442 488 -442 546 -378 c 128,-1,25
 604 -314 604 -314 618 -230 c 0,26,27
 632 -144 632 -144 601 -63 c 128,-1,28
 570 18 570 18 502 124 c 1,29,30
 300 -88 300 -88 276 -230 c 0,20,21
EndSplineSet
EndChar

StartChar: uni0195
Encoding: 405 405 343
Width: 1738
GlyphClass: 2
Flags: W
LayerCount: 2
Fore
SplineSet
96 0 m 1,0,-1
 350 1534 l 1,1,-1
 410 1534 l 1,2,-1
 292 822 l 1,3,4
 346 922 346 922 457 1000 c 128,-1,5
 568 1078 568 1078 694 1078 c 0,6,7
 752 1078 752 1078 798 1062 c 128,-1,8
 844 1046 844 1046 888 1006 c 128,-1,9
 932 966 932 966 948 882 c 128,-1,10
 964 798 964 798 944 676 c 2,11,-1
 882 308 l 2,12,13
 860 170 860 170 918 91 c 128,-1,14
 976 12 976 12 1114 12 c 0,15,16
 1418 12 1418 12 1470 322 c 2,17,-1
 1588 1040 l 1,18,-1
 1646 1040 l 1,19,-1
 1528 322 l 2,20,21
 1468 -38 1468 -38 1106 -38 c 0,22,23
 964 -38 964 -38 880 42 c 128,-1,24
 796 122 796 122 824 298 c 2,25,-1
 884 658 l 2,26,27
 944 1026 944 1026 674 1026 c 0,28,29
 538 1026 538 1026 412 909 c 128,-1,30
 286 792 286 792 262 640 c 0,31,32
 262 636 262 636 260 634 c 2,33,-1
 156 0 l 1,34,-1
 96 0 l 1,0,-1
EndSplineSet
EndChar

StartChar: uni0196
Encoding: 406 406 344
Width: 628
GlyphClass: 2
Flags: W
LayerCount: 2
Fore
SplineSet
176 308 m 2,0,-1
 368 1470 l 1,1,-1
 428 1470 l 1,2,-1
 236 310 l 2,3,4
 188 16 188 16 378 16 c 0,5,6
 460 16 460 16 510 22 c 1,7,-1
 502 -32 l 1,8,9
 450 -38 450 -38 366 -38 c 0,10,11
 240 -38 240 -38 193 45 c 128,-1,12
 146 128 146 128 176 308 c 2,0,-1
EndSplineSet
EndChar

StartChar: uni0197
Encoding: 407 407 345
Width: 548
GlyphClass: 2
Flags: W
LayerCount: 2
Fore
SplineSet
108 732 m 1,0,-1
 116 782 l 1,1,-1
 280 782 l 1,2,-1
 394 1470 l 1,3,-1
 452 1470 l 1,4,-1
 338 782 l 1,5,-1
 506 782 l 1,6,-1
 498 732 l 1,7,-1
 330 732 l 1,8,-1
 210 0 l 1,9,-1
 150 0 l 1,10,-1
 272 732 l 1,11,-1
 108 732 l 1,0,-1
EndSplineSet
EndChar

StartChar: uni0198
Encoding: 408 408 346
Width: 1228
GlyphClass: 2
Flags: W
LayerCount: 2
Fore
SplineSet
138 0 m 1,0,-1
 382 1470 l 1,1,-1
 442 1470 l 1,2,-1
 290 562 l 1,3,-1
 294 562 l 1,4,-1
 1168 1422 l 2,5,6
 1258 1510 1258 1510 1376 1510 c 0,7,8
 1424 1510 1424 1510 1472 1500 c 1,9,-1
 1462 1446 l 1,10,11
 1416 1456 1416 1456 1370 1456 c 0,12,13
 1292 1456 1292 1456 1222 1390 c 2,14,-1
 664 842 l 1,15,-1
 1114 0 l 1,16,-1
 1030 0 l 1,17,-1
 614 794 l 1,18,-1
 274 466 l 1,19,-1
 198 0 l 1,20,-1
 138 0 l 1,0,-1
EndSplineSet
EndChar

StartChar: uni0199
Encoding: 409 409 347
Width: 928
GlyphClass: 2
Flags: W
LayerCount: 2
Fore
SplineSet
98 0 m 1,0,-1
 304 1248 l 2,1,2
 326 1384 326 1384 413 1463 c 128,-1,3
 500 1542 500 1542 636 1542 c 0,4,5
 644 1542 644 1542 732 1536 c 1,6,-1
 724 1484 l 1,7,8
 678 1490 678 1490 636 1490 c 0,9,10
 530 1490 530 1490 456 1429 c 128,-1,11
 382 1368 382 1368 362 1244 c 2,12,-1
 222 400 l 1,13,-1
 870 1040 l 1,14,-1
 948 1040 l 1,15,-1
 536 632 l 1,16,-1
 830 0 l 1,17,-1
 758 0 l 1,18,-1
 486 584 l 1,19,-1
 208 314 l 1,20,-1
 156 0 l 1,21,-1
 98 0 l 1,0,-1
EndSplineSet
EndChar

StartChar: uni019A
Encoding: 410 410 348
Width: 460
GlyphClass: 2
Flags: W
LayerCount: 2
Fore
SplineSet
68 740 m 1,0,-1
 78 792 l 1,1,-1
 238 792 l 1,2,-1
 362 1534 l 1,3,-1
 420 1534 l 1,4,-1
 296 792 l 1,5,-1
 462 792 l 1,6,-1
 454 740 l 1,7,-1
 288 740 l 1,8,-1
 166 0 l 1,9,-1
 108 0 l 1,10,-1
 230 740 l 1,11,-1
 68 740 l 1,0,-1
EndSplineSet
EndChar

StartChar: uni019B
Encoding: 411 411 349
Width: 882
GlyphClass: 2
Flags: W
LayerCount: 2
Fore
SplineSet
-68 0 m 1,0,-1
 500 1096 l 1,1,-1
 478 1232 l 1,2,-1
 196 1046 l 1,3,-1
 174 1090 l 1,4,-1
 468 1280 l 1,5,6
 418 1480 418 1480 308 1480 c 2,7,-1
 272 1480 l 1,8,-1
 280 1532 l 1,9,-1
 328 1532 l 2,10,11
 460 1532 460 1532 520 1312 c 1,12,-1
 740 1460 l 1,13,-1
 764 1418 l 1,14,-1
 530 1266 l 1,15,-1
 762 0 l 1,16,-1
 696 0 l 1,17,-1
 566 748 l 2,18,19
 542 870 542 870 520 1014 c 1,20,-1
 516 1014 l 1,21,22
 456 880 456 880 386 754 c 2,23,-1
 -2 0 l 1,24,-1
 -68 0 l 1,0,-1
EndSplineSet
EndChar

StartChar: uni019C
Encoding: 412 412 350
Width: 1848
GlyphClass: 2
Flags: W
LayerCount: 2
Fore
SplineSet
200 370 m 2,0,-1
 382 1470 l 1,1,-1
 442 1470 l 1,2,-1
 262 384 l 2,3,4
 232 208 232 208 273 111 c 128,-1,5
 314 14 314 14 456 14 c 0,6,7
 594 14 594 14 718 129 c 128,-1,8
 842 244 842 244 872 422 c 2,9,-1
 1044 1470 l 1,10,-1
 1106 1470 l 1,11,-1
 926 386 l 2,12,13
 900 224 900 224 944 119 c 128,-1,14
 988 14 988 14 1130 14 c 256,15,16
 1272 14 1272 14 1389 127 c 128,-1,17
 1506 240 1506 240 1534 408 c 2,18,-1
 1710 1470 l 1,19,-1
 1770 1470 l 1,20,-1
 1526 0 l 1,21,-1
 1466 0 l 1,22,-1
 1498 194 l 1,23,-1
 1496 194 l 1,24,25
 1432 82 1432 82 1327 22 c 128,-1,26
 1222 -38 1222 -38 1108 -38 c 0,27,28
 972 -38 972 -38 913 46 c 128,-1,29
 854 130 854 130 858 246 c 1,30,31
 838 168 838 168 720 65 c 128,-1,32
 602 -38 602 -38 434 -38 c 0,33,34
 132 -38 132 -38 200 370 c 2,0,-1
EndSplineSet
EndChar

StartChar: uni019D
Encoding: 413 413 351
Width: 1476
GlyphClass: 2
Flags: W
LayerCount: 2
Fore
SplineSet
402 1470 m 1,0,-1
 476 1470 l 1,1,-1
 994 332 l 1,2,-1
 1110 86 l 1,3,-1
 1116 86 l 1,4,5
 1130 230 1130 230 1164 434 c 2,6,-1
 1334 1470 l 1,7,-1
 1398 1470 l 1,8,-1
 1154 0 l 1,9,-1
 1078 0 l 1,10,-1
 446 1384 l 1,11,-1
 440 1384 l 1,12,13
 420 1212 420 1212 384 996 c 2,14,-1
 208 -68 l 2,15,16
 172 -282 172 -282 95 -389 c 128,-1,17
 18 -496 18 -496 -142 -496 c 0,18,19
 -162 -496 -162 -496 -196 -490 c 1,20,-1
 -186 -438 l 1,21,22
 -156 -442 -156 -442 -136 -442 c 0,23,24
 -78 -442 -78 -442 -33 -423 c 128,-1,25
 12 -404 12 -404 40 -372 c 128,-1,26
 68 -340 68 -340 91 -287 c 128,-1,27
 114 -234 114 -234 125 -186 c 128,-1,28
 136 -138 136 -138 148 -64 c 2,29,-1
 402 1470 l 1,0,-1
EndSplineSet
EndChar

StartChar: uni019E
Encoding: 414 414 352
Width: 1102
GlyphClass: 2
Flags: W
LayerCount: 2
Fore
SplineSet
88 0 m 1,0,-1
 260 1040 l 1,1,-1
 314 1040 l 1,2,-1
 278 818 l 1,3,-1
 282 818 l 1,4,5
 332 916 332 916 443 997 c 128,-1,6
 554 1078 554 1078 686 1078 c 0,7,8
 742 1078 742 1078 788 1062 c 128,-1,9
 834 1046 834 1046 877 1005 c 128,-1,10
 920 964 920 964 937 880 c 128,-1,11
 954 796 954 796 934 676 c 2,12,-1
 742 -488 l 1,13,-1
 682 -488 l 1,14,-1
 870 658 l 2,15,16
 930 1026 930 1026 668 1026 c 0,17,18
 532 1026 532 1026 404 911 c 128,-1,19
 276 796 276 796 252 646 c 0,20,21
 252 642 252 642 250 640 c 2,22,-1
 144 0 l 1,23,-1
 88 0 l 1,0,-1
EndSplineSet
EndChar

StartChar: uni019F
Encoding: 415 415 353
Width: 1356
GlyphClass: 2
Flags: W
LayerCount: 2
Fore
SplineSet
144 736 m 256,0,1
 202 1086 202 1086 388 1298 c 128,-1,2
 574 1510 574 1510 834 1510 c 256,3,4
 1094 1510 1094 1510 1210 1297 c 128,-1,5
 1326 1084 1326 1084 1268 734 c 0,6,7
 1210 386 1210 386 1025 174 c 128,-1,8
 840 -38 840 -38 578 -38 c 256,9,10
 316 -38 316 -38 201 174 c 128,-1,11
 86 386 86 386 144 736 c 256,0,1
1202 710 m 1,12,-1
 204 710 l 1,13,14
 158 400 158 400 258 208 c 128,-1,15
 358 16 358 16 588 16 c 256,16,17
 818 16 818 16 981 206 c 128,-1,18
 1144 396 1144 396 1202 710 c 1,12,-1
212 760 m 1,19,-1
 1210 760 l 1,20,21
 1258 1080 1258 1080 1155 1267 c 128,-1,22
 1052 1454 1052 1454 826 1454 c 0,23,24
 602 1454 602 1454 435 1267 c 128,-1,25
 268 1080 268 1080 212 760 c 1,19,-1
EndSplineSet
EndChar

StartChar: uni01A2
Encoding: 418 418 356
Width: 1946
GlyphClass: 2
Flags: W
LayerCount: 2
Fore
SplineSet
142 720 m 0,0,1
 204 1092 204 1092 407 1301 c 128,-1,2
 610 1510 610 1510 846 1510 c 0,3,4
 968 1510 968 1510 1134 1469 c 128,-1,5
 1300 1428 1300 1428 1482 1428 c 0,6,7
 1588 1428 1588 1428 1866 1470 c 1,8,-1
 1622 0 l 1,9,-1
 1560 0 l 1,10,-1
 1792 1410 l 1,11,12
 1594 1378 1594 1378 1472 1378 c 0,13,14
 1304 1378 1304 1378 1172 1402 c 1,15,-1
 954 92 l 1,16,17
 794 -38 794 -38 590 -38 c 0,18,19
 350 -38 350 -38 218 171 c 128,-1,20
 86 380 86 380 142 720 c 0,0,1
206 720 m 0,21,22
 152 396 152 396 276 206 c 128,-1,23
 400 16 400 16 600 16 c 0,24,25
 674 16 674 16 741 35 c 128,-1,26
 808 54 808 54 831 68 c 128,-1,27
 854 82 854 82 900 112 c 1,28,-1
 1116 1414 l 1,29,30
 1102 1418 1102 1418 1074 1426 c 128,-1,31
 1046 1434 1046 1434 1030 1437 c 128,-1,32
 1014 1440 1014 1440 985 1446 c 128,-1,33
 956 1452 956 1452 921 1454 c 128,-1,34
 886 1456 886 1456 838 1456 c 0,35,36
 750 1456 750 1456 656 1413 c 128,-1,37
 562 1370 562 1370 471 1286 c 128,-1,38
 380 1202 380 1202 308 1054 c 128,-1,39
 236 906 236 906 206 720 c 0,21,22
EndSplineSet
EndChar

StartChar: uni01A3
Encoding: 419 419 357
Width: 1596
GlyphClass: 2
Flags: W
LayerCount: 2
Fore
SplineSet
100 518 m 0,0,1
 144 788 144 788 289 933 c 128,-1,2
 434 1078 434 1078 632 1078 c 0,3,4
 728 1078 728 1078 882 1048 c 128,-1,5
 1036 1018 1036 1018 1200 1018 c 0,6,7
 1340 1018 1340 1018 1498 1046 c 1,8,-1
 1324 0 l 1,9,-1
 1268 0 l 1,10,-1
 1432 990 l 1,11,12
 1276 966 1276 966 1192 966 c 0,13,14
 1024 966 1024 966 968 978 c 1,15,-1
 834 172 l 1,16,17
 680 -38 680 -38 448 -38 c 0,18,19
 262 -38 262 -38 158 103 c 128,-1,20
 54 244 54 244 100 518 c 0,0,1
156 518 m 0,21,22
 118 292 118 292 200 152 c 128,-1,23
 282 12 282 12 456 12 c 0,24,25
 650 12 650 12 782 194 c 1,26,-1
 914 986 l 1,27,28
 736 1026 736 1026 624 1026 c 0,29,30
 432 1026 432 1026 312 880 c 128,-1,31
 192 734 192 734 156 518 c 0,21,22
EndSplineSet
EndChar

StartChar: uni01A5
Encoding: 421 421 359
Width: 1100
GlyphClass: 2
Flags: W
LayerCount: 2
Fore
SplineSet
238 524 m 0,0,1
 200 296 200 296 274 154 c 128,-1,2
 348 12 348 12 498 12 c 0,3,4
 652 12 652 12 774 148 c 128,-1,5
 896 284 896 284 936 520 c 0,6,7
 972 740 972 740 901 883 c 128,-1,8
 830 1026 830 1026 666 1026 c 0,9,10
 522 1026 522 1026 398 885 c 128,-1,11
 274 744 274 744 238 524 c 0,0,1
14 -488 m 1,12,-1
 302 1244 l 2,13,14
 328 1402 328 1402 421 1469 c 128,-1,15
 514 1536 514 1536 622 1536 c 0,16,17
 636 1536 636 1536 736 1530 c 1,18,-1
 726 1478 l 1,19,20
 676 1484 676 1484 622 1484 c 0,21,22
 504 1484 504 1484 439 1410 c 128,-1,23
 374 1336 374 1336 358 1238 c 2,24,-1
 282 776 l 1,25,26
 342 908 342 908 449 993 c 128,-1,27
 556 1078 556 1078 680 1078 c 0,28,29
 864 1078 864 1078 947 926 c 128,-1,30
 1030 774 1030 774 988 520 c 0,31,32
 944 252 944 252 806 107 c 128,-1,33
 668 -38 668 -38 490 -38 c 0,34,35
 364 -38 364 -38 291 45 c 128,-1,36
 218 128 218 128 198 258 c 1,37,-1
 74 -488 l 1,38,-1
 14 -488 l 1,12,-1
EndSplineSet
EndChar

StartChar: uni01A6
Encoding: 422 422 360
Width: 1146
GlyphClass: 2
Flags: W
LayerCount: 2
Fore
SplineSet
250 548 m 1,0,-1
 582 548 l 2,1,2
 650 548 650 548 711 563 c 128,-1,3
 772 578 772 578 834 610 c 128,-1,4
 896 642 896 642 939 707 c 128,-1,5
 982 772 982 772 996 862 c 0,6,7
 1018 996 1018 996 948 1078 c 128,-1,8
 878 1160 878 1160 690 1160 c 2,9,-1
 352 1160 l 1,10,-1
 250 548 l 1,0,-1
98 0 m 1,11,-1
 340 1470 l 1,12,-1
 404 1470 l 1,13,-1
 360 1212 l 1,14,-1
 722 1212 l 2,15,16
 922 1212 922 1212 1001 1114 c 128,-1,17
 1080 1016 1080 1016 1056 864 c 0,18,19
 1042 776 1042 776 999 707 c 128,-1,20
 956 638 956 638 910 604 c 128,-1,21
 864 570 864 570 803 546 c 128,-1,22
 742 522 742 522 711 516 c 128,-1,23
 680 510 680 510 646 508 c 1,24,25
 722 478 722 478 756 416 c 128,-1,26
 790 354 790 354 814 248 c 0,27,28
 820 214 820 214 832 155 c 128,-1,29
 844 96 844 96 852 66 c 128,-1,30
 860 36 860 36 869 -7 c 128,-1,31
 878 -50 878 -50 889 -85 c 128,-1,32
 900 -120 900 -120 912 -156 c 1,33,-1
 842 -156 l 1,34,35
 818 -84 818 -84 790 53 c 128,-1,36
 762 190 762 190 742 270 c 0,37,38
 714 380 714 380 653 437 c 128,-1,39
 592 494 592 494 476 494 c 2,40,-1
 242 494 l 1,41,-1
 160 0 l 1,42,-1
 98 0 l 1,11,-1
EndSplineSet
EndChar

StartChar: uni01A7
Encoding: 423 423 361
Width: 1186
GlyphClass: 2
Flags: W
LayerCount: 2
Fore
SplineSet
74 368 m 0,0,1
 86 442 86 442 124 503 c 128,-1,2
 162 564 162 564 205 601 c 128,-1,3
 248 638 248 638 324 676 c 128,-1,4
 400 714 400 714 450 731 c 128,-1,5
 500 748 500 748 596 780 c 0,6,7
 702 812 702 812 765 837 c 128,-1,8
 828 862 828 862 906 906 c 128,-1,9
 984 950 984 950 1027 1009 c 128,-1,10
 1070 1068 1070 1068 1084 1146 c 0,11,12
 1108 1288 1108 1288 1018 1371 c 128,-1,13
 928 1454 928 1454 746 1454 c 0,14,15
 494 1454 494 1454 324 1252 c 1,16,-1
 272 1274 l 1,17,18
 346 1370 346 1370 474 1440 c 128,-1,19
 602 1510 602 1510 750 1510 c 0,20,21
 964 1510 964 1510 1070 1412 c 128,-1,22
 1176 1314 1176 1314 1148 1146 c 0,23,24
 1132 1054 1132 1054 1084 985 c 128,-1,25
 1036 916 1036 916 951 868 c 128,-1,26
 866 820 866 820 798 793 c 128,-1,27
 730 766 730 766 616 730 c 0,28,29
 528 702 528 702 481 686 c 128,-1,30
 434 670 434 670 364 636 c 128,-1,31
 294 602 294 602 254 569 c 128,-1,32
 214 536 214 536 180 483 c 128,-1,33
 146 430 146 430 134 366 c 0,34,35
 106 202 106 202 209 109 c 128,-1,36
 312 16 312 16 496 16 c 0,37,38
 632 16 632 16 760 83 c 128,-1,39
 888 150 888 150 970 254 c 1,40,-1
 1022 224 l 1,41,42
 926 106 926 106 790 34 c 128,-1,43
 654 -38 654 -38 492 -38 c 0,44,45
 260 -38 260 -38 151 69 c 128,-1,46
 42 176 42 176 74 368 c 0,0,1
EndSplineSet
EndChar

StartChar: uni01A8
Encoding: 424 424 362
Width: 916
GlyphClass: 2
Flags: W
LayerCount: 2
Fore
SplineSet
36 240 m 0,0,1
 44 294 44 294 76 340 c 128,-1,2
 108 386 108 386 145 415 c 128,-1,3
 182 444 182 444 243 472 c 128,-1,4
 304 500 304 500 347 514 c 128,-1,5
 390 528 390 528 458 546 c 0,6,7
 598 586 598 586 683 641 c 128,-1,8
 768 696 768 696 784 802 c 0,9,10
 800 900 800 900 730 963 c 128,-1,11
 660 1026 660 1026 530 1026 c 0,12,13
 434 1026 434 1026 350 977 c 128,-1,14
 266 928 266 928 208 848 c 1,15,-1
 168 876 l 1,16,17
 228 962 228 962 327 1020 c 128,-1,18
 426 1078 426 1078 538 1078 c 0,19,20
 688 1078 688 1078 775 1006 c 128,-1,21
 862 934 862 934 842 802 c 0,22,23
 830 734 830 734 796 683 c 128,-1,24
 762 632 762 632 703 598 c 128,-1,25
 644 564 644 564 598 546 c 128,-1,26
 552 528 552 528 474 504 c 0,27,28
 410 484 410 484 388 477 c 128,-1,29
 366 470 366 470 310 450 c 128,-1,30
 254 430 254 430 229 414 c 128,-1,31
 204 398 204 398 170 371 c 128,-1,32
 136 344 136 344 118 311 c 128,-1,33
 100 278 100 278 94 240 c 0,34,35
 78 140 78 140 150 76 c 128,-1,36
 222 12 222 12 362 12 c 0,37,38
 464 12 464 12 559 62 c 128,-1,39
 654 112 654 112 718 198 c 1,40,-1
 760 170 l 1,41,42
 606 -38 606 -38 354 -38 c 0,43,44
 180 -38 180 -38 98 42 c 128,-1,45
 16 122 16 122 36 240 c 0,0,1
EndSplineSet
EndChar

StartChar: uni01A9
Encoding: 425 425 363
Width: 1178
GlyphClass: 2
Flags: W
LayerCount: 2
Fore
SplineSet
88 0 m 1,0,-1
 96 50 l 1,1,-1
 772 734 l 1,2,-1
 324 1420 l 1,3,-1
 332 1470 l 1,4,-1
 1160 1470 l 1,5,-1
 1152 1416 l 1,6,-1
 398 1416 l 1,7,-1
 846 734 l 1,8,-1
 174 54 l 1,9,-1
 938 54 l 1,10,-1
 928 0 l 1,11,-1
 88 0 l 1,0,-1
EndSplineSet
EndChar

StartChar: uni01AA
Encoding: 426 426 364
Width: 812
GlyphClass: 2
Flags: W
LayerCount: 2
Fore
SplineSet
112 1252 m 0,0,1
 98 1162 98 1162 149 1108 c 128,-1,2
 200 1054 200 1054 292 1054 c 0,3,4
 440 1054 440 1054 552 1146 c 1,5,6
 560 1196 560 1196 559 1243 c 128,-1,7
 558 1290 558 1290 543 1342 c 128,-1,8
 528 1394 528 1394 482 1425 c 128,-1,9
 436 1456 436 1456 362 1456 c 0,10,11
 270 1456 270 1456 199 1401 c 128,-1,12
 128 1346 128 1346 112 1252 c 0,0,1
56 1252 m 0,13,14
 76 1374 76 1374 166 1442 c 128,-1,15
 256 1510 256 1510 368 1510 c 0,16,17
 518 1510 518 1510 576 1406 c 128,-1,18
 634 1302 634 1302 606 1136 c 2,19,-1
 384 -204 l 2,20,21
 364 -324 364 -324 397 -383 c 128,-1,22
 430 -442 430 -442 540 -442 c 0,23,24
 546 -442 546 -442 620 -436 c 1,25,-1
 610 -490 l 1,26,27
 536 -496 536 -496 526 -496 c 0,28,29
 278 -496 278 -496 326 -204 c 2,30,-1
 540 1082 l 1,31,32
 442 1004 442 1004 278 1004 c 0,33,34
 170 1004 170 1004 104 1073 c 128,-1,35
 38 1142 38 1142 56 1252 c 0,13,14
EndSplineSet
EndChar

StartChar: uni01AB
Encoding: 427 427 365
Width: 720
GlyphClass: 2
Flags: W
LayerCount: 2
Fore
SplineSet
124 988 m 1,0,-1
 132 1040 l 1,1,-1
 328 1040 l 1,2,-1
 388 1402 l 1,3,-1
 448 1402 l 1,4,-1
 388 1040 l 1,5,-1
 632 1040 l 1,6,-1
 624 988 l 1,7,-1
 380 988 l 1,8,-1
 262 274 l 2,9,10
 242 156 242 156 277 104 c 128,-1,11
 312 52 312 52 410 52 c 0,12,13
 514 52 514 52 556 60 c 1,14,-1
 526 -118 l 2,15,16
 492 -318 492 -318 416 -407 c 128,-1,17
 340 -496 340 -496 202 -496 c 0,18,19
 190 -496 190 -496 178 -495 c 128,-1,20
 166 -494 166 -494 153 -491 c 128,-1,21
 140 -488 140 -488 134 -488 c 1,22,-1
 142 -436 l 1,23,24
 200 -442 200 -442 210 -442 c 0,25,26
 324 -442 324 -442 383 -373 c 128,-1,27
 442 -304 442 -304 472 -118 c 2,28,-1
 492 2 l 1,29,30
 472 0 472 0 388 0 c 0,31,32
 270 4 270 4 224 66 c 128,-1,33
 178 128 178 128 200 262 c 2,34,-1
 320 988 l 1,35,-1
 124 988 l 1,0,-1
EndSplineSet
EndChar

StartChar: uni01AC
Encoding: 428 428 366
Width: 1082
GlyphClass: 2
Flags: W
LayerCount: 2
Fore
SplineSet
106 1260 m 0,0,1
 124 1364 124 1364 206 1417 c 128,-1,2
 288 1470 288 1470 458 1470 c 2,3,-1
 1194 1470 l 1,4,-1
 1186 1416 l 1,5,-1
 724 1416 l 1,6,-1
 488 0 l 1,7,-1
 428 0 l 1,8,-1
 662 1416 l 1,9,-1
 452 1416 l 2,10,11
 316 1416 316 1416 248 1381 c 128,-1,12
 180 1346 180 1346 166 1256 c 0,13,14
 164 1244 164 1244 162 1214 c 1,15,-1
 106 1214 l 1,16,17
 106 1218 106 1218 105 1234 c 128,-1,18
 104 1250 104 1250 106 1260 c 0,0,1
EndSplineSet
EndChar

StartChar: uni01AD
Encoding: 429 429 367
Width: 648
GlyphClass: 2
Flags: W
LayerCount: 2
Fore
SplineSet
124 986 m 1,0,-1
 132 1040 l 1,1,-1
 328 1040 l 1,2,-1
 358 1222 l 2,3,4
 380 1360 380 1360 469 1439 c 128,-1,5
 558 1518 558 1518 694 1518 c 0,6,7
 700 1518 700 1518 788 1512 c 1,8,-1
 778 1458 l 1,9,10
 732 1464 732 1464 688 1464 c 0,11,12
 584 1464 584 1464 511 1403 c 128,-1,13
 438 1342 438 1342 418 1218 c 2,14,-1
 388 1040 l 1,15,-1
 632 1040 l 1,16,-1
 622 986 l 1,17,-1
 380 986 l 1,18,-1
 262 274 l 2,19,20
 242 156 242 156 277 104 c 128,-1,21
 312 52 312 52 412 52 c 2,22,-1
 470 52 l 1,23,-1
 462 0 l 1,24,-1
 396 0 l 2,25,26
 158 0 158 0 200 262 c 2,27,-1
 320 986 l 1,28,-1
 124 986 l 1,0,-1
EndSplineSet
EndChar

StartChar: uni01AE
Encoding: 430 430 368
Width: 1064
GlyphClass: 2
Flags: W
LayerCount: 2
Fore
SplineSet
182 1416 m 1,0,-1
 192 1470 l 1,1,-1
 1178 1470 l 1,2,-1
 1168 1416 l 1,3,-1
 700 1416 l 1,4,-1
 430 -210 l 2,5,6
 410 -334 410 -334 443 -388 c 128,-1,7
 476 -442 476 -442 588 -442 c 0,8,9
 630 -442 630 -442 678 -434 c 1,10,-1
 668 -488 l 1,11,12
 610 -496 610 -496 576 -496 c 0,13,14
 442 -496 442 -496 393 -431 c 128,-1,15
 344 -366 344 -366 370 -208 c 2,16,-1
 638 1416 l 1,17,-1
 182 1416 l 1,0,-1
EndSplineSet
EndChar

StartChar: uni01B1
Encoding: 433 433 371
Width: 1478
GlyphClass: 2
Flags: W
LayerCount: 2
Fore
SplineSet
122 598 m 0,0,1
 194 1036 194 1036 666 1200 c 1,2,-1
 702 1416 l 1,3,-1
 266 1416 l 1,4,-1
 276 1470 l 1,5,-1
 766 1470 l 1,6,-1
 714 1162 l 1,7,8
 492 1098 492 1098 356 948 c 128,-1,9
 220 798 220 798 186 598 c 0,10,11
 144 340 144 340 273 178 c 128,-1,12
 402 16 402 16 650 16 c 256,13,14
 898 16 898 16 1083 180 c 128,-1,15
 1268 344 1268 344 1310 598 c 0,16,17
 1342 796 1342 796 1254 947 c 128,-1,18
 1166 1098 1166 1098 966 1162 c 1,19,-1
 1016 1470 l 1,20,-1
 1508 1470 l 1,21,-1
 1500 1416 l 1,22,-1
 1060 1416 l 1,23,-1
 1024 1200 l 1,24,25
 1442 1036 1442 1036 1370 598 c 0,26,27
 1326 332 1326 332 1131 147 c 128,-1,28
 936 -38 936 -38 642 -38 c 256,29,30
 348 -38 348 -38 213 145 c 128,-1,31
 78 328 78 328 122 598 c 0,0,1
EndSplineSet
EndChar

StartChar: uni01B2
Encoding: 434 434 372
Width: 1402
GlyphClass: 2
Flags: W
LayerCount: 2
Fore
SplineSet
216 470 m 2,0,-1
 382 1470 l 1,1,-1
 442 1470 l 1,2,-1
 274 462 l 2,3,4
 200 16 200 16 616 16 c 0,5,6
 854 16 854 16 1030 239 c 128,-1,7
 1206 462 1206 462 1266 824 c 0,8,9
 1314 1116 1314 1116 1254 1285 c 128,-1,10
 1194 1454 1194 1454 1034 1454 c 0,11,12
 960 1454 960 1454 932 1450 c 1,13,-1
 940 1504 l 1,14,15
 1032 1510 1032 1510 1054 1510 c 0,16,17
 1220 1510 1220 1510 1303 1344 c 128,-1,18
 1386 1178 1386 1178 1328 828 c 0,19,20
 1264 438 1264 438 1071 200 c 128,-1,21
 878 -38 878 -38 606 -38 c 0,22,23
 372 -38 372 -38 272 84 c 128,-1,24
 172 206 172 206 216 470 c 2,0,-1
EndSplineSet
EndChar

StartChar: uni01B3
Encoding: 435 435 373
Width: 1098
GlyphClass: 2
Flags: W
LayerCount: 2
Fore
SplineSet
146 1470 m 1,0,-1
 218 1470 l 1,1,-1
 478 870 l 2,2,3
 494 836 494 836 520 767 c 128,-1,4
 546 698 546 698 562 668 c 1,5,-1
 566 668 l 1,6,7
 578 686 578 686 633 758 c 128,-1,8
 688 830 688 830 716 870 c 2,9,-1
 1102 1388 l 2,10,11
 1192 1510 1192 1510 1332 1510 c 0,12,13
 1354 1510 1354 1510 1386 1506 c 1,14,-1
 1378 1450 l 1,15,16
 1338 1454 1338 1454 1324 1454 c 0,17,18
 1222 1454 1222 1454 1150 1362 c 2,19,-1
 584 608 l 1,20,-1
 482 0 l 1,21,-1
 424 0 l 1,22,-1
 524 608 l 1,23,-1
 146 1470 l 1,0,-1
EndSplineSet
EndChar

StartChar: uni01B4
Encoding: 436 436 374
Width: 888
GlyphClass: 2
Flags: W
LayerCount: 2
Fore
SplineSet
104 1040 m 1,0,-1
 170 1040 l 1,1,-1
 306 280 l 2,2,3
 314 238 314 238 329 152 c 128,-1,4
 344 66 344 66 352 22 c 1,5,-1
 356 22 l 1,6,7
 444 192 444 192 490 286 c 2,8,-1
 820 946 l 2,9,10
 886 1074 886 1074 1020 1074 c 0,11,12
 1024 1074 1024 1074 1076 1068 c 1,13,-1
 1068 1018 l 1,14,15
 1056 1020 1056 1020 1020 1020 c 0,16,17
 970 1020 970 1020 932 989 c 128,-1,18
 894 958 894 958 876 926 c 2,19,-1
 300 -200 l 2,20,21
 220 -352 220 -352 148 -420 c 128,-1,22
 76 -488 76 -488 0 -488 c 2,23,-1
 -52 -488 l 1,24,-1
 -44 -434 l 1,25,-1
 -4 -434 l 2,26,27
 132 -434 132 -434 252 -176 c 2,28,-1
 310 -58 l 1,29,-1
 104 1040 l 1,0,-1
EndSplineSet
EndChar

StartChar: uni01B5
Encoding: 437 437 375
Width: 1208
GlyphClass: 2
Flags: W
LayerCount: 2
Fore
SplineSet
258 704 m 1,0,-1
 268 756 l 1,1,-1
 604 756 l 1,2,-1
 1142 1416 l 1,3,-1
 326 1416 l 1,4,-1
 334 1470 l 1,5,-1
 1222 1470 l 1,6,-1
 1214 1420 l 1,7,-1
 674 756 l 1,8,-1
 1006 756 l 1,9,-1
 998 704 l 1,10,-1
 632 704 l 1,11,-1
 104 54 l 1,12,-1
 1010 54 l 1,13,-1
 1000 0 l 1,14,-1
 24 0 l 1,15,-1
 32 52 l 1,16,-1
 564 704 l 1,17,-1
 258 704 l 1,0,-1
EndSplineSet
EndChar

StartChar: uni01B6
Encoding: 438 438 376
Width: 892
GlyphClass: 2
Flags: W
LayerCount: 2
Fore
SplineSet
-12 0 m 1,0,-1
 -4 46 l 1,1,-1
 388 510 l 1,2,-1
 146 510 l 1,3,-1
 154 558 l 1,4,-1
 428 558 l 1,5,-1
 794 988 l 1,6,-1
 200 988 l 1,7,-1
 210 1040 l 1,8,-1
 870 1040 l 1,9,-1
 864 994 l 1,10,-1
 494 558 l 1,11,-1
 740 558 l 1,12,-1
 732 510 l 1,13,-1
 450 510 l 1,14,-1
 66 52 l 1,15,-1
 730 52 l 1,16,-1
 722 0 l 1,17,-1
 -12 0 l 1,0,-1
EndSplineSet
EndChar

StartChar: uni01B7
Encoding: 439 439 377
Width: 1324
GlyphClass: 2
Flags: W
LayerCount: 2
Fore
SplineSet
-20 -222 m 1,0,-1
 36 -194 l 1,1,2
 76 -304 76 -304 181 -371 c 128,-1,3
 286 -438 286 -438 428 -438 c 0,4,5
 694 -438 694 -438 861 -286 c 128,-1,6
 1028 -134 1028 -134 1070 124 c 0,7,8
 1110 362 1110 362 977 503 c 128,-1,9
 844 644 844 644 520 644 c 2,10,-1
 428 644 l 1,11,-1
 438 706 l 1,12,-1
 1160 1416 l 1,13,-1
 288 1416 l 1,14,-1
 298 1470 l 1,15,-1
 1262 1470 l 1,16,-1
 1256 1436 l 1,17,-1
 498 696 l 1,18,-1
 552 696 l 2,19,20
 878 694 878 694 1028 541 c 128,-1,21
 1178 388 1178 388 1136 126 c 0,22,23
 1088 -164 1088 -164 892 -328 c 128,-1,24
 696 -492 696 -492 420 -492 c 0,25,26
 258 -492 258 -492 142 -415 c 128,-1,27
 26 -338 26 -338 -20 -222 c 1,0,-1
EndSplineSet
EndChar

StartChar: uni01B8
Encoding: 440 440 378
Width: 1324
GlyphClass: 2
Flags: W
LayerCount: 2
Fore
SplineSet
46 126 m 0,0,1
 90 388 90 388 293 542 c 128,-1,2
 496 696 496 696 816 696 c 2,3,-1
 868 696 l 1,4,-1
 360 1436 l 1,5,-1
 366 1470 l 1,6,-1
 1328 1470 l 1,7,-1
 1320 1416 l 1,8,-1
 446 1416 l 1,9,-1
 934 706 l 1,10,-1
 922 644 l 1,11,-1
 832 644 l 2,12,13
 506 644 506 644 327 503 c 128,-1,14
 148 362 148 362 110 124 c 0,15,16
 68 -134 68 -134 184 -286 c 128,-1,17
 300 -438 300 -438 568 -438 c 0,18,19
 712 -438 712 -438 837 -371 c 128,-1,20
 962 -304 962 -304 1038 -194 c 1,21,-1
 1086 -222 l 1,22,23
 1004 -338 1004 -338 862 -415 c 128,-1,24
 720 -492 720 -492 556 -492 c 0,25,26
 280 -492 280 -492 139 -328 c 128,-1,27
 -2 -164 -2 -164 46 126 c 0,0,1
EndSplineSet
EndChar

StartChar: uni01B9
Encoding: 441 441 379
Width: 996
GlyphClass: 2
Flags: W
LayerCount: 2
Fore
SplineSet
16 -40 m 0,0,1
 52 176 52 176 208 291 c 128,-1,2
 364 406 364 406 586 406 c 2,3,-1
 666 406 l 1,4,-1
 230 994 l 1,5,-1
 238 1040 l 1,6,-1
 936 1040 l 1,7,-1
 926 988 l 1,8,-1
 308 988 l 1,9,-1
 736 402 l 1,10,-1
 730 358 l 1,11,-1
 594 358 l 2,12,13
 378 358 378 358 243 253 c 128,-1,14
 108 148 108 148 76 -40 c 0,15,16
 48 -214 48 -214 123 -329 c 128,-1,17
 198 -444 198 -444 362 -444 c 0,18,19
 574 -444 574 -444 722 -250 c 1,20,-1
 764 -274 l 1,21,22
 604 -496 604 -496 352 -496 c 0,23,24
 168 -496 168 -496 75 -371 c 128,-1,25
 -18 -246 -18 -246 16 -40 c 0,0,1
EndSplineSet
EndChar

StartChar: uni01BA
Encoding: 442 442 380
Width: 888
GlyphClass: 2
Flags: W
LayerCount: 2
Fore
SplineSet
-20 -252 m 0,0,1
 -6 -168 -6 -168 61 -107 c 128,-1,2
 128 -46 128 -46 215 -7 c 128,-1,3
 302 32 302 32 388 70 c 128,-1,4
 474 108 474 108 539 167 c 128,-1,5
 604 226 604 226 618 306 c 0,6,7
 650 494 650 494 336 494 c 2,8,-1
 268 494 l 1,9,-1
 276 542 l 1,10,-1
 752 988 l 1,11,-1
 196 988 l 1,12,-1
 204 1040 l 1,13,-1
 834 1040 l 1,14,-1
 826 996 l 1,15,-1
 338 538 l 1,16,-1
 378 538 l 2,17,18
 552 536 552 536 625 474 c 128,-1,19
 698 412 698 412 680 306 c 0,20,21
 666 218 666 218 598 153 c 128,-1,22
 530 88 530 88 443 47 c 128,-1,23
 356 6 356 6 271 -31 c 128,-1,24
 186 -68 186 -68 121 -122 c 128,-1,25
 56 -176 56 -176 44 -248 c 0,26,27
 30 -330 30 -330 75 -377 c 128,-1,28
 120 -424 120 -424 220 -424 c 0,29,30
 286 -424 286 -424 386 -410 c 1,31,-1
 376 -462 l 1,32,33
 292 -476 292 -476 204 -476 c 0,34,35
 84 -476 84 -476 23 -417 c 128,-1,36
 -38 -358 -38 -358 -20 -252 c 0,0,1
EndSplineSet
EndChar

StartChar: uni01BB
Encoding: 443 443 381
Width: 1082
GlyphClass: 2
Flags: W
LayerCount: 2
Fore
SplineSet
264 696 m 1,0,-1
 274 748 l 1,1,-1
 720 748 l 1,2,3
 930 934 930 934 960 1118 c 0,4,5
 988 1282 988 1282 908 1369 c 128,-1,6
 828 1456 828 1456 674 1456 c 0,7,8
 544 1456 544 1456 440 1376 c 128,-1,9
 336 1296 336 1296 274 1156 c 1,10,-1
 218 1172 l 1,11,12
 284 1324 284 1324 407 1417 c 128,-1,13
 530 1510 530 1510 690 1510 c 0,14,15
 866 1510 866 1510 959 1408 c 128,-1,16
 1052 1306 1052 1306 1020 1118 c 0,17,18
 990 932 990 932 796 748 c 1,19,-1
 1022 748 l 1,20,-1
 1014 696 l 1,21,-1
 746 696 l 1,22,23
 712 668 712 668 636 605 c 128,-1,24
 560 542 560 542 531 517 c 128,-1,25
 502 492 502 492 443 441 c 128,-1,26
 384 390 384 390 359 367 c 128,-1,27
 334 344 334 344 292 303 c 128,-1,28
 250 262 250 262 229 237 c 128,-1,29
 208 212 208 212 182 178 c 128,-1,30
 156 144 156 144 139 115 c 128,-1,31
 122 86 122 86 110 54 c 1,32,-1
 844 54 l 1,33,-1
 836 0 l 1,34,-1
 30 0 l 1,35,36
 52 128 52 128 201 283 c 128,-1,37
 350 438 350 438 662 696 c 1,38,-1
 264 696 l 1,0,-1
EndSplineSet
EndChar

StartChar: uni01BC
Encoding: 444 444 382
Width: 1020
GlyphClass: 2
Flags: W
LayerCount: 2
Fore
SplineSet
38 194 m 1,0,-1
 94 222 l 1,1,2
 160 14 160 14 394 14 c 0,3,4
 556 14 556 14 669 121 c 128,-1,5
 782 228 782 228 812 404 c 0,6,7
 840 570 840 570 742 687 c 128,-1,8
 644 804 644 804 400 804 c 0,9,10
 316 804 316 804 236 792 c 1,11,-1
 406 1416 l 1,12,-1
 296 1416 l 1,13,-1
 304 1470 l 1,14,-1
 976 1470 l 1,15,-1
 968 1416 l 1,16,-1
 460 1416 l 1,17,-1
 312 852 l 1,18,19
 380 856 380 856 436 856 c 0,20,21
 680 856 680 856 794 727 c 128,-1,22
 908 598 908 598 876 404 c 0,23,24
 842 196 842 196 708 79 c 128,-1,25
 574 -38 574 -38 386 -38 c 0,26,27
 112 -38 112 -38 38 194 c 1,0,-1
EndSplineSet
EndChar

StartChar: uni01BD
Encoding: 445 445 383
Width: 830
GlyphClass: 2
Flags: W
LayerCount: 2
Fore
SplineSet
34 130 m 1,0,-1
 86 158 l 1,1,2
 116 94 116 94 174 53 c 128,-1,3
 232 12 232 12 304 12 c 0,4,5
 438 12 438 12 517 85 c 128,-1,6
 596 158 596 158 616 272 c 0,7,8
 638 404 638 404 551 487 c 128,-1,9
 464 570 464 570 310 570 c 0,10,11
 226 570 226 570 202 568 c 1,12,-1
 330 988 l 1,13,-1
 232 988 l 1,14,-1
 240 1040 l 1,15,-1
 758 1040 l 1,16,-1
 748 988 l 1,17,-1
 384 988 l 1,18,-1
 270 622 l 1,19,-1
 322 622 l 2,20,21
 508 622 508 622 603 522 c 128,-1,22
 698 422 698 422 674 272 c 0,23,24
 650 128 650 128 552 45 c 128,-1,25
 454 -38 454 -38 296 -38 c 0,26,27
 108 -38 108 -38 34 130 c 1,0,-1
EndSplineSet
EndChar

StartChar: uni01BE
Encoding: 446 446 384
Width: 826
GlyphClass: 2
Flags: W
LayerCount: 2
Fore
SplineSet
176 988 m 1,0,-1
 184 1040 l 1,1,-1
 330 1040 l 1,2,-1
 386 1380 l 1,3,-1
 440 1380 l 1,4,-1
 384 1040 l 1,5,-1
 666 1040 l 1,6,-1
 658 988 l 1,7,-1
 376 988 l 1,8,-1
 342 778 l 2,9,10
 328 698 328 698 357 634 c 128,-1,11
 386 570 386 570 434 526 c 128,-1,12
 482 482 482 482 530 440 c 128,-1,13
 578 398 578 398 608 340 c 128,-1,14
 638 282 638 282 628 214 c 0,15,16
 586 -38 586 -38 292 -38 c 0,17,18
 110 -38 110 -38 32 126 c 1,19,-1
 80 158 l 1,20,21
 160 12 160 12 300 12 c 0,22,23
 538 12 538 12 570 214 c 0,24,25
 580 270 580 270 550 321 c 128,-1,26
 520 372 520 372 472 415 c 128,-1,27
 424 458 424 458 375 503 c 128,-1,28
 326 548 326 548 299 616 c 128,-1,29
 272 684 272 684 284 766 c 2,30,-1
 322 988 l 1,31,-1
 176 988 l 1,0,-1
EndSplineSet
EndChar

StartChar: uni01BF
Encoding: 447 447 385
Width: 1100
GlyphClass: 2
Flags: W
LayerCount: 2
Fore
SplineSet
14 -488 m 1,0,-1
 268 1040 l 1,1,-1
 328 1040 l 1,2,-1
 312 944 l 1,3,4
 506 1078 506 1078 674 1078 c 0,5,6
 860 1078 860 1078 951 963 c 128,-1,7
 1042 848 1042 848 1008 644 c 0,8,9
 916 94 916 94 156 0 c 1,10,-1
 74 -488 l 1,11,-1
 14 -488 l 1,0,-1
164 52 m 1,12,13
 874 154 874 154 956 642 c 0,14,15
 988 830 988 830 902 928 c 128,-1,16
 816 1026 816 1026 658 1026 c 0,17,18
 496 1026 496 1026 302 882 c 1,19,-1
 164 52 l 1,12,13
EndSplineSet
EndChar

StartChar: uni01C0
Encoding: 448 448 386
Width: 384
GlyphClass: 2
Flags: W
LayerCount: 2
Fore
SplineSet
-4 -454 m 1,0,-1
 344 1646 l 1,1,-1
 402 1646 l 1,2,-1
 56 -454 l 1,3,-1
 -4 -454 l 1,0,-1
EndSplineSet
EndChar

StartChar: uni01C1
Encoding: 449 449 387
Width: 656
GlyphClass: 2
Flags: W
LayerCount: 2
Fore
SplineSet
-6 -454 m 1,0,-1
 342 1646 l 1,1,-1
 404 1646 l 1,2,-1
 56 -454 l 1,3,-1
 -6 -454 l 1,0,-1
270 -454 m 1,4,-1
 616 1646 l 1,5,-1
 678 1646 l 1,6,-1
 330 -454 l 1,7,-1
 270 -454 l 1,4,-1
EndSplineSet
EndChar

StartChar: uni01C2
Encoding: 450 450 388
Width: 562
GlyphClass: 2
Flags: W
LayerCount: 2
Fore
SplineSet
92 870 m 1,0,-1
 100 916 l 1,1,-1
 314 916 l 1,2,-1
 434 1646 l 1,3,-1
 490 1646 l 1,4,-1
 370 916 l 1,5,-1
 582 916 l 1,6,-1
 574 870 l 1,7,-1
 362 870 l 1,8,-1
 296 468 l 1,9,-1
 508 468 l 1,10,-1
 500 420 l 1,11,-1
 288 420 l 1,12,-1
 142 -456 l 1,13,-1
 86 -456 l 1,14,-1
 232 420 l 1,15,-1
 18 420 l 1,16,-1
 26 468 l 1,17,-1
 238 468 l 1,18,-1
 306 870 l 1,19,-1
 92 870 l 1,0,-1
EndSplineSet
EndChar

StartChar: uni01DD
Encoding: 477 477 415
Width: 1048
GlyphClass: 2
Flags: W
LayerCount: 2
Fore
SplineSet
142 486 m 1,0,1
 110 294 110 294 186 153 c 128,-1,2
 262 12 262 12 426 12 c 0,3,4
 596 12 596 12 717 156 c 128,-1,5
 838 300 838 300 874 486 c 1,6,-1
 142 486 l 1,0,1
86 480 m 2,7,-1
 94 536 l 1,8,-1
 882 536 l 1,9,10
 916 738 916 738 841 882 c 128,-1,11
 766 1026 766 1026 590 1026 c 0,12,13
 476 1026 476 1026 377 965 c 128,-1,14
 278 904 278 904 218 818 c 1,15,-1
 172 836 l 1,16,17
 340 1078 340 1078 598 1078 c 0,18,19
 806 1078 806 1078 891 919 c 128,-1,20
 976 760 976 760 936 514 c 0,21,22
 896 274 896 274 753 118 c 128,-1,23
 610 -38 610 -38 418 -38 c 0,24,25
 228 -38 228 -38 140 116 c 128,-1,26
 52 270 52 270 86 480 c 2,7,-1
EndSplineSet
EndChar

StartChar: uni01E4
Encoding: 484 484 422
Width: 1402
GlyphClass: 2
Flags: W
LayerCount: 2
Fore
SplineSet
144 736 m 0,0,1
 202 1084 202 1084 395 1297 c 128,-1,2
 588 1510 588 1510 874 1510 c 0,3,4
 1034 1510 1034 1510 1133 1428 c 128,-1,5
 1232 1346 1232 1346 1266 1236 c 1,6,-1
 1212 1214 l 1,7,8
 1124 1454 1124 1454 864 1454 c 0,9,10
 608 1454 608 1454 435 1256 c 128,-1,11
 262 1058 262 1058 210 736 c 0,12,13
 156 410 156 410 265 213 c 128,-1,14
 374 16 374 16 624 16 c 0,15,16
 802 16 802 16 927 120 c 128,-1,17
 1052 224 1052 224 1114 388 c 1,18,-1
 714 388 l 1,19,-1
 722 436 l 1,20,-1
 1134 436 l 1,21,22
 1152 488 1152 488 1164 558 c 2,23,-1
 1188 702 l 1,24,-1
 718 702 l 1,25,-1
 728 756 l 1,26,-1
 1256 756 l 1,27,-1
 1202 436 l 1,28,-1
 1394 436 l 1,29,-1
 1386 388 l 1,30,-1
 1194 388 l 1,31,-1
 1130 0 l 1,32,-1
 1076 0 l 1,33,-1
 1126 304 l 1,34,35
 1060 158 1060 158 934 60 c 128,-1,36
 808 -38 808 -38 616 -38 c 0,37,38
 334 -38 334 -38 210 173 c 128,-1,39
 86 384 86 384 144 736 c 0,0,1
EndSplineSet
EndChar

StartChar: uni01E5
Encoding: 485 485 423
Width: 1094
GlyphClass: 2
Flags: W
LayerCount: 2
Fore
SplineSet
102 540 m 0,0,1
 142 778 142 778 274 928 c 128,-1,2
 406 1078 406 1078 588 1078 c 0,3,4
 722 1078 722 1078 792 992 c 128,-1,5
 862 906 862 906 882 794 c 1,6,-1
 922 1040 l 1,7,-1
 978 1040 l 1,8,-1
 820 82 l 2,9,10
 796 -62 796 -62 766 -152 c 1,11,-1
 930 -152 l 1,12,-1
 922 -196 l 1,13,-1
 750 -196 l 1,14,15
 688 -346 688 -346 590 -421 c 128,-1,16
 492 -496 492 -496 338 -496 c 0,17,18
 238 -496 238 -496 156 -450 c 128,-1,19
 74 -404 74 -404 32 -328 c 1,20,-1
 82 -298 l 1,21,22
 124 -364 124 -364 194 -404 c 128,-1,23
 264 -444 264 -444 346 -444 c 0,24,25
 582 -444 582 -444 688 -196 c 1,26,-1
 272 -196 l 1,27,-1
 280 -152 l 1,28,-1
 708 -152 l 1,29,30
 738 -70 738 -70 764 80 c 2,31,-1
 796 282 l 1,32,33
 736 164 736 164 640 85 c 128,-1,34
 544 6 544 6 412 6 c 0,35,36
 234 6 234 6 148 155 c 128,-1,37
 62 304 62 304 102 540 c 0,0,1
158 538 m 0,38,39
 122 322 122 322 197 191 c 128,-1,40
 272 60 272 60 420 60 c 0,41,42
 578 60 578 60 690 190 c 128,-1,43
 802 320 802 320 840 546 c 0,44,45
 876 758 876 758 804 892 c 128,-1,46
 732 1026 732 1026 584 1026 c 0,47,48
 424 1026 424 1026 309 888 c 128,-1,49
 194 750 194 750 158 538 c 0,38,39
EndSplineSet
EndChar

StartChar: uni01EF
Encoding: 495 495 433
Width: 996
GlyphClass: 2
Flags: W
LayerCount: 2
Fore
SplineSet
298 1578 m 1,0,-1
 368 1578 l 1,1,-1
 590 1320 l 1,2,-1
 898 1578 l 1,3,-1
 968 1578 l 1,4,-1
 614 1268 l 1,5,-1
 550 1268 l 1,6,-1
 298 1578 l 1,0,-1
-46 -274 m 1,7,-1
 4 -250 l 1,8,9
 86 -444 86 -444 300 -444 c 0,10,11
 466 -444 466 -444 580 -329 c 128,-1,12
 694 -214 694 -214 724 -38 c 0,13,14
 754 148 754 148 653 253 c 128,-1,15
 552 358 552 358 340 358 c 2,16,-1
 200 358 l 1,17,-1
 208 402 l 1,18,-1
 830 988 l 1,19,-1
 212 988 l 1,20,-1
 220 1040 l 1,21,-1
 918 1040 l 1,22,-1
 910 994 l 1,23,-1
 282 408 l 1,24,-1
 364 406 l 2,25,26
 590 402 590 402 704 287 c 128,-1,27
 818 172 818 172 782 -38 c 256,28,29
 748 -248 748 -248 613 -372 c 128,-1,30
 478 -496 478 -496 294 -496 c 0,31,32
 40 -496 40 -496 -46 -274 c 1,7,-1
EndSplineSet
EndChar

StartChar: uni01F6
Encoding: 502 502 440
Width: 2034
GlyphClass: 2
Flags: W
LayerCount: 2
Fore
SplineSet
138 0 m 1,0,-1
 382 1470 l 1,1,-1
 442 1470 l 1,2,-1
 328 786 l 1,3,-1
 1126 786 l 1,4,-1
 1238 1470 l 1,5,-1
 1300 1470 l 1,6,-1
 1114 354 l 2,7,8
 1084 174 1084 174 1167 93 c 128,-1,9
 1250 12 1250 12 1392 12 c 0,10,11
 1528 12 1528 12 1633 102 c 128,-1,12
 1738 192 1738 192 1766 352 c 2,13,-1
 1880 1040 l 1,14,-1
 1942 1040 l 1,15,-1
 1826 344 l 2,16,17
 1796 164 1796 164 1671 63 c 128,-1,18
 1546 -38 1546 -38 1384 -38 c 0,19,20
 1212 -38 1212 -38 1116 55 c 128,-1,21
 1020 148 1020 148 1052 344 c 2,22,-1
 1116 732 l 1,23,-1
 318 732 l 1,24,-1
 198 0 l 1,25,-1
 138 0 l 1,0,-1
EndSplineSet
EndChar

StartChar: uni01F7
Encoding: 503 503 441
Width: 1264
GlyphClass: 2
Flags: W
LayerCount: 2
Fore
SplineSet
58 -484 m 1,0,-1
 382 1470 l 1,1,-1
 446 1470 l 1,2,-1
 414 1282 l 1,3,4
 666 1510 666 1510 896 1510 c 0,5,6
 1092 1510 1092 1510 1177 1368 c 128,-1,7
 1262 1226 1262 1226 1222 992 c 0,8,9
 1202 876 1202 876 1152 769 c 128,-1,10
 1102 662 1102 662 1039 577 c 128,-1,11
 976 492 976 492 885 412 c 128,-1,12
 794 332 794 332 714 277 c 128,-1,13
 634 222 634 222 531 165 c 128,-1,14
 428 108 428 108 360 76 c 128,-1,15
 292 44 292 44 202 4 c 1,16,-1
 122 -484 l 1,17,-1
 58 -484 l 1,0,-1
212 60 m 1,18,19
 292 96 292 96 347 123 c 128,-1,20
 402 150 402 150 501 205 c 128,-1,21
 600 260 600 260 672 312 c 128,-1,22
 744 364 744 364 832 441 c 128,-1,23
 920 518 920 518 981 597 c 128,-1,24
 1042 676 1042 676 1093 779 c 128,-1,25
 1144 882 1144 882 1162 990 c 0,26,27
 1196 1194 1196 1194 1125 1325 c 128,-1,28
 1054 1456 1054 1456 872 1456 c 0,29,30
 758 1456 758 1456 619 1376 c 128,-1,31
 480 1296 480 1296 400 1202 c 1,32,-1
 212 60 l 1,18,19
EndSplineSet
EndChar

StartChar: Aringacute
Encoding: 506 506 444
Width: 1216
GlyphClass: 2
Flags: W
LayerCount: 2
Fore
SplineSet
-88 0 m 1,0,-1
 718 1470 l 1,1,-1
 800 1470 l 1,2,-1
 1118 0 l 1,3,-1
 1046 0 l 1,4,-1
 946 486 l 1,5,-1
 244 486 l 1,6,-1
 -20 0 l 1,7,-1
 -88 0 l 1,0,-1
272 538 m 1,8,-1
 934 538 l 1,9,-1
 794 1200 l 2,10,11
 786 1240 786 1240 771 1311 c 128,-1,12
 756 1382 756 1382 750 1412 c 1,13,-1
 746 1412 l 1,14,15
 658 1246 658 1246 634 1200 c 2,16,-1
 272 538 l 1,8,-1
564 1808 m 256,17,18
 580 1904 580 1904 662 1976 c 0,19,20
 726 2032 726 2032 810 2044 c 1,21,-1
 986 2270 l 1,22,-1
 1092 2270 l 1,23,-1
 880 2044 l 1,24,25
 960 2034 960 2034 1008 1976 c 0,26,27
 1066 1906 1066 1906 1050 1808 c 0,28,29
 1034 1712 1034 1712 955 1641 c 128,-1,30
 876 1570 876 1570 770 1570 c 0,31,32
 666 1570 666 1570 607 1641 c 128,-1,33
 548 1712 548 1712 564 1808 c 256,17,18
618 1808 m 256,34,35
 606 1730 606 1730 650 1675 c 128,-1,36
 694 1620 694 1620 778 1620 c 0,37,38
 860 1620 860 1620 921 1673 c 128,-1,39
 982 1726 982 1726 994 1808 c 0,40,41
 1008 1888 1008 1888 966 1943 c 128,-1,42
 924 1998 924 1998 840 1998 c 0,43,44
 754 1998 754 1998 692 1942 c 128,-1,45
 630 1886 630 1886 618 1808 c 256,34,35
EndSplineSet
EndChar

StartChar: aringacute
Encoding: 507 507 445
Width: 1054
GlyphClass: 2
Flags: W
LayerCount: 2
Fore
SplineSet
42 234 m 0,0,1
 90 518 90 518 504 582 c 0,2,3
 760 624 760 624 852 666 c 1,4,-1
 860 720 l 2,5,6
 882 854 882 854 811 940 c 128,-1,7
 740 1026 740 1026 590 1026 c 0,8,9
 498 1026 498 1026 403 980 c 128,-1,10
 308 934 308 934 236 850 c 1,11,-1
 198 878 l 1,12,13
 266 962 266 962 375 1020 c 128,-1,14
 484 1078 484 1078 598 1078 c 0,15,16
 784 1078 784 1078 863 976 c 128,-1,17
 942 874 942 874 916 714 c 2,18,-1
 798 0 l 1,19,-1
 744 0 l 1,20,-1
 782 226 l 1,21,22
 728 120 728 120 603 41 c 128,-1,23
 478 -38 478 -38 334 -38 c 0,24,25
 178 -38 178 -38 100 38 c 128,-1,26
 22 114 22 114 42 234 c 0,0,1
100 240 m 0,27,28
 84 148 84 148 147 80 c 128,-1,29
 210 12 210 12 346 12 c 0,30,31
 508 12 508 12 644 122 c 128,-1,32
 780 232 780 232 808 406 c 2,33,-1
 844 614 l 1,34,35
 726 570 726 570 498 534 c 0,36,37
 308 504 308 504 214 431 c 128,-1,38
 120 358 120 358 100 240 c 0,27,28
420 1454 m 0,39,40
 436 1550 436 1550 514 1620 c 0,41,42
 576 1676 576 1676 656 1688 c 1,43,-1
 828 1914 l 1,44,-1
 932 1914 l 1,45,-1
 724 1688 l 1,46,47
 802 1680 802 1680 848 1622 c 0,48,49
 904 1552 904 1552 890 1454 c 256,50,51
 874 1356 874 1356 795 1285 c 128,-1,52
 716 1214 716 1214 614 1214 c 0,53,54
 514 1214 514 1214 459 1285 c 128,-1,55
 404 1356 404 1356 420 1454 c 0,39,40
472 1454 m 0,56,57
 458 1374 458 1374 501 1319 c 128,-1,58
 544 1264 544 1264 622 1264 c 0,59,60
 704 1264 704 1264 763 1317 c 128,-1,61
 822 1370 822 1370 836 1454 c 0,62,63
 848 1532 848 1532 809 1587 c 128,-1,64
 770 1642 770 1642 686 1642 c 0,65,66
 604 1642 604 1642 544 1586 c 128,-1,67
 484 1530 484 1530 472 1454 c 0,56,57
EndSplineSet
EndChar

StartChar: uni021C
Encoding: 540 540 478
Width: 1122
GlyphClass: 2
Flags: W
LayerCount: 2
Fore
SplineSet
-48 -422 m 1,0,1
 52 -436 52 -436 192 -436 c 0,2,3
 454 -436 454 -436 642 -293 c 128,-1,4
 830 -150 830 -150 872 94 c 0,5,6
 894 226 894 226 866 323 c 128,-1,7
 838 420 838 420 776 471 c 128,-1,8
 714 522 714 522 644 545 c 128,-1,9
 574 568 574 568 494 568 c 0,10,11
 446 568 446 568 334 530 c 1,12,-1
 342 586 l 1,13,-1
 504 632 l 2,14,15
 716 690 716 690 849 814 c 128,-1,16
 982 938 982 938 1008 1094 c 0,17,18
 1036 1266 1036 1266 948 1360 c 128,-1,19
 860 1454 860 1454 682 1454 c 0,20,21
 442 1454 442 1454 288 1224 c 1,22,-1
 236 1250 l 1,23,24
 416 1510 416 1510 690 1510 c 0,25,26
 916 1510 916 1510 1008 1393 c 128,-1,27
 1100 1276 1100 1276 1070 1096 c 256,28,29
 1040 916 1040 916 900 792 c 128,-1,30
 760 668 760 668 604 616 c 1,31,-1
 604 614 l 1,32,33
 672 602 672 602 734 571 c 128,-1,34
 796 540 796 540 851 483 c 128,-1,35
 906 426 906 426 930 325 c 128,-1,36
 954 224 954 224 932 94 c 0,37,38
 890 -160 890 -160 687 -326 c 128,-1,39
 484 -492 484 -492 184 -492 c 0,40,41
 44 -492 44 -492 -56 -480 c 1,42,-1
 -48 -422 l 1,0,1
EndSplineSet
EndChar

StartChar: uni021D
Encoding: 541 541 479
Width: 858
GlyphClass: 2
Flags: W
LayerCount: 2
Fore
SplineSet
-48 -432 m 1,0,1
 10 -444 10 -444 112 -444 c 0,2,3
 298 -444 298 -444 424 -334 c 128,-1,4
 550 -224 550 -224 582 -24 c 0,5,6
 610 148 610 148 535 238 c 128,-1,7
 460 328 460 328 338 328 c 0,8,9
 326 328 326 328 224 306 c 1,10,-1
 232 360 l 1,11,-1
 334 384 l 2,12,13
 484 424 484 424 577 521 c 128,-1,14
 670 618 670 618 690 740 c 0,15,16
 710 856 710 856 656 941 c 128,-1,17
 602 1026 602 1026 472 1026 c 0,18,19
 326 1026 326 1026 216 886 c 1,20,-1
 174 910 l 1,21,22
 296 1078 296 1078 482 1078 c 0,23,24
 642 1078 642 1078 705 979 c 128,-1,25
 768 880 768 880 746 744 c 0,26,27
 722 602 722 602 631 508 c 128,-1,28
 540 414 540 414 416 366 c 1,29,30
 524 354 524 354 596 255 c 128,-1,31
 668 156 668 156 640 -22 c 0,32,33
 604 -242 604 -242 461 -369 c 128,-1,34
 318 -496 318 -496 104 -496 c 0,35,36
 26 -496 26 -496 -56 -484 c 1,37,-1
 -48 -432 l 1,0,1
EndSplineSet
EndChar

StartChar: uni0220
Encoding: 544 544 482
Width: 1424
GlyphClass: 2
Flags: W
LayerCount: 2
Fore
SplineSet
138 0 m 1,0,-1
 382 1470 l 1,1,-1
 442 1470 l 1,2,-1
 404 1244 l 1,3,-1
 406 1244 l 1,4,5
 468 1336 468 1336 610 1423 c 128,-1,6
 752 1510 752 1510 914 1510 c 0,7,8
 1354 1510 1354 1510 1274 1016 c 2,9,-1
 1024 -488 l 1,10,-1
 960 -488 l 1,11,-1
 1206 1000 l 2,12,13
 1246 1236 1246 1236 1172 1345 c 128,-1,14
 1098 1454 1098 1454 898 1454 c 0,15,16
 732 1454 732 1454 566 1335 c 128,-1,17
 400 1216 400 1216 372 1054 c 2,18,-1
 198 0 l 1,19,-1
 138 0 l 1,0,-1
EndSplineSet
EndChar

StartChar: uni0221
Encoding: 545 545 483
Width: 1470
GlyphClass: 2
Flags: W
LayerCount: 2
Fore
SplineSet
814 -270 m 1,0,1
 826 -336 826 -336 884 -389 c 128,-1,2
 942 -442 942 -442 1022 -442 c 0,3,4
 1110 -442 1110 -442 1171 -399 c 128,-1,5
 1232 -356 1232 -356 1242 -290 c 0,6,7
 1254 -214 1254 -214 1211 -168 c 128,-1,8
 1168 -122 1168 -122 1080 -122 c 0,9,10
 936 -122 936 -122 814 -270 c 1,0,1
100 520 m 0,11,12
 144 780 144 780 280 929 c 128,-1,13
 416 1078 416 1078 596 1078 c 0,14,15
 726 1078 726 1078 803 987 c 128,-1,16
 880 896 880 896 890 770 c 1,17,-1
 1018 1534 l 1,18,-1
 1074 1534 l 1,19,-1
 818 -6 l 2,20,21
 796 -136 796 -136 808 -210 c 1,22,23
 858 -154 858 -154 932 -112 c 128,-1,24
 1006 -70 1006 -70 1088 -70 c 0,25,26
 1208 -70 1208 -70 1261 -134 c 128,-1,27
 1314 -198 1314 -198 1300 -286 c 0,28,29
 1284 -378 1284 -378 1205 -437 c 128,-1,30
 1126 -496 1126 -496 1016 -496 c 0,31,32
 838 -496 838 -496 774 -324 c 1,33,34
 740 -368 740 -368 676 -480 c 1,35,-1
 628 -462 l 1,36,37
 706 -324 706 -324 754 -264 c 1,38,39
 734 -186 734 -186 762 -8 c 2,40,-1
 804 252 l 1,41,42
 748 128 748 128 643 45 c 128,-1,43
 538 -38 538 -38 408 -38 c 0,44,45
 244 -38 244 -38 149 102 c 128,-1,46
 54 242 54 242 100 520 c 0,11,12
156 520 m 0,47,48
 118 292 118 292 190 152 c 128,-1,49
 262 12 262 12 424 12 c 0,50,51
 568 12 568 12 689 145 c 128,-1,52
 810 278 810 278 850 520 c 0,53,54
 888 754 888 754 808 890 c 128,-1,55
 728 1026 728 1026 588 1026 c 0,56,57
 434 1026 434 1026 314 889 c 128,-1,58
 194 752 194 752 156 520 c 0,47,48
EndSplineSet
EndChar

StartChar: uni0222
Encoding: 546 546 484
Width: 1296
GlyphClass: 2
Flags: W
LayerCount: 2
Fore
SplineSet
94 458 m 0,0,1
 124 640 124 640 256 769 c 128,-1,2
 388 898 388 898 548 942 c 1,3,4
 418 984 418 984 348 1091 c 128,-1,5
 278 1198 278 1198 304 1356 c 0,6,7
 316 1426 316 1426 330 1470 c 1,8,-1
 390 1470 l 1,9,10
 386 1448 386 1448 378 1412 c 128,-1,11
 370 1376 370 1376 368 1358 c 0,12,13
 340 1194 340 1194 434 1081 c 128,-1,14
 528 968 528 968 716 968 c 0,15,16
 886 968 886 968 1027 1076 c 128,-1,17
 1168 1184 1168 1184 1196 1358 c 0,18,19
 1200 1382 1200 1382 1208 1470 c 1,20,-1
 1268 1470 l 1,21,22
 1270 1430 1270 1430 1256 1356 c 0,23,24
 1228 1190 1228 1190 1116 1084 c 128,-1,25
 1004 978 1004 978 862 942 c 1,26,27
 1016 908 1016 908 1107 773 c 128,-1,28
 1198 638 1198 638 1168 458 c 0,29,30
 1134 254 1134 254 971 108 c 128,-1,31
 808 -38 808 -38 550 -38 c 0,32,33
 296 -38 296 -38 178 107 c 128,-1,34
 60 252 60 252 94 458 c 0,0,1
160 458 m 0,35,36
 128 268 128 268 239 142 c 128,-1,37
 350 16 350 16 558 16 c 0,38,39
 760 16 760 16 917 140 c 128,-1,40
 1074 264 1074 264 1106 458 c 0,41,42
 1136 640 1136 640 1024 776 c 128,-1,43
 912 912 912 912 706 912 c 0,44,45
 510 912 510 912 351 782 c 128,-1,46
 192 652 192 652 160 458 c 0,35,36
EndSplineSet
EndChar

StartChar: uni0223
Encoding: 547 547 485
Width: 1064
GlyphClass: 2
Flags: W
LayerCount: 2
Fore
SplineSet
92 478 m 0,0,1
 126 688 126 688 241 824 c 128,-1,2
 356 960 356 960 492 984 c 1,3,4
 378 1012 378 1012 320 1113 c 128,-1,5
 262 1214 262 1214 290 1386 c 0,6,7
 304 1476 304 1476 316 1510 c 1,8,-1
 370 1510 l 1,9,10
 350 1418 350 1418 346 1388 c 0,11,12
 318 1220 318 1220 387 1115 c 128,-1,13
 456 1010 456 1010 606 1010 c 0,14,15
 746 1010 746 1010 853 1112 c 128,-1,16
 960 1214 960 1214 988 1388 c 0,17,18
 998 1448 998 1448 1006 1510 c 1,19,-1
 1060 1510 l 1,20,21
 1060 1470 1060 1470 1046 1386 c 0,22,23
 1018 1220 1018 1220 925 1113 c 128,-1,24
 832 1006 832 1006 710 984 c 1,25,26
 842 964 842 964 911 827 c 128,-1,27
 980 690 980 690 946 478 c 0,28,29
 910 260 910 260 772 111 c 128,-1,30
 634 -38 634 -38 434 -38 c 0,31,32
 236 -38 236 -38 145 108 c 128,-1,33
 54 254 54 254 92 478 c 0,0,1
148 478 m 0,34,35
 116 280 116 280 195 146 c 128,-1,36
 274 12 274 12 442 12 c 0,37,38
 600 12 600 12 726 140 c 128,-1,39
 852 268 852 268 886 478 c 256,40,41
 920 688 920 688 841 822 c 128,-1,42
 762 956 762 956 598 956 c 0,43,44
 446 956 446 956 315 828 c 128,-1,45
 184 700 184 700 148 478 c 0,34,35
EndSplineSet
EndChar

StartChar: uni0224
Encoding: 548 548 486
Width: 1214
GlyphClass: 2
Flags: W
LayerCount: 2
Fore
SplineSet
24 0 m 1,0,-1
 32 52 l 1,1,-1
 1142 1416 l 1,2,-1
 326 1416 l 1,3,-1
 334 1470 l 1,4,-1
 1222 1470 l 1,5,-1
 1214 1420 l 1,6,-1
 104 54 l 1,7,-1
 800 54 l 2,8,9
 954 54 954 54 1015 -19 c 128,-1,10
 1076 -92 1076 -92 1048 -254 c 0,11,12
 1030 -366 1030 -366 964 -488 c 1,13,-1
 908 -488 l 1,14,15
 970 -368 970 -368 990 -256 c 0,16,17
 1012 -122 1012 -122 968 -61 c 128,-1,18
 924 0 924 0 772 0 c 2,19,-1
 24 0 l 1,0,-1
EndSplineSet
EndChar

StartChar: uni0225
Encoding: 549 549 487
Width: 1036
GlyphClass: 2
Flags: W
LayerCount: 2
Fore
SplineSet
-12 0 m 1,0,-1
 -4 46 l 1,1,-1
 794 990 l 1,2,-1
 202 990 l 1,3,-1
 210 1042 l 1,4,-1
 872 1042 l 1,5,-1
 864 996 l 1,6,-1
 66 52 l 1,7,-1
 686 52 l 2,8,9
 816 52 816 52 860 -23 c 128,-1,10
 904 -98 904 -98 880 -248 c 0,11,12
 856 -392 856 -392 808 -488 c 1,13,-1
 750 -488 l 1,14,15
 802 -376 802 -376 824 -248 c 0,16,17
 846 -114 846 -114 806 -57 c 128,-1,18
 766 0 766 0 656 0 c 2,19,-1
 -12 0 l 1,0,-1
EndSplineSet
EndChar

StartChar: uni0234
Encoding: 564 564 502
Width: 804
GlyphClass: 2
Flags: W
LayerCount: 2
Fore
SplineSet
156 -272 m 1,0,1
 166 -340 166 -340 224 -391 c 128,-1,2
 282 -442 282 -442 362 -442 c 0,3,4
 448 -442 448 -442 509 -400 c 128,-1,5
 570 -358 570 -358 580 -290 c 0,6,7
 592 -214 592 -214 549 -168 c 128,-1,8
 506 -122 506 -122 418 -122 c 0,9,10
 280 -122 280 -122 156 -272 c 1,0,1
-32 -462 m 1,11,12
 48 -320 48 -320 94 -266 c 1,13,14
 72 -170 72 -170 100 -6 c 2,15,-1
 356 1534 l 1,16,-1
 414 1534 l 1,17,-1
 158 -6 l 2,18,19
 138 -124 138 -124 150 -210 c 1,20,21
 272 -70 272 -70 426 -70 c 0,22,23
 544 -70 544 -70 599 -135 c 128,-1,24
 654 -200 654 -200 640 -286 c 0,25,26
 624 -378 624 -378 545 -437 c 128,-1,27
 466 -496 466 -496 356 -496 c 0,28,29
 268 -496 268 -496 204 -448 c 128,-1,30
 140 -400 140 -400 114 -326 c 1,31,32
 68 -388 68 -388 16 -480 c 1,33,-1
 -32 -462 l 1,11,12
EndSplineSet
EndChar

StartChar: uni0235
Encoding: 565 565 503
Width: 1468
GlyphClass: 2
Flags: W
LayerCount: 2
Fore
SplineSet
816 -272 m 1,0,1
 828 -340 828 -340 885 -391 c 128,-1,2
 942 -442 942 -442 1022 -442 c 0,3,4
 1110 -442 1110 -442 1170 -400 c 128,-1,5
 1230 -358 1230 -358 1242 -290 c 0,6,7
 1254 -216 1254 -216 1211 -169 c 128,-1,8
 1168 -122 1168 -122 1082 -122 c 0,9,10
 940 -122 940 -122 816 -272 c 1,0,1
88 0 m 1,11,-1
 260 1040 l 1,12,-1
 314 1040 l 1,13,-1
 276 804 l 1,14,-1
 280 804 l 1,15,16
 308 888 308 888 424 983 c 128,-1,17
 540 1078 540 1078 686 1078 c 0,18,19
 742 1078 742 1078 788 1062 c 128,-1,20
 834 1046 834 1046 877 1005 c 128,-1,21
 920 964 920 964 937 880 c 128,-1,22
 954 796 954 796 934 676 c 2,23,-1
 822 -6 l 2,24,25
 802 -124 802 -124 810 -210 c 1,26,27
 932 -70 932 -70 1092 -70 c 0,28,29
 1212 -70 1212 -70 1263 -134 c 128,-1,30
 1314 -198 1314 -198 1300 -286 c 0,31,32
 1284 -378 1284 -378 1206 -437 c 128,-1,33
 1128 -496 1128 -496 1018 -496 c 0,34,35
 930 -496 930 -496 866 -448 c 128,-1,36
 802 -400 802 -400 776 -326 c 1,37,38
 738 -374 738 -374 676 -480 c 1,39,-1
 628 -462 l 1,40,41
 700 -330 700 -330 756 -266 c 1,42,43
 734 -170 734 -170 762 -4 c 2,44,-1
 870 658 l 2,45,46
 930 1026 930 1026 668 1026 c 0,47,48
 532 1026 532 1026 404 910 c 128,-1,49
 276 794 276 794 250 640 c 2,50,-1
 144 0 l 1,51,-1
 88 0 l 1,11,-1
EndSplineSet
EndChar

StartChar: uni0236
Encoding: 566 566 504
Width: 860
GlyphClass: 2
Flags: W
LayerCount: 2
Fore
SplineSet
210 -272 m 1,0,1
 220 -338 220 -338 279 -390 c 128,-1,2
 338 -442 338 -442 418 -442 c 0,3,4
 506 -442 506 -442 565 -399 c 128,-1,5
 624 -356 624 -356 636 -290 c 0,6,7
 648 -216 648 -216 605 -169 c 128,-1,8
 562 -122 562 -122 474 -122 c 0,9,10
 334 -122 334 -122 210 -272 c 1,0,1
124 988 m 1,11,-1
 132 1040 l 1,12,-1
 328 1040 l 1,13,-1
 388 1402 l 1,14,-1
 448 1402 l 1,15,-1
 388 1040 l 1,16,-1
 656 1040 l 1,17,-1
 648 988 l 1,18,-1
 380 988 l 1,19,-1
 216 -6 l 2,20,21
 194 -140 194 -140 202 -210 c 1,22,23
 324 -70 324 -70 482 -70 c 0,24,25
 600 -70 600 -70 655 -135 c 128,-1,26
 710 -200 710 -200 694 -286 c 0,27,28
 678 -378 678 -378 600 -437 c 128,-1,29
 522 -496 522 -496 412 -496 c 0,30,31
 324 -496 324 -496 259 -448 c 128,-1,32
 194 -400 194 -400 166 -326 c 1,33,34
 132 -372 132 -372 74 -480 c 1,35,-1
 22 -462 l 1,36,37
 118 -296 118 -296 146 -266 c 1,38,39
 126 -178 126 -178 156 -4 c 2,40,-1
 320 988 l 1,41,-1
 124 988 l 1,11,-1
EndSplineSet
EndChar

StartChar: uni0237
Encoding: 567 567 505
Width: 528
GlyphClass: 2
Flags: W
LayerCount: 2
Fore
SplineSet
-174 -434 m 1,0,-1
 -120 -434 l 2,1,2
 80 -434 80 -434 126 -158 c 2,3,-1
 324 1040 l 1,4,-1
 380 1040 l 1,5,-1
 180 -166 l 2,6,7
 154 -322 154 -322 75 -405 c 128,-1,8
 -4 -488 -4 -488 -118 -488 c 2,9,-1
 -182 -488 l 1,10,-1
 -174 -434 l 1,0,-1
EndSplineSet
EndChar

StartChar: uni0238
Encoding: 568 568 506
Width: 1770
GlyphClass: 2
Flags: W
LayerCount: 2
Fore
SplineSet
100 520 m 0,0,1
 144 782 144 782 281 930 c 128,-1,2
 418 1078 418 1078 596 1078 c 0,3,4
 726 1078 726 1078 803 987 c 128,-1,5
 880 896 880 896 890 770 c 1,6,-1
 1018 1534 l 1,7,-1
 1074 1534 l 1,8,-1
 946 768 l 1,9,10
 990 884 990 884 1099 981 c 128,-1,11
 1208 1078 1208 1078 1344 1078 c 0,12,13
 1528 1078 1528 1078 1614 928 c 128,-1,14
 1700 778 1700 778 1658 520 c 0,15,16
 1612 242 1612 242 1469 102 c 128,-1,17
 1326 -38 1326 -38 1156 -38 c 0,18,19
 1032 -38 1032 -38 956 44 c 128,-1,20
 880 126 880 126 862 250 c 1,21,-1
 820 0 l 1,22,-1
 764 0 l 1,23,-1
 804 252 l 1,24,25
 746 126 746 126 642 44 c 128,-1,26
 538 -38 538 -38 408 -38 c 0,27,28
 334 -38 334 -38 270 -7 c 128,-1,29
 206 24 206 24 158 88 c 128,-1,30
 110 152 110 152 93 263 c 128,-1,31
 76 374 76 374 100 520 c 0,0,1
156 520 m 0,32,33
 118 292 118 292 190 152 c 128,-1,34
 262 12 262 12 424 12 c 0,35,36
 560 12 560 12 677 135 c 128,-1,37
 794 258 794 258 842 474 c 1,38,-1
 858 572 l 1,39,40
 882 782 882 782 801 904 c 128,-1,41
 720 1026 720 1026 588 1026 c 0,42,43
 434 1026 434 1026 314 889 c 128,-1,44
 194 752 194 752 156 520 c 0,32,33
896 470 m 1,45,46
 874 258 874 258 949 135 c 128,-1,47
 1024 12 1024 12 1160 12 c 0,48,49
 1318 12 1318 12 1439 149 c 128,-1,50
 1560 286 1560 286 1600 520 c 0,51,52
 1638 750 1638 750 1562 888 c 128,-1,53
 1486 1026 1486 1026 1332 1026 c 0,54,55
 1200 1026 1200 1026 1080 903 c 128,-1,56
 960 780 960 780 912 568 c 1,57,-1
 896 470 l 1,45,46
EndSplineSet
EndChar

StartChar: uni0239
Encoding: 569 569 507
Width: 1772
GlyphClass: 2
Flags: W
LayerCount: 2
Fore
SplineSet
100 520 m 0,0,1
 142 774 142 774 277 926 c 128,-1,2
 412 1078 412 1078 594 1078 c 0,3,4
 712 1078 712 1078 792 999 c 128,-1,5
 872 920 872 920 892 780 c 1,6,-1
 936 1040 l 1,7,-1
 992 1040 l 1,8,-1
 948 776 l 1,9,10
 1012 912 1012 912 1119 995 c 128,-1,11
 1226 1078 1226 1078 1346 1078 c 0,12,13
 1530 1078 1530 1078 1616 926 c 128,-1,14
 1702 774 1702 774 1660 520 c 0,15,16
 1616 254 1616 254 1475 108 c 128,-1,17
 1334 -38 1334 -38 1156 -38 c 0,18,19
 1030 -38 1030 -38 956 45 c 128,-1,20
 882 128 882 128 862 260 c 1,21,-1
 738 -488 l 1,22,-1
 682 -488 l 1,23,-1
 806 260 l 1,24,25
 740 128 740 128 639 45 c 128,-1,26
 538 -38 538 -38 412 -38 c 0,27,28
 236 -38 236 -38 146 108 c 128,-1,29
 56 254 56 254 100 520 c 0,0,1
156 520 m 0,30,31
 118 286 118 286 192 149 c 128,-1,32
 266 12 266 12 420 12 c 0,33,34
 566 12 566 12 682 141 c 128,-1,35
 798 270 798 270 842 478 c 1,36,-1
 858 570 l 1,37,38
 880 772 880 772 804 899 c 128,-1,39
 728 1026 728 1026 590 1026 c 0,40,41
 424 1026 424 1026 308 882 c 128,-1,42
 192 738 192 738 156 520 c 0,30,31
900 480 m 1,43,44
 878 268 878 268 951 140 c 128,-1,45
 1024 12 1024 12 1166 12 c 0,46,47
 1318 12 1318 12 1439 148 c 128,-1,48
 1560 284 1560 284 1600 520 c 0,49,50
 1636 740 1636 740 1569 883 c 128,-1,51
 1502 1026 1502 1026 1334 1026 c 0,52,53
 1200 1026 1200 1026 1081 900 c 128,-1,54
 962 774 962 774 914 574 c 1,55,-1
 900 480 l 1,43,44
EndSplineSet
EndChar

StartChar: uni023A
Encoding: 570 570 508
Width: 1216
GlyphClass: 2
Flags: W
LayerCount: 2
Fore
SplineSet
272 538 m 1,0,-1
 462 538 l 1,1,-1
 832 1020 l 1,2,-1
 794 1200 l 2,3,4
 774 1294 774 1294 750 1412 c 1,5,-1
 746 1412 l 1,6,7
 728 1378 728 1378 690 1305 c 128,-1,8
 652 1232 652 1232 634 1200 c 2,9,-1
 272 538 l 1,0,-1
520 538 m 1,10,-1
 934 538 l 1,11,-1
 844 960 l 1,12,-1
 520 538 l 1,10,-1
-88 0 m 1,13,-1
 718 1470 l 1,14,-1
 800 1470 l 1,15,-1
 884 1086 l 1,16,-1
 1220 1524 l 1,17,-1
 1280 1524 l 1,18,-1
 896 1026 l 1,19,-1
 1118 0 l 1,20,-1
 1046 0 l 1,21,-1
 946 486 l 1,22,-1
 480 486 l 1,23,-1
 -26 -170 l 1,24,-1
 -84 -170 l 1,25,-1
 422 486 l 1,26,-1
 244 486 l 1,27,-1
 -16 0 l 1,28,-1
 -88 0 l 1,13,-1
EndSplineSet
EndChar

StartChar: uni023B
Encoding: 571 571 509
Width: 1210
GlyphClass: 2
Flags: W
LayerCount: 2
Fore
SplineSet
144 736 m 0,0,1
 204 1100 204 1100 400 1305 c 128,-1,2
 596 1510 596 1510 856 1510 c 0,3,4
 976 1510 976 1510 1064 1454 c 1,5,-1
 1142 1598 l 1,6,-1
 1194 1598 l 1,7,-1
 1104 1426 l 1,8,9
 1196 1352 1196 1352 1226 1220 c 1,10,-1
 1170 1198 l 1,11,12
 1134 1312 1134 1312 1072 1368 c 1,13,-1
 392 76 l 1,14,15
 490 16 490 16 610 16 c 0,16,17
 754 16 754 16 870 93 c 128,-1,18
 986 170 986 170 1058 286 c 1,19,-1
 1108 264 l 1,20,21
 912 -38 912 -38 600 -38 c 0,22,23
 466 -38 466 -38 362 20 c 1,24,-1
 262 -164 l 1,25,-1
 208 -164 l 1,26,-1
 322 46 l 1,27,28
 200 134 200 134 152 312 c 128,-1,29
 104 490 104 490 144 736 c 0,0,1
354 102 m 1,30,-1
 1036 1400 l 1,31,32
 958 1454 958 1454 848 1454 c 0,33,34
 610 1454 610 1454 436 1258 c 128,-1,35
 262 1062 262 1062 210 736 c 0,36,37
 174 516 174 516 211 352 c 128,-1,38
 248 188 248 188 354 102 c 1,30,-1
EndSplineSet
EndChar

StartChar: uni023C
Encoding: 572 572 510
Width: 942
GlyphClass: 2
Flags: W
LayerCount: 2
Fore
SplineSet
100 520 m 0,0,1
 140 760 140 760 277 919 c 128,-1,2
 414 1078 414 1078 614 1078 c 0,3,4
 712 1078 712 1078 776 1036 c 1,5,-1
 852 1192 l 1,6,-1
 902 1192 l 1,7,-1
 814 1006 l 1,8,9
 884 948 884 948 904 848 c 1,10,-1
 850 830 l 1,11,12
 832 898 832 898 786 950 c 1,13,-1
 338 30 l 1,14,15
 376 12 376 12 436 12 c 0,16,17
 534 12 534 12 627 74 c 128,-1,18
 720 136 720 136 776 220 c 1,19,-1
 822 200 l 1,20,21
 758 100 758 100 653 31 c 128,-1,22
 548 -38 548 -38 428 -38 c 0,23,24
 354 -38 354 -38 314 -22 c 1,25,-1
 254 -152 l 1,26,-1
 202 -152 l 1,27,-1
 272 -4 l 1,28,29
 162 52 162 52 115 190 c 128,-1,30
 68 328 68 328 100 520 c 0,0,1
298 50 m 1,31,-1
 752 982 l 1,32,33
 690 1026 690 1026 604 1026 c 0,34,35
 438 1026 438 1026 315 884 c 128,-1,36
 192 742 192 742 156 520 c 0,37,38
 128 350 128 350 166 226 c 128,-1,39
 204 102 204 102 298 50 c 1,31,-1
EndSplineSet
EndChar

StartChar: uni023D
Encoding: 573 573 511
Width: 1050
GlyphClass: 2
Flags: W
LayerCount: 2
Fore
SplineSet
94 818 m 1,0,-1
 102 870 l 1,1,-1
 296 870 l 1,2,-1
 396 1470 l 1,3,-1
 454 1470 l 1,4,-1
 356 870 l 1,5,-1
 796 870 l 1,6,-1
 788 818 l 1,7,-1
 348 818 l 1,8,-1
 220 54 l 1,9,-1
 944 54 l 1,10,-1
 934 0 l 1,11,-1
 152 0 l 1,12,-1
 288 818 l 1,13,-1
 94 818 l 1,0,-1
EndSplineSet
EndChar

StartChar: uni023E
Encoding: 574 574 512
Width: 1066
GlyphClass: 2
Flags: W
LayerCount: 2
Fore
SplineSet
704 1416 m 1,0,-1
 606 826 l 1,1,-1
 1022 1416 l 1,2,-1
 704 1416 l 1,0,-1
180 1416 m 1,3,-1
 190 1470 l 1,4,-1
 1060 1470 l 1,5,-1
 1150 1596 l 1,6,-1
 1202 1596 l 1,7,-1
 1112 1470 l 1,8,-1
 1178 1470 l 1,9,-1
 1168 1416 l 1,10,-1
 1076 1416 l 1,11,-1
 590 726 l 1,12,-1
 470 0 l 1,13,-1
 408 0 l 1,14,-1
 510 612 l 1,15,-1
 38 -58 l 1,16,-1
 -16 -58 l 1,17,-1
 526 712 l 1,18,-1
 644 1416 l 1,19,-1
 180 1416 l 1,3,-1
EndSplineSet
EndChar

StartChar: uni023F
Encoding: 575 575 513
Width: 916
GlyphClass: 2
Flags: W
LayerCount: 2
Fore
SplineSet
26 170 m 1,0,-1
 76 198 l 1,1,2
 160 12 160 12 370 12 c 0,3,4
 508 12 508 12 602 76 c 128,-1,5
 696 140 696 140 712 240 c 0,6,7
 724 312 724 312 679 366 c 128,-1,8
 634 420 634 420 589 440 c 128,-1,9
 544 460 544 460 442 494 c 0,10,11
 428 502 428 502 420 504 c 0,12,13
 350 526 350 526 309 546 c 128,-1,14
 268 566 268 566 221 600 c 128,-1,15
 174 634 174 634 158 684 c 128,-1,16
 142 734 142 734 152 802 c 0,17,18
 174 932 174 932 287 1005 c 128,-1,19
 400 1078 400 1078 548 1078 c 0,20,21
 662 1078 662 1078 740 1020 c 128,-1,22
 818 962 818 962 850 876 c 1,23,-1
 802 848 l 1,24,25
 772 930 772 930 703 978 c 128,-1,26
 634 1026 634 1026 538 1026 c 0,27,28
 408 1026 408 1026 317 963 c 128,-1,29
 226 900 226 900 210 802 c 0,30,31
 192 696 192 696 259 640 c 128,-1,32
 326 584 326 584 450 546 c 0,33,34
 528 524 528 524 575 503 c 128,-1,35
 622 482 622 482 678 447 c 128,-1,36
 734 412 734 412 758 359 c 128,-1,37
 782 306 782 306 770 240 c 0,38,39
 750 122 750 122 644 42 c 128,-1,40
 538 -38 538 -38 362 -38 c 0,41,42
 232 -38 232 -38 132 32 c 1,43,44
 150 -220 150 -220 174 -298 c 0,45,46
 224 -450 224 -450 364 -450 c 0,47,48
 394 -450 394 -450 432 -444 c 1,49,-1
 424 -490 l 1,50,51
 364 -496 364 -496 356 -496 c 0,52,53
 288 -496 288 -496 242 -473 c 128,-1,54
 196 -450 196 -450 169 -409 c 128,-1,55
 142 -368 142 -368 126 -309 c 128,-1,56
 110 -250 110 -250 101 -186 c 128,-1,57
 92 -122 92 -122 86 -44 c 0,58,59
 82 -6 82 -6 82 12 c 0,60,61
 72 62 72 62 26 170 c 1,0,-1
EndSplineSet
EndChar

StartChar: uni0240
Encoding: 576 576 514
Width: 892
GlyphClass: 2
Flags: W
LayerCount: 2
Fore
SplineSet
-12 0 m 1,0,-1
 -4 46 l 1,1,-1
 794 988 l 1,2,-1
 200 988 l 1,3,-1
 210 1040 l 1,4,-1
 870 1040 l 1,5,-1
 864 994 l 1,6,-1
 62 48 l 1,7,8
 150 46 150 46 214 -5 c 128,-1,9
 278 -56 278 -56 317 -129 c 128,-1,10
 356 -202 356 -202 391 -274 c 128,-1,11
 426 -346 426 -346 474 -395 c 128,-1,12
 522 -444 522 -444 584 -444 c 0,13,14
 624 -444 624 -444 654 -438 c 1,15,-1
 646 -488 l 1,16,17
 604 -496 604 -496 570 -496 c 0,18,19
 500 -496 500 -496 445 -446 c 128,-1,20
 390 -396 390 -396 353 -323 c 128,-1,21
 316 -250 316 -250 277 -177 c 128,-1,22
 238 -104 238 -104 179 -52 c 128,-1,23
 120 0 120 0 44 0 c 2,24,-1
 -12 0 l 1,0,-1
EndSplineSet
EndChar

StartChar: uni0241
Encoding: 577 577 515
Width: 1046
GlyphClass: 2
Flags: W
LayerCount: 2
Fore
SplineSet
244 1228 m 1,0,1
 324 1366 324 1366 441 1438 c 128,-1,2
 558 1510 558 1510 676 1510 c 0,3,4
 850 1510 850 1510 932 1405 c 128,-1,5
 1014 1300 1014 1300 986 1130 c 0,6,7
 970 1038 970 1038 920 964 c 128,-1,8
 870 890 870 890 809 838 c 128,-1,9
 748 786 748 786 685 733 c 128,-1,10
 622 680 622 680 571 604 c 128,-1,11
 520 528 520 528 504 434 c 2,12,-1
 432 0 l 1,13,-1
 370 0 l 1,14,-1
 442 436 l 2,15,16
 458 538 458 538 510 618 c 128,-1,17
 562 698 562 698 624 751 c 128,-1,18
 686 804 686 804 748 855 c 128,-1,19
 810 906 810 906 859 974 c 128,-1,20
 908 1042 908 1042 920 1126 c 0,21,22
 944 1274 944 1274 878 1364 c 128,-1,23
 812 1454 812 1454 668 1454 c 0,24,25
 448 1454 448 1454 294 1208 c 1,26,-1
 244 1228 l 1,0,1
EndSplineSet
EndChar

StartChar: uni0250
Encoding: 592 592 516
Width: 1052
GlyphClass: 2
Flags: W
LayerCount: 2
Fore
SplineSet
198 424 m 1,0,1
 314 468 314 468 544 504 c 0,2,3
 736 534 736 534 829 607 c 128,-1,4
 922 680 922 680 942 798 c 0,5,6
 958 890 958 890 894 958 c 128,-1,7
 830 1026 830 1026 696 1026 c 0,8,9
 532 1026 532 1026 397 916 c 128,-1,10
 262 806 262 806 232 634 c 2,11,-1
 198 424 l 1,0,1
126 324 m 2,12,-1
 244 1040 l 1,13,-1
 300 1040 l 1,14,-1
 262 812 l 1,15,16
 314 920 314 920 439 999 c 128,-1,17
 564 1078 564 1078 708 1078 c 0,18,19
 864 1078 864 1078 942 1001 c 128,-1,20
 1020 924 1020 924 1000 802 c 0,21,22
 978 666 978 666 870 577 c 128,-1,23
 762 488 762 488 538 456 c 0,24,25
 278 414 278 414 190 374 c 1,26,-1
 180 318 l 2,27,28
 158 182 158 182 230 97 c 128,-1,29
 302 12 302 12 454 12 c 0,30,31
 648 12 648 12 806 190 c 1,32,-1
 844 162 l 1,33,34
 774 76 774 76 667 19 c 128,-1,35
 560 -38 560 -38 444 -38 c 0,36,37
 258 -38 258 -38 179 62 c 128,-1,38
 100 162 100 162 126 324 c 2,12,-1
EndSplineSet
EndChar

StartChar: uni0251
Encoding: 593 593 517
Width: 1090
GlyphClass: 2
Flags: W
LayerCount: 2
Fore
SplineSet
156 520 m 0,0,1
 118 290 118 290 194 151 c 128,-1,2
 270 12 270 12 424 12 c 0,3,4
 566 12 566 12 690 147 c 128,-1,5
 814 282 814 282 852 516 c 256,6,7
 890 750 890 750 809 888 c 128,-1,8
 728 1026 728 1026 588 1026 c 0,9,10
 434 1026 434 1026 314 889 c 128,-1,11
 194 752 194 752 156 520 c 0,0,1
100 520 m 0,12,13
 142 776 142 776 278 927 c 128,-1,14
 414 1078 414 1078 594 1078 c 0,15,16
 728 1078 728 1078 807 978 c 128,-1,17
 886 878 886 878 888 774 c 1,18,-1
 932 1040 l 1,19,-1
 988 1040 l 1,20,-1
 816 0 l 1,21,-1
 762 0 l 1,22,-1
 802 244 l 1,23,24
 740 122 740 122 638 42 c 128,-1,25
 536 -38 536 -38 412 -38 c 0,26,27
 246 -38 246 -38 150 103 c 128,-1,28
 54 244 54 244 100 520 c 0,12,13
EndSplineSet
EndChar

StartChar: uni0252
Encoding: 594 594 518
Width: 1092
GlyphClass: 2
Flags: W
LayerCount: 2
Fore
SplineSet
88 0 m 1,0,-1
 260 1040 l 1,1,-1
 316 1040 l 1,2,-1
 272 774 l 1,3,4
 308 878 308 878 421 978 c 128,-1,5
 534 1078 534 1078 668 1078 c 0,6,7
 852 1078 852 1078 938 928 c 128,-1,8
 1024 778 1024 778 980 520 c 0,9,10
 934 244 934 244 791 103 c 128,-1,11
 648 -38 648 -38 484 -38 c 0,12,13
 358 -38 358 -38 280 43 c 128,-1,14
 202 124 202 124 182 244 c 1,15,-1
 142 0 l 1,16,-1
 88 0 l 1,0,-1
226 516 m 0,17,18
 188 284 188 284 266 148 c 128,-1,19
 344 12 344 12 486 12 c 0,20,21
 642 12 642 12 764 151 c 128,-1,22
 886 290 886 290 924 520 c 0,23,24
 962 752 962 752 888 889 c 128,-1,25
 814 1026 814 1026 658 1026 c 0,26,27
 520 1026 520 1026 393 889 c 128,-1,28
 266 752 266 752 226 516 c 0,17,18
EndSplineSet
EndChar

StartChar: uni0253
Encoding: 595 595 519
Width: 1100
GlyphClass: 2
Flags: W
LayerCount: 2
Fore
SplineSet
236 520 m 0,0,1
 196 282 196 282 273 147 c 128,-1,2
 350 12 350 12 494 12 c 0,3,4
 652 12 652 12 774 151 c 128,-1,5
 896 290 896 290 934 520 c 256,6,7
 972 750 972 750 897 888 c 128,-1,8
 822 1026 822 1026 666 1026 c 0,9,10
 526 1026 526 1026 400 890 c 128,-1,11
 274 754 274 754 236 520 c 0,0,1
96 0 m 1,12,-1
 264 1016 l 2,13,14
 352 1542 352 1542 714 1542 c 0,15,16
 844 1542 844 1542 948 1504 c 1,17,-1
 930 1454 l 1,18,19
 806 1490 806 1490 706 1490 c 0,20,21
 400 1490 400 1490 322 1012 c 2,22,-1
 280 768 l 1,23,24
 328 886 328 886 434 982 c 128,-1,25
 540 1078 540 1078 678 1078 c 0,26,27
 864 1078 864 1078 947 927 c 128,-1,28
 1030 776 1030 776 988 520 c 0,29,30
 942 246 942 246 801 104 c 128,-1,31
 660 -38 660 -38 490 -38 c 0,32,33
 362 -38 362 -38 287 45 c 128,-1,34
 212 128 212 128 194 250 c 1,35,-1
 154 0 l 1,36,-1
 96 0 l 1,12,-1
EndSplineSet
EndChar

StartChar: uni0254
Encoding: 596 596 520
Width: 942
GlyphClass: 2
Flags: W
LayerCount: 2
Fore
SplineSet
0 200 m 1,0,-1
 54 220 l 1,1,2
 82 134 82 134 154 73 c 128,-1,3
 226 12 226 12 326 12 c 0,4,5
 486 12 486 12 611 153 c 128,-1,6
 736 294 736 294 774 520 c 0,7,8
 810 742 810 742 733 884 c 128,-1,9
 656 1026 656 1026 494 1026 c 0,10,11
 402 1026 402 1026 319 971 c 128,-1,12
 236 916 236 916 186 830 c 1,13,-1
 136 848 l 1,14,15
 190 948 190 948 288 1013 c 128,-1,16
 386 1078 386 1078 502 1078 c 0,17,18
 700 1078 700 1078 785 919 c 128,-1,19
 870 760 870 760 830 520 c 0,20,21
 788 264 788 264 645 113 c 128,-1,22
 502 -38 502 -38 316 -38 c 0,23,24
 198 -38 198 -38 114 31 c 128,-1,25
 30 100 30 100 0 200 c 1,0,-1
EndSplineSet
EndChar

StartChar: uni0255
Encoding: 597 597 521
Width: 944
GlyphClass: 2
Flags: W
LayerCount: 2
Fore
SplineSet
308 48 m 1,0,1
 382 12 382 12 496 12 c 0,2,3
 592 12 592 12 664 54 c 128,-1,4
 736 96 736 96 748 158 c 0,5,6
 756 210 756 210 723 244 c 128,-1,7
 690 278 690 278 624 278 c 0,8,9
 528 278 528 278 443 208 c 128,-1,10
 358 138 358 138 308 48 c 1,0,1
100 522 m 0,11,12
 140 760 140 760 277 919 c 128,-1,13
 414 1078 414 1078 616 1078 c 0,14,15
 730 1078 730 1078 805 1011 c 128,-1,16
 880 944 880 944 900 848 c 1,17,-1
 846 830 l 1,18,19
 828 908 828 908 765 967 c 128,-1,20
 702 1026 702 1026 608 1026 c 0,21,22
 438 1026 438 1026 315 885 c 128,-1,23
 192 744 192 744 156 520 c 0,24,25
 106 214 106 214 264 76 c 1,26,27
 332 186 332 186 426 258 c 128,-1,28
 520 330 520 330 632 330 c 0,29,30
 724 330 724 330 770 279 c 128,-1,31
 816 228 816 228 806 158 c 0,32,33
 792 70 792 70 700 16 c 128,-1,34
 608 -38 608 -38 484 -38 c 0,35,36
 334 -38 334 -38 280 -4 c 1,37,38
 260 -38 260 -38 220 -130 c 1,39,-1
 170 -116 l 1,40,41
 192 -48 192 -48 234 22 c 1,42,43
 40 162 40 162 100 522 c 0,11,12
EndSplineSet
EndChar

StartChar: uni0256
Encoding: 598 598 522
Width: 1114
GlyphClass: 2
Flags: W
LayerCount: 2
Fore
SplineSet
100 520 m 0,0,1
 144 782 144 782 281 930 c 128,-1,2
 418 1078 418 1078 596 1078 c 0,3,4
 726 1078 726 1078 803 987 c 128,-1,5
 880 896 880 896 890 770 c 1,6,-1
 1018 1534 l 1,7,-1
 1074 1534 l 1,8,-1
 806 -88 l 2,9,10
 774 -282 774 -282 813 -362 c 128,-1,11
 852 -442 852 -442 954 -442 c 0,12,13
 1008 -442 1008 -442 1064 -434 c 1,14,-1
 1054 -486 l 1,15,16
 1000 -496 1000 -496 942 -496 c 0,17,18
 814 -496 814 -496 762 -408 c 128,-1,19
 710 -320 710 -320 748 -90 c 2,20,-1
 804 252 l 1,21,22
 746 126 746 126 642 44 c 128,-1,23
 538 -38 538 -38 408 -38 c 0,24,25
 244 -38 244 -38 149 102 c 128,-1,26
 54 242 54 242 100 520 c 0,0,1
156 520 m 0,27,28
 118 292 118 292 190 152 c 128,-1,29
 262 12 262 12 424 12 c 0,30,31
 566 12 566 12 688 146 c 128,-1,32
 810 280 810 280 850 520 c 0,33,34
 888 754 888 754 808 890 c 128,-1,35
 728 1026 728 1026 588 1026 c 0,36,37
 434 1026 434 1026 314 889 c 128,-1,38
 194 752 194 752 156 520 c 0,27,28
EndSplineSet
EndChar

StartChar: uni0257
Encoding: 599 599 523
Width: 1114
GlyphClass: 2
Flags: W
LayerCount: 2
Fore
SplineSet
100 522 m 0,0,1
 144 782 144 782 280 930 c 128,-1,2
 416 1078 416 1078 596 1078 c 0,3,4
 726 1078 726 1078 803 987 c 128,-1,5
 880 896 880 896 890 770 c 1,6,-1
 976 1282 l 2,7,8
 998 1412 998 1412 1084 1477 c 128,-1,9
 1170 1542 1170 1542 1302 1542 c 0,10,11
 1358 1542 1358 1542 1398 1536 c 1,12,-1
 1390 1484 l 1,13,14
 1308 1490 1308 1490 1300 1490 c 0,15,16
 1190 1490 1190 1490 1119 1434 c 128,-1,17
 1048 1378 1048 1378 1028 1264 c 2,18,-1
 820 0 l 1,19,-1
 764 0 l 1,20,-1
 804 252 l 1,21,22
 748 128 748 128 643 45 c 128,-1,23
 538 -38 538 -38 408 -38 c 0,24,25
 244 -38 244 -38 149 103 c 128,-1,26
 54 244 54 244 100 522 c 0,0,1
156 522 m 0,27,28
 118 294 118 294 190 153 c 128,-1,29
 262 12 262 12 424 12 c 0,30,31
 566 12 566 12 688 148 c 128,-1,32
 810 284 810 284 850 522 c 0,33,34
 888 756 888 756 808 891 c 128,-1,35
 728 1026 728 1026 588 1026 c 0,36,37
 434 1026 434 1026 314 889 c 128,-1,38
 194 752 194 752 156 522 c 0,27,28
EndSplineSet
EndChar

StartChar: uni0258
Encoding: 600 600 524
Width: 1048
GlyphClass: 2
Flags: W
LayerCount: 2
Fore
SplineSet
154 550 m 1,0,-1
 886 550 l 1,1,2
 912 738 912 738 839 882 c 128,-1,3
 766 1026 766 1026 594 1026 c 0,4,5
 430 1026 430 1026 308 885 c 128,-1,6
 186 744 186 744 154 550 c 1,0,-1
90 504 m 1,7,-1
 98 558 l 2,8,9
 134 770 134 770 272 924 c 128,-1,10
 410 1078 410 1078 602 1078 c 0,11,12
 800 1078 800 1078 889 923 c 128,-1,13
 978 768 978 768 938 526 c 0,14,15
 896 278 896 278 755 120 c 128,-1,16
 614 -38 614 -38 414 -38 c 0,17,18
 154 -38 154 -38 68 200 c 1,19,-1
 120 222 l 1,20,21
 152 134 152 134 230 73 c 128,-1,22
 308 12 308 12 422 12 c 0,23,24
 596 12 596 12 720 156 c 128,-1,25
 844 300 844 300 878 504 c 1,26,-1
 90 504 l 1,7,-1
EndSplineSet
EndChar

StartChar: uni025A
Encoding: 602 602 526
Width: 1156
GlyphClass: 2
Flags: W
LayerCount: 2
Fore
SplineSet
78 440 m 1,0,-1
 870 796 l 1,1,2
 842 894 842 894 772 960 c 128,-1,3
 702 1026 702 1026 580 1026 c 0,4,5
 470 1026 470 1026 374 964 c 128,-1,6
 278 902 278 902 222 816 c 1,7,-1
 174 836 l 1,8,9
 342 1078 342 1078 590 1078 c 0,10,11
 852 1078 852 1078 922 822 c 1,12,-1
 1068 902 l 1,13,14
 1096 784 1096 784 1210 784 c 0,15,16
 1244 784 1244 784 1260 786 c 1,17,-1
 1252 736 l 1,18,19
 1234 734 1234 734 1204 734 c 0,20,21
 1072 734 1072 734 1040 828 c 1,22,-1
 930 772 l 1,23,24
 952 658 952 658 928 516 c 0,25,26
 888 280 888 280 751 121 c 128,-1,27
 614 -38 614 -38 406 -38 c 0,28,29
 238 -38 238 -38 147 97 c 128,-1,30
 56 232 56 232 78 440 c 1,0,-1
136 412 m 1,31,32
 130 226 130 226 209 119 c 128,-1,33
 288 12 288 12 414 12 c 0,34,35
 598 12 598 12 718 162 c 128,-1,36
 838 312 838 312 870 506 c 0,37,38
 870 510 870 510 872 514 c 0,39,40
 892 632 892 632 878 746 c 1,41,-1
 136 412 l 1,31,32
EndSplineSet
EndChar

StartChar: uni025B
Encoding: 603 603 527
Width: 850
GlyphClass: 2
Flags: W
LayerCount: 2
Fore
SplineSet
56 260 m 0,0,1
 76 380 76 380 162 454 c 128,-1,2
 248 528 248 528 358 550 c 1,3,-1
 358 554 l 1,4,5
 270 576 270 576 220 639 c 128,-1,6
 170 702 170 702 186 804 c 0,7,8
 206 924 206 924 296 1001 c 128,-1,9
 386 1078 386 1078 538 1078 c 0,10,11
 734 1078 734 1078 808 912 c 1,12,-1
 756 886 l 1,13,14
 688 1026 688 1026 534 1026 c 0,15,16
 408 1026 408 1026 333 965 c 128,-1,17
 258 904 258 904 242 806 c 0,18,19
 226 706 226 706 293 641 c 128,-1,20
 360 576 360 576 518 576 c 2,21,-1
 560 576 l 1,22,-1
 552 530 l 1,23,-1
 510 530 l 2,24,25
 330 530 330 530 230 449 c 128,-1,26
 130 368 130 368 112 260 c 0,27,28
 94 150 94 150 164 81 c 128,-1,29
 234 12 234 12 370 12 c 0,30,31
 456 12 456 12 540 59 c 128,-1,32
 624 106 624 106 678 166 c 1,33,-1
 716 134 l 1,34,35
 646 54 646 54 552 8 c 128,-1,36
 458 -38 458 -38 362 -38 c 0,37,38
 200 -38 200 -38 116 41 c 128,-1,39
 32 120 32 120 56 260 c 0,0,1
EndSplineSet
EndChar

StartChar: uni025C
Encoding: 604 604 528
Width: 850
GlyphClass: 2
Flags: W
LayerCount: 2
Fore
SplineSet
-10 134 m 1,0,-1
 40 166 l 1,1,2
 74 106 74 106 143 59 c 128,-1,3
 212 12 212 12 296 12 c 0,4,5
 434 12 434 12 528 81 c 128,-1,6
 622 150 622 150 640 260 c 0,7,8
 658 368 658 368 585 449 c 128,-1,9
 512 530 512 530 332 530 c 2,10,-1
 286 530 l 1,11,-1
 294 576 l 1,12,-1
 338 576 l 2,13,14
 496 576 496 576 584 641 c 128,-1,15
 672 706 672 706 688 806 c 0,16,17
 704 904 704 904 652 965 c 128,-1,18
 600 1026 600 1026 472 1026 c 0,19,20
 316 1026 316 1026 202 886 c 1,21,-1
 160 912 l 1,22,23
 288 1078 288 1078 480 1078 c 0,24,25
 632 1078 632 1078 698 1001 c 128,-1,26
 764 924 764 924 744 804 c 0,27,28
 728 702 728 702 656 639 c 128,-1,29
 584 576 584 576 488 554 c 1,30,-1
 486 550 l 1,31,32
 588 528 588 528 653 454 c 128,-1,33
 718 380 718 380 698 260 c 0,34,35
 674 120 674 120 563 41 c 128,-1,36
 452 -38 452 -38 292 -38 c 0,37,38
 196 -38 196 -38 115 8 c 128,-1,39
 34 54 34 54 -10 134 c 1,0,-1
EndSplineSet
EndChar

StartChar: uni025D
Encoding: 605 605 529
Width: 912
GlyphClass: 2
Flags: W
LayerCount: 2
Fore
SplineSet
-10 134 m 1,0,-1
 40 166 l 1,1,2
 68 112 68 112 140 62 c 128,-1,3
 212 12 212 12 290 12 c 0,4,5
 438 12 438 12 530 81 c 128,-1,6
 622 150 622 150 640 260 c 256,7,8
 658 370 658 370 585 450 c 128,-1,9
 512 530 512 530 332 530 c 2,10,-1
 286 530 l 1,11,-1
 294 576 l 1,12,-1
 338 576 l 2,13,14
 496 576 496 576 584 641 c 128,-1,15
 672 706 672 706 688 806 c 0,16,17
 704 908 704 908 648 967 c 128,-1,18
 592 1026 592 1026 472 1026 c 0,19,20
 314 1026 314 1026 202 886 c 1,21,-1
 160 912 l 1,22,23
 288 1078 288 1078 480 1078 c 0,24,25
 710 1078 710 1078 744 906 c 1,26,-1
 892 976 l 1,27,28
 904 916 904 916 945 878 c 128,-1,29
 986 840 986 840 1044 840 c 0,30,31
 1062 840 1062 840 1090 844 c 1,32,-1
 1082 794 l 1,33,34
 1050 790 1050 790 1034 790 c 0,35,36
 964 790 964 790 918 825 c 128,-1,37
 872 860 872 860 858 904 c 1,38,-1
 748 852 l 1,39,40
 748 834 748 834 744 798 c 0,41,42
 726 698 726 698 654 636 c 128,-1,43
 582 574 582 574 488 554 c 1,44,-1
 486 550 l 1,45,46
 590 526 590 526 654 453 c 128,-1,47
 718 380 718 380 698 260 c 0,48,49
 674 118 674 118 565 40 c 128,-1,50
 456 -38 456 -38 286 -38 c 0,51,52
 190 -38 190 -38 110 12 c 128,-1,53
 30 62 30 62 -10 134 c 1,0,-1
EndSplineSet
EndChar

StartChar: uni025E
Encoding: 606 606 530
Width: 1046
GlyphClass: 2
Flags: W
LayerCount: 2
Fore
SplineSet
100 526 m 0,0,1
 144 788 144 788 289 933 c 128,-1,2
 434 1078 434 1078 626 1078 c 0,3,4
 792 1078 792 1078 874 997 c 128,-1,5
 956 916 956 916 934 788 c 0,6,7
 916 684 916 684 849 617 c 128,-1,8
 782 550 782 550 696 530 c 1,9,-1
 694 528 l 1,10,11
 790 510 790 510 849 438 c 128,-1,12
 908 366 908 366 890 252 c 0,13,14
 868 118 868 118 755 40 c 128,-1,15
 642 -38 642 -38 448 -38 c 0,16,17
 370 -38 370 -38 302 -8 c 128,-1,18
 234 22 234 22 177 85 c 128,-1,19
 120 148 120 148 98 262 c 128,-1,20
 76 376 76 376 100 526 c 0,0,1
156 526 m 0,21,22
 134 388 134 388 155 283 c 128,-1,23
 176 178 176 178 225 122 c 128,-1,24
 274 66 274 66 333 39 c 128,-1,25
 392 12 392 12 456 12 c 0,26,27
 620 12 620 12 718 79 c 128,-1,28
 816 146 816 146 832 248 c 0,29,30
 848 346 848 346 783 423 c 128,-1,31
 718 500 718 500 540 500 c 2,32,-1
 482 500 l 1,33,-1
 490 550 l 1,34,-1
 548 550 l 2,35,36
 710 550 710 550 788 621 c 128,-1,37
 866 692 866 692 882 786 c 0,38,39
 900 900 900 900 830 963 c 128,-1,40
 760 1026 760 1026 618 1026 c 0,41,42
 454 1026 454 1026 325 895 c 128,-1,43
 196 764 196 764 156 526 c 0,21,22
EndSplineSet
EndChar

StartChar: uni025F
Encoding: 607 607 531
Width: 540
GlyphClass: 2
Flags: W
LayerCount: 2
Fore
SplineSet
4 578 m 1,0,-1
 12 628 l 1,1,-1
 258 628 l 1,2,-1
 326 1040 l 1,3,-1
 380 1040 l 1,4,-1
 312 628 l 1,5,-1
 530 628 l 1,6,-1
 522 578 l 1,7,-1
 304 578 l 1,8,-1
 182 -158 l 2,9,10
 156 -314 156 -314 77 -397 c 128,-1,11
 -2 -480 -2 -480 -116 -480 c 2,12,-1
 -178 -480 l 1,13,-1
 -170 -426 l 1,14,-1
 -118 -426 l 2,15,16
 84 -426 84 -426 128 -150 c 2,17,-1
 248 578 l 1,18,-1
 4 578 l 1,0,-1
EndSplineSet
EndChar

StartChar: uni0260
Encoding: 608 608 532
Width: 1100
GlyphClass: 2
Flags: W
LayerCount: 2
Fore
SplineSet
102 540 m 256,0,1
 142 780 142 780 274 929 c 128,-1,2
 406 1078 406 1078 588 1078 c 0,3,4
 720 1078 720 1078 790 993 c 128,-1,5
 860 908 860 908 882 794 c 1,6,-1
 960 1274 l 2,7,8
 982 1404 982 1404 1072 1473 c 128,-1,9
 1162 1542 1162 1542 1292 1542 c 0,10,11
 1310 1542 1310 1542 1386 1536 c 1,12,-1
 1378 1488 l 1,13,14
 1350 1490 1350 1490 1288 1490 c 0,15,16
 1184 1490 1184 1490 1109 1431 c 128,-1,17
 1034 1372 1034 1372 1014 1256 c 2,18,-1
 818 76 l 2,19,20
 770 -210 770 -210 661 -353 c 128,-1,21
 552 -496 552 -496 338 -496 c 0,22,23
 236 -496 236 -496 155 -451 c 128,-1,24
 74 -406 74 -406 32 -328 c 1,25,-1
 82 -298 l 1,26,27
 180 -444 180 -444 350 -444 c 0,28,29
 530 -444 530 -444 625 -313 c 128,-1,30
 720 -182 720 -182 762 70 c 2,31,-1
 796 272 l 1,32,33
 660 -4 660 -4 412 -4 c 0,34,35
 234 -4 234 -4 148 148 c 128,-1,36
 62 300 62 300 102 540 c 256,0,1
158 538 m 0,37,38
 122 318 122 318 195 184 c 128,-1,39
 268 50 268 50 418 50 c 0,40,41
 576 50 576 50 689 181 c 128,-1,42
 802 312 802 312 840 542 c 0,43,44
 876 756 876 756 804 891 c 128,-1,45
 732 1026 732 1026 584 1026 c 0,46,47
 424 1026 424 1026 309 889 c 128,-1,48
 194 752 194 752 158 538 c 0,37,38
EndSplineSet
EndChar

StartChar: uni0262
Encoding: 610 610 534
Width: 1128
GlyphClass: 2
Flags: W
LayerCount: 2
Fore
SplineSet
100 520 m 0,0,1
 142 770 142 770 294 924 c 128,-1,2
 446 1078 446 1078 666 1078 c 0,3,4
 890 1078 890 1078 984 878 c 1,5,-1
 932 852 l 1,6,7
 838 1026 838 1026 658 1026 c 0,8,9
 466 1026 466 1026 330 886 c 128,-1,10
 194 746 194 746 156 520 c 0,11,12
 118 290 118 290 208 151 c 128,-1,13
 298 12 298 12 484 12 c 0,14,15
 654 12 654 12 766 125 c 128,-1,16
 878 238 878 238 904 388 c 2,17,-1
 920 484 l 1,18,-1
 548 484 l 1,19,-1
 558 536 l 1,20,-1
 982 536 l 1,21,-1
 894 0 l 1,22,-1
 842 0 l 1,23,-1
 872 192 l 1,24,25
 822 98 822 98 718 30 c 128,-1,26
 614 -38 614 -38 474 -38 c 0,27,28
 258 -38 258 -38 158 113 c 128,-1,29
 58 264 58 264 100 520 c 0,0,1
EndSplineSet
EndChar

StartChar: uni0263
Encoding: 611 611 535
Width: 900
GlyphClass: 2
Flags: W
LayerCount: 2
Fore
SplineSet
110 1040 m 1,0,-1
 172 1040 l 1,1,-1
 372 200 l 1,2,-1
 382 146 l 1,3,-1
 886 1040 l 1,4,-1
 954 1040 l 1,5,-1
 414 92 l 1,6,7
 456 12 456 12 476 -30 c 128,-1,8
 496 -72 496 -72 509 -136 c 128,-1,9
 522 -200 522 -200 512 -260 c 0,10,11
 494 -364 494 -364 430 -430 c 128,-1,12
 366 -496 366 -496 276 -496 c 0,13,14
 190 -496 190 -496 147 -433 c 128,-1,15
 104 -370 104 -370 122 -260 c 0,16,17
 126 -238 126 -238 131 -217 c 128,-1,18
 136 -196 136 -196 146 -174 c 128,-1,19
 156 -152 156 -152 163 -136 c 128,-1,20
 170 -120 170 -120 186 -96 c 128,-1,21
 202 -72 202 -72 209 -62 c 128,-1,22
 216 -52 216 -52 238 -25 c 128,-1,23
 260 2 260 2 267 10 c 128,-1,24
 274 18 274 18 301 50 c 128,-1,25
 328 82 328 82 336 90 c 1,26,-1
 110 1040 l 1,0,-1
172 -264 m 0,27,28
 160 -340 160 -340 190 -395 c 128,-1,29
 220 -450 220 -450 284 -450 c 0,30,31
 350 -450 350 -450 399 -395 c 128,-1,32
 448 -340 448 -340 460 -264 c 0,33,34
 464 -242 464 -242 464 -218 c 128,-1,35
 464 -194 464 -194 464 -177 c 128,-1,36
 464 -160 464 -160 455 -134 c 128,-1,37
 446 -108 446 -108 444 -98 c 128,-1,38
 442 -88 442 -88 427 -59 c 128,-1,39
 412 -30 412 -30 409 -24 c 128,-1,40
 406 -18 406 -18 387 16 c 128,-1,41
 368 50 368 50 366 52 c 1,42,43
 194 -136 194 -136 172 -264 c 0,27,28
EndSplineSet
Substitution2: "'sups' Superscript lookup 5 subtable" uni02E0
Substitution2: "'aalt' Access All Alternates lookup 0 subtable" uni02E0
EndChar

StartChar: uni0264
Encoding: 612 612 536
Width: 898
GlyphClass: 2
Flags: W
LayerCount: 2
Fore
SplineSet
482 752 m 1,0,1
 402 672 402 672 356 618 c 128,-1,2
 310 564 310 564 259 468 c 128,-1,3
 208 372 208 372 192 270 c 0,4,5
 174 156 174 156 218 84 c 128,-1,6
 262 12 262 12 362 12 c 0,7,8
 456 12 456 12 524 84 c 128,-1,9
 592 156 592 156 612 270 c 0,10,11
 636 410 636 410 599 521 c 128,-1,12
 562 632 562 632 482 752 c 1,0,1
162 1020 m 1,13,-1
 170 1070 l 1,14,15
 198 1078 198 1078 228 1078 c 0,16,17
 320 1078 320 1078 379 1019 c 128,-1,18
 438 960 438 960 498 846 c 1,19,20
 596 962 596 962 673 1020 c 128,-1,21
 750 1078 750 1078 840 1078 c 0,22,23
 872 1078 872 1078 898 1072 c 1,24,-1
 888 1020 l 1,25,26
 872 1026 872 1026 834 1026 c 0,27,28
 758 1026 758 1026 685 967 c 128,-1,29
 612 908 612 908 522 798 c 1,30,31
 618 650 618 650 655 534 c 128,-1,32
 692 418 692 418 668 270 c 0,33,34
 644 130 644 130 560 46 c 128,-1,35
 476 -38 476 -38 354 -38 c 0,36,37
 226 -38 226 -38 169 46 c 128,-1,38
 112 130 112 130 134 270 c 0,39,40
 140 306 140 306 151 341 c 128,-1,41
 162 376 162 376 170 403 c 128,-1,42
 178 430 178 430 198 465 c 128,-1,43
 218 500 218 500 227 518 c 128,-1,44
 236 536 236 536 263 573 c 128,-1,45
 290 610 290 610 297 621 c 128,-1,46
 304 632 304 632 337 669 c 128,-1,47
 370 706 370 706 375 712 c 128,-1,48
 380 718 380 718 418 757 c 128,-1,49
 456 796 456 796 456 798 c 0,50,51
 402 912 402 912 350 969 c 128,-1,52
 298 1026 298 1026 220 1026 c 0,53,54
 200 1026 200 1026 162 1020 c 1,13,-1
EndSplineSet
EndChar

StartChar: uni0265
Encoding: 613 613 537
Width: 1094
GlyphClass: 2
Flags: W
LayerCount: 2
Fore
SplineSet
140 364 m 2,0,-1
 252 1040 l 1,1,-1
 310 1040 l 1,2,-1
 200 380 l 2,3,4
 140 12 140 12 408 12 c 0,5,6
 542 12 542 12 669 128 c 128,-1,7
 796 244 796 244 822 402 c 2,8,-1
 926 1040 l 1,9,-1
 984 1040 l 1,10,-1
 730 -488 l 1,11,-1
 674 -488 l 1,12,-1
 790 216 l 1,13,14
 742 120 742 120 631 41 c 128,-1,15
 520 -38 520 -38 388 -38 c 0,16,17
 332 -38 332 -38 287 -22 c 128,-1,18
 242 -6 242 -6 197 33 c 128,-1,19
 152 72 152 72 136 158 c 128,-1,20
 120 244 120 244 140 364 c 2,0,-1
EndSplineSet
EndChar

StartChar: uni0266
Encoding: 614 614 538
Width: 1094
GlyphClass: 2
Flags: W
LayerCount: 2
Fore
SplineSet
96 0 m 1,0,-1
 298 1220 l 2,1,2
 324 1374 324 1374 423 1458 c 128,-1,3
 522 1542 522 1542 654 1542 c 0,4,5
 752 1542 752 1542 844 1528 c 1,6,-1
 834 1474 l 1,7,8
 738 1490 738 1490 648 1490 c 0,9,10
 520 1490 520 1490 447 1403 c 128,-1,11
 374 1316 374 1316 356 1214 c 2,12,-1
 292 822 l 1,13,14
 344 920 344 920 455 999 c 128,-1,15
 566 1078 566 1078 694 1078 c 0,16,17
 752 1078 752 1078 798 1062 c 128,-1,18
 844 1046 844 1046 888 1005 c 128,-1,19
 932 964 932 964 948 880 c 128,-1,20
 964 796 964 796 944 676 c 2,21,-1
 832 0 l 1,22,-1
 774 0 l 1,23,-1
 884 658 l 2,24,25
 944 1026 944 1026 674 1026 c 0,26,27
 542 1026 542 1026 415 913 c 128,-1,28
 288 800 288 800 260 634 c 2,29,-1
 156 0 l 1,30,-1
 96 0 l 1,0,-1
EndSplineSet
Substitution2: "'sups' Superscript lookup 5 subtable" uni02B1
Substitution2: "'aalt' Access All Alternates lookup 0 subtable" uni02B1
EndChar

StartChar: uni0267
Encoding: 615 615 539
Width: 1102
GlyphClass: 2
Flags: W
LayerCount: 2
Fore
SplineSet
96 0 m 1,0,-1
 298 1220 l 2,1,2
 324 1374 324 1374 423 1458 c 128,-1,3
 522 1542 522 1542 654 1542 c 0,4,5
 752 1542 752 1542 844 1528 c 1,6,-1
 834 1474 l 1,7,8
 738 1490 738 1490 648 1490 c 0,9,10
 520 1490 520 1490 447 1403 c 128,-1,11
 374 1316 374 1316 356 1212 c 2,12,-1
 292 822 l 1,13,14
 344 920 344 920 455 999 c 128,-1,15
 566 1078 566 1078 694 1078 c 0,16,17
 752 1078 752 1078 798 1062 c 128,-1,18
 844 1046 844 1046 888 1005 c 128,-1,19
 932 964 932 964 948 880 c 128,-1,20
 964 796 964 796 944 676 c 2,21,-1
 804 -160 l 2,22,23
 776 -324 776 -324 702 -410 c 128,-1,24
 628 -496 628 -496 474 -496 c 0,25,26
 422 -496 422 -496 380 -490 c 1,27,-1
 388 -438 l 1,28,29
 428 -444 428 -444 480 -444 c 0,30,31
 586 -444 586 -444 654 -379 c 128,-1,32
 722 -314 722 -314 748 -158 c 2,33,-1
 884 658 l 2,34,35
 944 1026 944 1026 674 1026 c 0,36,37
 544 1026 544 1026 416 912 c 128,-1,38
 288 798 288 798 260 634 c 2,39,-1
 156 0 l 1,40,-1
 96 0 l 1,0,-1
EndSplineSet
EndChar

